<?xml version="1.0" encoding="utf-8"?>
<!-- Generator: Adobe Illustrator 19.0.0, SVG Export Plug-In . SVG Version: 6.00 Build 0)  -->
<svg version="1.1" id="Layer_1" xmlns="http://www.w3.org/2000/svg" xmlns:xlink="http://www.w3.org/1999/xlink" x="0px" y="0px"
	 viewBox="0 0 188 164" style="enable-background:new 0 0 188 164;" xml:space="preserve">
<style type="text/css">
	.st0{fill:#573E7D;}
	.st1{fill:#FDFDFE;}
	.st2{fill:#573F7D;}
</style>
<path id="XMLID_70_" class="st0" d="M21,134.6c0-35.6,0-71.3,0-106.9c0.4-0.1,0.3-0.5,0.3-0.7c2.3-11,9-17.9,19.9-20.5
	c0.4-0.1,0.9,0.1,1.1-0.4C78,6,113.7,6,149.3,6c0.2,0.5,0.6,0.3,0.9,0.3c10.4,2.2,17.1,8.4,20.1,18.6c0.3,1,0.2,2.1,0.7,3
	c0,35.4,0,70.7,0,106.1c-0.4,0.2-0.3,0.6-0.3,0.9c-1.6,9.9-9.1,18-18.9,20.4c-1,0.2-2.1,0.2-3.1,0.7c-35.3,0-70.5,0-105.8,0
	c-0.2-0.1-0.3-0.2-0.5-0.3c-11-1.9-18.6-9.1-21-20C21.4,135.4,21.5,134.8,21,134.6z M117.7,79.1c0.4-0.3,0.5-0.4,0.7-0.5
	c8.5-4,12.3-10.8,11.8-20.1c-0.4-7.8-3.9-13.5-11-17c-4.8-2.3-9.9-3-15.1-3c-13.7,0-27.3,0-41,0c-1.1,0-1.4,0.2-1.4,1.4
	c0,28.3,0,56.6,0,85c0,1,0.3,1.3,1.3,1.3c13.6,0,27.1,0,40.7-0.1c5.1,0,10.2-0.8,15-2.6c5.9-2.3,10.8-5.8,13.5-11.8
	c2.2-5.1,2.4-10.4,1.4-15.8c-1.1-5.9-3.8-10.8-9.1-14.1C122.6,80.5,120.3,79.8,117.7,79.1z"/>
<path id="XMLID_62_" class="st1" d="M117.7,79.1c2.6,0.6,4.8,1.4,6.9,2.7c5.3,3.2,8,8.2,9.1,14.1c1,5.4,0.8,10.7-1.4,15.8
	c-2.6,6-7.5,9.5-13.5,11.8c-4.8,1.9-9.9,2.6-15,2.6c-13.6,0.1-27.1,0-40.7,0.1c-1,0-1.3-0.3-1.3-1.3c0-28.3,0-56.6,0-85
	c0-1.1,0.3-1.4,1.4-1.4c13.7,0,27.3,0,41,0c5.2,0,10.3,0.7,15.1,3c7.1,3.4,10.6,9.2,11,17c0.5,9.3-3.3,16.1-11.8,20.1
	C118.3,78.7,118.1,78.8,117.7,79.1z M92.1,113.6C92.1,113.5,92.1,113.5,92.1,113.6c4.4,0,8.9,0,13.3,0c7.6-0.1,12.4-4.4,13.3-11.9
	c0.8-7-2-12.7-9-14.7c-1.6-0.4-3.2-0.7-4.9-0.7c-8.8,0-17.6,0-26.4,0c-1,0-1.3,0.2-1.3,1.3c0,8.2,0.1,16.5,0,24.7
	c0,1.2,0.4,1.3,1.4,1.3C83,113.5,87.6,113.6,92.1,113.6z M91,51.1C91,51.1,91,51.1,91,51.1c-4.2,0-8.5,0-12.7,0
	c-0.9,0-1.2,0.2-1.2,1.1c0,7.3,0,14.6,0,22c0,0.7,0.1,1.1,1,1c8.5,0,17.1,0.1,25.6-0.1c5.6-0.1,9.9-3.8,11-9
	c0.5-2.6,0.4-5.2-0.3-7.8c-0.8-3-2.6-4.9-5.5-6c-1.9-0.7-3.8-1.1-5.9-1.1C99,51.1,95,51.1,91,51.1z"/>
<path id="XMLID_61_" class="st2" d="M92.1,113.6c-4.5,0-9.1,0-13.6,0c-1,0-1.4-0.1-1.4-1.3c0.1-8.2,0-16.5,0-24.7
	c0-1.1,0.4-1.3,1.3-1.3c8.8,0,17.6,0,26.4,0c1.7,0,3.3,0.2,4.9,0.7c7.1,2,9.8,7.7,9,14.7c-0.8,7.5-5.7,11.7-13.3,11.9
	C101,113.6,96.6,113.5,92.1,113.6C92.1,113.5,92.1,113.5,92.1,113.6z"/>
<path id="XMLID_60_" class="st2" d="M91,51.1c4,0,8,0,12,0c2,0,4,0.4,5.9,1.1c2.8,1.1,4.7,3.1,5.5,6c0.7,2.6,0.8,5.2,0.3,7.8
	c-1,5.2-5.4,8.9-11,9c-8.5,0.2-17.1,0.1-25.6,0.1c-0.8,0-1-0.3-1-1c0-7.3,0-14.6,0-22c0-1,0.3-1.1,1.2-1.1
	C82.5,51.1,86.8,51.1,91,51.1C91,51.1,91,51.1,91,51.1z"/>
</svg>
