<?xml version="1.0" encoding="utf-8"?>
<!-- Generator: Adobe Illustrator 19.0.0, SVG Export Plug-In . SVG Version: 6.00 Build 0)  -->
<svg version="1.1" id="Layer_1" xmlns="http://www.w3.org/2000/svg" xmlns:xlink="http://www.w3.org/1999/xlink" x="0px" y="0px"
	 viewBox="0 0 188 164" style="enable-background:new 0 0 188 164;" xml:space="preserve">
<style type="text/css">
	.st0{fill:#44B784;}
	.st1{fill:#374B5F;}
</style>
<path id="XMLID_24_" class="st0" d="M148.2,10.1c11.3,0,22.6,0,34,0c0.6,1.9-0.9,3.1-1.6,4.4c-27,47.2-54.1,94.3-81.1,141.5
	c-1.3,2.2-2,5.1-4.6,0.6c-27.5-48.1-55.1-96-82.6-144.1c-0.3-0.6-0.5-1.2-1-2.3c11.5,0,22.7,0,33.9,0C62.3,40,79.5,69.9,97,100.4
	c10.1-17.7,19.7-34.4,29.2-51.1C133.6,36.2,140.9,23.2,148.2,10.1z"/>
<path id="XMLID_23_" class="st1" d="M148.2,10.1c-7.3,13-14.6,26.1-22,39.1C116.7,66,107.1,82.7,97,100.4
	C79.5,69.9,62.3,40,45.2,10.2c9.6-0.1,19.3,0,28.9-0.2c2.8-0.1,3.7,1.5,4.8,3.4C84.7,23.5,90.6,33.6,97,44.5
	c4.9-8.6,10.1-16.3,13.8-24.6c3.6-8,8.7-11.2,17.5-10.1C134.8,10.7,141.5,10.1,148.2,10.1z"/>
</svg>
