<?xml version="1.0" encoding="utf-8"?>
<!-- Generator: Adobe Illustrator 19.0.0, SVG Export Plug-In . SVG Version: 6.00 Build 0)  -->
<svg version="1.1" id="Layer_1" xmlns="http://www.w3.org/2000/svg" xmlns:xlink="http://www.w3.org/1999/xlink" x="0px" y="0px"
	 viewBox="0 0 642 290.5" style="enable-background:new 0 0 642 290.5;" xml:space="preserve">
<style type="text/css">
	.st0{fill:none;stroke:#377FC2;stroke-width:7;stroke-miterlimit:10;}
	.st1{fill:#FFFFFF;stroke:#F37575;stroke-width:7;stroke-miterlimit:10;}
	.st2{fill:none;stroke:#F37575;stroke-width:7;stroke-miterlimit:10;}
	.st3{fill:none;stroke:#08B793;stroke-width:7;stroke-miterlimit:10;}
	.st4{fill:#FFFFFF;stroke:#377FC2;stroke-width:7;stroke-miterlimit:10;}
	.st5{fill:#FFFFFF;stroke:#08B793;stroke-width:7;stroke-miterlimit:10;}
	.st6{fill:#EDEDED;}
	.st7{fill:#317486;}
	.st8{fill:#F0AC7D;}
	.st9{fill:#B63231;}
	.st10{fill:#DCD6CF;}
	.st11{fill:#DD7446;}
	.st12{fill:#9AA454;}
	.st13{fill:#68371D;}
	.st14{fill:#C19574;}
	.st15{fill:#FFFFFF;}
	.st16{fill:#4E7F60;}
	.st17{fill:#AF5554;}
	.st18{fill:#946D97;}
	.st19{fill:#454D56;}
	.st20{fill:#7796AF;}
	.st21{fill:#48525A;}
	.st22{fill:#647F97;}
	.st23{fill:#7290A9;}
	.st24{fill:#F2A284;}
	.st25{fill:#5D4947;}
	.st26{fill:#577386;}
	.st27{fill:#B9B9BA;}
	.st28{fill:#E7E7E8;}
	.st29{fill:#577186;}
	.st30{fill:#4A4F57;}
	.st31{fill:#C87D66;}
	.st32{fill:#979493;}
	.st33{fill:#23386D;}
	.st34{fill:#F3BA1B;}
	.st35{fill:#EF9C79;}
	.st36{fill:#202647;}
	.st37{fill:#A2A1A2;}
	.st38{fill:#1E2E59;}
	.st39{fill:#B4B4B5;}
	.st40{fill:#E89776;}
	.st41{fill:#2B3C6A;}
	.st42{fill:#CA8468;}
	.st43{fill:#434049;}
	.st44{fill:#E1E3E8;}
	.st45{fill:#C4982E;}
	.st46{fill:#838589;}
	.st47{fill:#F37475;}
	.st48{fill:#327FC2;}
	.st49{fill:#11B793;}
	.st50{font-family: 'Montserrat', sans-serif;}
	.st51{font-size:18px;}
	.st52{font-family: 'Montserrat', sans-serif;}
	.st53{font-size:16px;}
	.st54{font-family: 'Montserrat', sans-serif;}
	.st55{font-size:8px;}
</style>
<line id="XMLID_12_" class="st0" x1="333.7" y1="154.4" x2="333.7" y2="202.2"/>
<line id="XMLID_9_" class="st0" x1="274.2" y1="94.9" x2="183.2" y2="94.9"/>
<path id="XMLID_8_" class="st0" d="M333.7,157.9c-34.8,0-63-28.2-63-63"/>
<circle id="XMLID_3_" class="st1" cx="155" cy="101.4" r="45.5"/>
<line id="XMLID_10_" class="st2" x1="99.9" y1="98.4" x2="8.9" y2="98.4"/>
<line id="XMLID_5_" class="st2" x1="159.4" y1="157.9" x2="159.4" y2="209.5"/>
<path id="XMLID_11_" class="st2" d="M96.5,98.4c0,34.8,28.2,63,63,63"/>
<line id="XMLID_17_" class="st3" x1="445.6" y1="96.4" x2="354.6" y2="96.4"/>
<line id="XMLID_76_" class="st3" x1="595.6" y1="96.4" x2="504.6" y2="96.4"/>
<line id="XMLID_16_" class="st3" x1="505.1" y1="155.9" x2="505.1" y2="201.7"/>
<path id="XMLID_15_" class="st3" d="M442.1,96.4c0,34.8,28.2,63,63,63"/>
<circle id="XMLID_4_" class="st4" cx="329.5" cy="97.7" r="45.5"/>
<circle id="XMLID_7_" class="st5" cx="500" cy="99.7" r="45.5"/>
<path id="XMLID_70_" class="st6" d="M203.5,138.5c0-0.2,0-0.4,0.3-0.4c0,0,0.1,0,0.1,0.1C203.9,138.5,203.7,138.5,203.5,138.5
	L203.5,138.5z"/>
<g id="XMLID_18_">
	<path id="XMLID_65_" class="st7" d="M160.7,77.9c0.9,0.1,1.8,0.2,2.8,0.3c3.4,0.4,5,1.8,5.7,5.1c0.6,2.9,0.8,5.8,1,8.8
		c0,0.5,0,1.1,0.6,1.4c0.2,0.1,0.3,0.4,0.4,0.6c0.8,1.6,0.1,5.5-1.1,6.8c-0.2,0.2-0.3,0.5-0.4,0.8c-1,2.9-3.2,4.3-6.1,4.8
		c-0.3,0-0.6,0.1-1,0.1c-0.8-0.1-0.8,0.3-0.8,1c0.1,5.3,0.2,10.6,0.2,15.9c0,0.4,0.1,0.8,0,1.2c-0.1,0.5-0.2,0.9,0.6,1.1
		c0.5,0.1,0.6,0.7,0.5,1.2c-0.1,0.4-0.1,0.8-0.2,1.1c-0.2,0.2-0.4,0.2-0.6,0c-0.9-0.5-1.9-0.4-2.9-0.1c-0.7,0.2-1.1,0.8-1.8,1
		c-0.2-0.4-0.4-0.8-0.6-1.1c-0.2-0.4-0.4-1,0.1-1.1c1.4-0.5,1.1-1.2,0.5-2.1c-0.2-0.3-0.2-0.6-0.3-0.9c-0.9-3.8-1.7-7.5-2.6-11.3
		c-0.1-0.3,0-0.6-0.4-0.7c-0.9,4-1.9,8.1-2.8,12.1c-0.2,0.7-0.1,1.5-1.2,1.6c-0.1,0-0.2,0.4-0.3,0.6c-0.2,0.7-0.3,1.4-0.4,2.1
		c-0.1,0.5-0.1,0.9-0.2,1.4c-0.1,0.6-0.2,1.1-0.9,1.2c-0.8,0.1-1.6,0.4-2.4,0.3c0.9-2,0.1-3.9-0.2-5.8c0-0.2,0-0.4,0-0.6
		c0.2-0.2,0.2-0.4,0.2-0.7l0,0c0-0.1,0.1-0.1,0.1-0.2c0.5-0.4,0.5-0.9,0.5-1.5c0.4-5.7,0.8-11.4,1.1-17.2c0.1-0.1,0.1-0.2,0.2-0.2
		c1.1,0.4,1.8,0.1,2.1-0.8c3.7,1.5,7.5,1.4,11.3,0.5c0.8-0.2,1.5-0.6,1.3-1.7c-0.2-0.7-0.1-1.4-0.2-2.1c0.4-0.1,0.8-0.2,1.1-0.2
		c1,0,1.4-0.5,1.6-1.5c0.2-1.2,0.3-2.5,0.3-3.7c0.2-0.1,0.5-0.4,0.7-0.4c1-0.1,1.1-0.7,0.9-1.5c-0.4-1.7-0.8-3.4-1.2-5.1
		c-0.5-1.7-0.5-3.4-1.6-4.9c-0.5-0.6-0.7-0.8-1.1,0c-1,1.6-1.4,3.4-1.9,5.3c-0.2,1.2-0.8,2.2-0.9,3.4c-0.5-0.2-0.3-0.6-0.3-0.9
		c0-1.4,0-2.8,0-4.2c0-0.3,0.2-0.7-0.4-0.8c-0.3-0.3-0.6-0.1-0.9-0.3c0-0.8,0-1.5,0-2.3c-0.1-1.5-0.1-2.9-0.2-4.4
		c0-0.5,0-0.8,0.5-1.1C159.6,78,160.2,78,160.7,77.9z M149,129.2c0-0.4,0.1-0.8-0.3-0.9c-0.4,0-0.5,0.4-0.5,0.8
		c0,0.3-0.1,0.7,0.4,0.8C149,129.9,149,129.5,149,129.2z"/>
	<path id="XMLID_57_" class="st8" d="M160.7,77.9c-0.6,0-1.1,0-1.7,0c-0.6-0.1-0.9,0.1-0.8,0.8c0,0.9,0,1.7,0,2.6
		c0.1,1.2-0.3,1.7-1.5,1.8c-0.3,0-0.6,0-1,0c-1.2,0-1.5-0.4-1-1.5c0.1-0.2,0-0.4,0-0.6c0.1-0.5,0.1-1,0.2-1.6
		c0.2-1.5,0.2-1.5-1.3-1.4c-1.3-0.6-2.7-0.9-4-1.6c-3.4-1.8-5-5.2-3.1-9c0.2-0.5,0.3-1,0.5-1.5c0.4-1.3,0.5-2.7,0.7-4.1
		c0.5,0.1,1.1,0.2,1.6,0.2c2.4-0.1,4.8,0.2,7.1,0.3c1.9,0.1,3.9,0.3,5.8,0.8c0.3,1.3,0.9,2.5,1.9,3.5c0.3,0.3,0.4,0.5,0.5,0.9
		c0.1,1,0.3,1.9,0.5,3c1.2-1.4,1.9-3.4,4.2-3c0.5,0.9,1.3,1.7,1.2,2.9c-0.1,1.8-1.3,3.2-3.1,3.2c-0.8,0-1.3,0.3-1.8,0.9
		c-1.3,1.5-2.9,2.6-4.8,3.2C160.8,77.6,160.6,77.7,160.7,77.9z M151.4,71c-0.9,0.2-1.2,0.8-1.1,1.7c0.1,1.2,1,2.1,2.2,2.4
		c1.4,1.2,4.3,1.1,6.2-0.2c1.2-1.3,1.1-2.3-0.1-3c-0.7-0.4-1.5-0.3-2.3-0.1c-1.3,0.2-2.5,0.1-3.7-0.5C152.2,71,151.8,70.6,151.4,71z
		 M161.3,66.5c0-0.5,0-1.1-0.8-1.2c-0.7-0.1-1.2,0.6-1.2,1.5c0,0.6,0.2,1.2,0.9,1.2C161.1,68,161.2,67.3,161.3,66.5z M155.8,65.1
		c-0.1,0-0.2,0-0.3,0c-0.1,0.2-0.2,0.5-0.2,0.7c-0.1,1-0.1,2-1.6,2.2c-0.6,0.1-0.5,0.8-0.4,1.3c0,0.5,0.3,0.9,0.8,1
		c0.4,0.1,0.7-0.1,0.8-0.7c-0.5,0.1-1.1,0.3-1.2-0.5c-0.1-0.8,0.3-0.9,1-0.8c0.2,0,0.5-0.2,0.6-0.4C155.6,67,155.9,66,155.8,65.1z
		 M152.5,65.6c0-0.6-0.1-1.1-0.8-1.1c-0.7,0-1,0.6-1,1.2c0,0.5,0.2,1,0.8,1C152.3,66.7,152.4,66.1,152.5,65.6z M162.1,63.9
		c0-0.1-0.1-0.2-0.1-0.3c-0.7-0.6-1.4-0.8-2.3-0.6c-0.2,0-0.3,0.1-0.2,0.3c0,0.2,0.2,0.3,0.4,0.3c0.7,0,1.2,0.2,1.8,0.5
		C161.9,64.3,162,64.3,162.1,63.9z M153,62.7c-0.9-0.7-1.7-0.6-2.5-0.2c-0.2,0.1-0.3,0.2-0.2,0.4c0.1,0.2,0.2,0.2,0.3,0.1
		C151.3,62.7,152.1,63,153,62.7z"/>
	<path id="XMLID_54_" class="st9" d="M162.3,63c-1.9-0.5-3.9-0.7-5.8-0.8c-2.4-0.1-4.8-0.4-7.1-0.3c-0.5,0-1-0.1-1.6-0.2
		c-0.2-0.1-0.5,0-0.7-0.3c0-1.7,0-3.3,0.4-5c0.8-3.5,2.2-4.8,5.7-5c3.8-0.2,7.6,0.1,11.3,1.3c1.2,0.4,2.2,0.9,3.1,1.7
		c0.1,0.4,0.3,0.8-0.4,0.6c-0.3-0.1-0.6-0.1-0.8-0.1c-0.8-0.2-1.1,0.1-1.1,0.9c0,1.8,0,3.6-0.1,5.3c0,0.5,0.1,0.7,0.6,0.8
		c1.1,0.2,2.2,0.4,3.4,0.5c0,0.5,0.1,1-0.2,1.5c-0.3,0-0.6,0-0.8-0.1C166.2,63.7,164.2,63.4,162.3,63z M152.9,54.6
		c-0.5-1.4-0.9-1.5-1.8-0.6c-0.2,0.2-0.4,0.4-0.5,0.7c-0.5,1.2-0.9,2.4-1.3,3.6c-0.4,1.4-0.4,1.4,1.1,1.8c0.3,0.1,0.6,0.2,0.9,0.3
		c1,0.4,2,0.6,3,0.5c0.9-0.1,1.8-0.5,2.8-0.4c0.5,0,0.5-0.4,0.5-0.8c-0.2-1.6-0.5-3.3-1.6-4.6c-0.4-0.5-0.7-0.8-1.3-0.3
		c-0.3,0.3-0.6,0.1-0.8-0.2C153.6,53.9,153.3,54,152.9,54.6z"/>
	<path id="XMLID_53_" class="st10" d="M146,130.8c0.8,0.1,1.6-0.2,2.4-0.3c0.7-0.1,0.8-0.6,0.9-1.2c0-0.5,0.1-0.9,0.2-1.4
		c2.4-0.3,4.8-0.6,7.3-0.2c0.2,0.4,0.4,0.8,0.6,1.1c-0.1,0.6-0.2,1.2-0.2,1.9c0,0.9,0.3,1.3,1.2,1.3c1,0,2,0.1,2.9,0
		c2.1-0.2,2.5-0.9,1.7-2.8c-0.1-0.1-0.1-0.3-0.1-0.4c1.2-0.2,2.3,0.2,3.5,0.5c3,0.7,6.1,1,9.2,2c-4,0.9-8,1.7-12,2.3
		c-3.3,0.5-6.6,0.9-9.9,0.8c-3.6,0-7.2-0.5-10.8-1.1c-2.4-0.4-4.8-0.7-7.1-1.3c-0.4-0.1-0.6,0.1-0.9,0.1l0,0
		c-0.1-0.5-0.5-0.4-0.8-0.4c-0.5,0-1-0.1-1.5-0.2c-0.1-0.2-0.2-0.4-0.2-0.6c0.1-0.1,0.3-0.2,0.4-0.2c0.1,0.2,0.3,0.2,0.4,0
		c2.4-0.4,4.8-0.9,7.3-1.1c0.3,1,0.9,1.2,1.8,1.4C143.6,131.1,144.8,131,146,130.8z"/>
	<path id="XMLID_52_" class="st11" d="M162.3,63c1.9,0.3,3.9,0.6,5.8,1c0.3,0,0.6,0.1,0.8,0.1c0.3,0.1,0.6-0.1,0.8,0.2
		c-0.3,0.9,0.2,1.8-0.3,2.6c0,0-0.1,0-0.1,0.1c0,0.1,0,0.1,0,0.2c0,0.1-0.1,0.3-0.1,0.4c-2.3-0.4-3,1.6-4.2,3
		c-0.2-1.1-0.4-2.1-0.5-3c-0.1-0.4-0.2-0.7-0.5-0.9C163.2,65.6,162.6,64.4,162.3,63z"/>
	<path id="XMLID_51_" class="st6" d="M169.2,62.6c-1.1-0.2-2.2-0.4-3.4-0.5c-0.5-0.1-0.6-0.3-0.6-0.8c0.1-1.8,0.1-3.6,0.1-5.3
		c0-0.9,0.2-1.2,1.1-0.9c0.3,0.1,0.6,0.1,0.8,0.1c0.7,0.2,0.5-0.2,0.4-0.6c0.3,0.1,0.5-0.6,0.8-0.2c0.2,0.2,0,0.5-0.2,0.7
		c-0.2,0.2,0,0.5,0.1,0.7c0.8,1.8,1.1,3.7,1.1,5.7C169.3,61.8,169.2,62.2,169.2,62.6z"/>
	<path id="XMLID_50_" class="st7" d="M153.7,78c1.5,0,1.5,0,1.3,1.4c-0.1,0.5-0.1,1-0.2,1.6c-0.5,0.6-0.8,1.2-1,1.9
		c-0.4,0.6-0.6,1.3-0.8,1.9c-0.1,0.5-0.5,0.4-0.8,0.4c-0.7-0.1-1.3-0.2-2-0.2c-0.2-0.2-0.3-0.5-0.2-0.9c0.2-0.8,0.1-1.5,0.1-2.3
		c0.8-0.7,1-1.6,1.4-2.5C151.9,78.5,152.9,78.3,153.7,78z"/>
	<path id="XMLID_49_" class="st6" d="M163,128.9c0,0.1,0.1,0.3,0.1,0.4c0.8,1.9,0.3,2.6-1.7,2.8c-1,0.1-2,0-2.9,0
		c-0.9,0-1.3-0.4-1.2-1.3c0-0.6,0.2-1.3,0.2-1.9c0.7-0.2,1.1-0.9,1.8-1c1-0.2,1.9-0.4,2.9,0.1c0.2,0.1,0.4,0.2,0.6,0
		C162.8,128.3,162.9,128.6,163,128.9z"/>
	<path id="XMLID_48_" class="st12" d="M150.1,81.8c0,0.8,0.1,1.5-0.1,2.3c-0.1,0.3,0,0.6,0.2,0.9c-0.5,0-1.1-0.2-1.5,0.3
		c-0.4,0.5-0.3,1-0.1,1.5c-0.1,0.2-0.5,0.3-0.4,0.7c-0.3,0.4-0.2,0.8-0.2,1.2c0,1.4,0,2.9,0,4.3c-0.7,0-1.4,0-2.1,0c0,0,0-0.1,0-0.1
		c-1-1-0.3-1.9,0.1-2.8c1-2.3,2-4.5,3-6.8C149.2,82.7,149.5,82.1,150.1,81.8z"/>
	<path id="XMLID_47_" class="st13" d="M169.2,62.6c0.1-0.4,0.2-0.8,0.2-1.2c1.9,0.6,4,1,5.8,1.9c0.4,0.2,1,0.2,0.9,0.7
		c-0.1,0.4-0.7,0.4-1.1,0.4c-1.7,0.1-3.5,0-5.2-0.1c-0.2-0.3-0.6-0.1-0.8-0.2C169.2,63.6,169.2,63.1,169.2,62.6z"/>
	<path id="XMLID_46_" class="st14" d="M145.9,92.9c0.7,0,1.4,0,2.1,0c0,0.9,0,1.7,0,2.6c-0.3,0.1-0.6-0.4-0.8,0
		c-0.3,0.7,0.7,0.6,0.7,1.2c-1.1-0.1-1.4,0.7-1.4,1.6c0,1,0.5,1.6,1.5,1.6c0,0.1,0,0.1,0,0.2c-1.2,0-0.6,1-0.9,1.5
		c-0.9-1.9-1.4-4-1.9-6C145.1,94.6,145.5,93.8,145.9,92.9z"/>
	<path id="XMLID_45_" class="st9" d="M147.1,101.5c0.3-0.5-0.3-1.5,0.9-1.5c0,0.5,0,1,0,1.5c-0.1,1,0.3,1.3,1.2,1.2c3-0.1,6,0,9,0
		c0.1,1-0.2,1.4-1.3,1.3c-2.4-0.3-4.8-0.4-7.2-0.6c-0.6,0-1.3,0-1.9,0C146.7,103.1,147.3,102.2,147.1,101.5z"/>
	<path id="XMLID_44_" class="st11" d="M147.1,61.5c0.2,0.3,0.4,0.2,0.7,0.3c-0.1,1.4-0.2,2.8-0.7,4.1c-0.7-0.5-1.2-1.1-1.4-1.9
		C145.5,62.7,145.8,62,147.1,61.5z"/>
	<path id="XMLID_43_" class="st14" d="M147.8,103.4c0.6,0,1.3,0,1.9,0c0.1,0.1,0.1,0.2,0.2,0.3c-0.4,0.8-1.3,0.5-1.9,0.9
		c-0.1,0.1-0.1,0.2-0.2,0.2C147.8,104.4,147.8,103.9,147.8,103.4z"/>
	<path id="XMLID_42_" class="st8" d="M169.5,67.1c0-0.1,0-0.1,0-0.2c0,0,0.1,0,0.1-0.1C169.5,67,169.5,67,169.5,67.1z"/>
	<path id="XMLID_41_" class="st8" d="M148,99.9c-1.1,0-1.6-0.6-1.5-1.6c0-0.9,0.3-1.7,1.4-1.6c0-0.6-1-0.5-0.7-1.2
		c0.2-0.3,0.5,0.1,0.8,0c0.8,0.1,1.6,0.3,1.9,1c0.5,1,1,1,2,0.9c2.3-0.2,4.6-0.5,6.9-0.6c0.5-0.1,1,0.2,1.4-0.3c1.1,0.5,2,0.1,2.1-1
		c1.1,0.2,2.1-0.6,3.2-0.4c0,1.2-0.1,2.5-0.3,3.7c-0.1,0.9-0.5,1.5-1.6,1.5c-0.4,0-0.8,0.1-1.1,0.2c-1.2-0.4-2.3,0-3.4,0.1
		c-0.4-0.1-0.7-0.4-1.1-0.4C154.7,100.4,151.4,99.6,148,99.9z"/>
	<path id="XMLID_40_" class="st15" d="M156.8,127.8c-2.4-0.4-4.8-0.1-7.3,0.2c0.1-0.7,0.3-1.4,0.4-2.1c0.1-0.2,0.2-0.6,0.3-0.6
		c1.1-0.1,1-0.9,1.2-1.6c0.9-4,1.9-8.1,2.8-12.1c0.4,0.1,0.3,0.4,0.4,0.7c0.9,3.8,1.7,7.5,2.6,11.3c0.1,0.3,0.1,0.7,0.3,0.9
		c0.6,0.9,0.9,1.7-0.5,2.1C156.4,126.8,156.6,127.4,156.8,127.8z"/>
	<path id="XMLID_39_" class="st12" d="M165.5,95.1c-1.1-0.2-2.1,0.6-3.2,0.4c-0.5,0-0.8-0.2-0.8-0.7c-0.1-1.8-0.4-3.7-0.1-5.5
		c0-0.3,0.2-0.6-0.1-0.8c0.5-1.8,0.9-3.6,1.9-5.3c0.5-0.8,0.7-0.7,1.1,0c1.1,1.5,1.1,3.3,1.6,4.9c0.5,1.7,0.8,3.4,1.2,5.1
		c0.2,0.8,0.2,1.4-0.9,1.5C166,94.7,165.8,95,165.5,95.1z"/>
	<path id="XMLID_38_" class="st10" d="M160.2,96.5c-0.4,0.5-0.9,0.2-1.4,0.3c0-0.3,0.3-0.5,0.3-0.9c0-2.4,0-4.9,0.1-7.3
		c0-0.6-0.2-0.8-0.8-0.8c-2.8,0-5.7,0-8.5,0c-0.6,0-1.2,0-1.6-0.4c0-0.3,0.3-0.4,0.4-0.7c0.4-0.2,0.8-0.2,1.2-0.2
		c2.9,0.1,5.8,0.1,8.6,0.2c0.3,0,0.8,0.2,1.1-0.3c-2.1-0.3-4.1-0.3-6.1-0.6c-1.6-0.2-3.3,0-4.8-0.6c0.4-0.5,1-0.3,1.5-0.3
		c0.7,0.1,1.3,0.2,2,0.2c0.3,0,0.7,0.1,0.8-0.4c0.3,0,0.6,0.1,0.8,0.4c-0.1,0-0.2,0-0.3,0.1c0,0-0.1,0.1-0.1,0.2
		c2.1,0.2,4.3,0.3,6.4,0.5c0.5,0.1,0.4,0.5,0.4,0.8c0,1.4,0,2.8,0,4.2c0,0.3-0.2,0.7,0.3,0.9C160.1,93.4,160.3,95,160.2,96.5z"/>
	<path id="XMLID_37_" class="st6" d="M159.1,100.6c1.1-0.1,2.3-0.5,3.4-0.1c0.1,0.7,0,1.4,0.2,2.1c0.3,1.1-0.4,1.5-1.3,1.7
		c-3.8,1-7.6,1-11.3-0.5c-0.1,0-0.1-0.1-0.2-0.1c-0.1-0.1-0.1-0.2-0.2-0.3c2.4,0.2,4.8,0.3,7.2,0.6c1.1,0.1,1.4-0.3,1.3-1.3
		c0.6,0,0.9-0.3,0.9-0.9C159.1,101.5,159.1,101.1,159.1,100.6z"/>
	<path id="XMLID_36_" class="st6" d="M153.8,85.2c-0.2-0.3-0.5-0.4-0.8-0.4c0.3-0.6,0.4-1.3,0.8-1.9c0.8,1.3,2.2,1.6,3.8,0.8
		c0.4-0.2,0.7-0.5,1.2-0.3c0,0.8,0,1.5,0,2.3C157.1,85.5,155.5,85.4,153.8,85.2z"/>
	<path id="XMLID_35_" class="st6" d="M160.2,96.5c0.1-1.5-0.1-3.1,0.2-4.6c0.1-1.2,0.7-2.3,0.9-3.4c0.3,0.2,0.1,0.5,0.1,0.8
		c-0.3,1.8,0,3.7,0.1,5.5c0,0.5,0.3,0.8,0.8,0.7C162.2,96.6,161.2,97,160.2,96.5z"/>
	<path id="XMLID_34_" class="st14" d="M158.8,83.4c-0.5-0.2-0.8,0.1-1.2,0.3c-1.6,0.7-3,0.5-3.8-0.8c0.1-0.7,0.5-1.4,1-1.9
		c0,0.2,0,0.4,0,0.6c-0.5,1.1-0.2,1.5,1,1.5c0.3,0,0.6,0,1,0c1.2-0.1,1.6-0.6,1.5-1.8c0-0.9,0-1.7,0-2.6c0-0.6,0.3-0.8,0.8-0.8
		c-0.4,0.3-0.5,0.6-0.5,1.1C158.7,80.5,158.7,82,158.8,83.4z"/>
	<path id="XMLID_33_" class="st14" d="M153.8,85.2c1.7,0.2,3.4,0.3,5,0.5c0.3,0.2,0.7,0,0.9,0.3c-2.1-0.2-4.3-0.3-6.4-0.5
		c0.1-0.1,0.1-0.1,0.1-0.2C153.6,85.2,153.7,85.2,153.8,85.2z"/>
	<path id="XMLID_32_" class="st6" d="M149,129.2c0,0.3,0,0.7-0.4,0.7c-0.4,0-0.4-0.4-0.4-0.8c0-0.4,0.1-0.8,0.5-0.8
		C149.1,128.4,149,128.9,149,129.2z"/>
	<path id="XMLID_31_" class="st16" d="M149.9,103.8c0.1,0,0.1,0.1,0.2,0.1c-0.3,0.9-1,1.1-2.1,0.8
		C148.6,104.3,149.5,104.6,149.9,103.8z"/>
	<path id="XMLID_30_" class="st13" d="M152.5,75c-1.2-0.2-2.1-1.2-2.2-2.4c-0.1-0.8,0.2-1.5,1.1-1.7c-0.3,0.9,0.1,1.4,1,1.7
		c1.6,0.5,3.3,0.7,5,0.5c0.8-0.1,1.2-0.5,1.1-1.3c1.3,0.7,1.3,1.7,0.1,3c-0.1-0.1-0.3-0.1-0.4-0.2C157,73.6,153.7,73.7,152.5,75z"/>
	<path id="XMLID_29_" class="st6" d="M158.5,71.8c0.1,0.9-0.3,1.2-1.1,1.3c-1.7,0.2-3.4,0-5-0.5c-0.8-0.3-1.2-0.8-1-1.7
		c0.5-0.4,0.8,0,1.2,0.2c1.2,0.6,2.4,0.7,3.7,0.5C157,71.6,157.8,71.4,158.5,71.8z"/>
	<path id="XMLID_28_" class="st11" d="M152.5,75c1.2-1.4,4.5-1.4,5.8-0.4c0.1,0.1,0.2,0.1,0.4,0.2C156.8,76.2,153.8,76.3,152.5,75z"
		/>
	<path id="XMLID_27_" class="st13" d="M161.3,66.5c0,0.8-0.2,1.4-1.1,1.4c-0.7,0-0.9-0.6-0.9-1.2c0-0.8,0.5-1.5,1.2-1.5
		C161.3,65.4,161.2,66,161.3,66.5z"/>
	<path id="XMLID_26_" class="st17" d="M155.8,65.1c0.1,1-0.2,1.9-0.5,2.8c-0.1,0.2-0.4,0.4-0.6,0.4c-0.7-0.1-1,0-1,0.8
		c0.1,0.8,0.7,0.6,1.2,0.5c-0.1,0.6-0.4,0.8-0.8,0.7c-0.5-0.1-0.8-0.5-0.8-1c0-0.5-0.1-1.2,0.4-1.3c1.5-0.1,1.4-1.2,1.6-2.2
		c0-0.2,0.1-0.5,0.2-0.7C155.7,65.1,155.7,65.1,155.8,65.1z"/>
	<path id="XMLID_25_" class="st13" d="M152.5,65.6c-0.1,0.5-0.2,1.2-1,1.1c-0.6,0-0.8-0.5-0.8-1c0-0.6,0.3-1.1,1-1.2
		C152.3,64.4,152.5,64.9,152.5,65.6z"/>
	<path id="XMLID_24_" class="st11" d="M162.1,63.9c0,0.3-0.2,0.4-0.5,0.2c-0.6-0.3-1.2-0.5-1.8-0.5c-0.2,0-0.3-0.1-0.4-0.3
		c0-0.2,0.1-0.3,0.2-0.3c0.9-0.1,1.6,0.1,2.3,0.6C162,63.7,162,63.9,162.1,63.9z"/>
	<path id="XMLID_23_" class="st11" d="M153,62.7c-0.9,0.3-1.7,0-2.4,0.3c-0.1,0.1-0.3,0-0.3-0.1c-0.1-0.2,0.1-0.3,0.2-0.4
		C151.3,62.1,152.1,61.9,153,62.7z"/>
	<path id="XMLID_22_" class="st11" d="M152.9,54.6c0.3-0.6,0.7-0.8,0.9-0.1c0.2,0.4,0.4,0.5,0.8,0.2c0.6-0.5,0.9-0.2,1.3,0.3
		c1.2,1.3,1.4,3,1.6,4.6c0.1,0.3,0.1,0.8-0.5,0.8c-1-0.1-1.9,0.3-2.8,0.4c-1,0.1-2.1,0-3-0.5c-0.3-0.1-0.6-0.3-0.9-0.3
		c-1.5-0.3-1.5-0.3-1.1-1.8c0.4-1.2,0.8-2.4,1.3-3.6c0.1-0.3,0.3-0.5,0.5-0.7C152.1,53.1,152.5,53.2,152.9,54.6z"/>
	<path id="XMLID_21_" class="st18" d="M148.2,87.4c0.5,0.4,1,0.4,1.6,0.4c2.8-0.1,5.7,0,8.5,0c0.6,0,0.8,0.3,0.8,0.8
		c0,2.4-0.1,4.9-0.1,7.3c0,0.4-0.3,0.6-0.3,0.9c-2.3,0-4.6,0.4-6.9,0.6c-1,0.1-1.5,0.1-2-0.9c-0.3-0.6-1.1-0.9-1.9-1
		c0-0.9,0-1.7,0-2.6c0-1.4,0-2.9,0-4.3C148,88.2,147.9,87.8,148.2,87.4z"/>
	<path id="XMLID_20_" class="st9" d="M148.7,85.3c1.5,0.6,3.2,0.4,4.8,0.6c2,0.2,4,0.2,6.1,0.6c-0.3,0.5-0.7,0.3-1.1,0.3
		c-2.9-0.1-5.8-0.1-8.6-0.2c-0.4,0-0.9-0.1-1.2,0.2C148.3,86.2,148.2,85.7,148.7,85.3z"/>
	<path id="XMLID_19_" class="st18" d="M159.1,100.6c0,0.4,0,0.8,0,1.3c0,0.6-0.2,0.9-0.9,0.9c-3,0-6,0-9,0c-1,0-1.4-0.3-1.2-1.2
		c0.1-0.5,0-1,0-1.5c0-0.1,0-0.1,0-0.2c3.3-0.3,6.7,0.5,10,0.4C158.4,100.3,158.8,100.5,159.1,100.6z"/>
</g>
<g id="XMLID_68_">
	<path id="XMLID_199_" class="st19" d="M340.1,124.8c1.5,0.4,3.1,0.8,4.6,1.2c0.6,0.2,1,0.6,1.3,1.2c0.2,0.4,0,0.8-0.5,0.9
		c-0.4,0.1-0.7,0.1-1.1,0.1c-2.3,0-4.5-0.3-6.7-0.7c-0.9-0.2-1.9-0.4-2.8-0.5c-0.4-0.1-0.5-0.2-0.5-0.6c0-0.6,0-1.1,0.2-1.6
		c0.1,0,0.1,0,0.2,0c1.2,0.2,2.4,0.2,3.6,0.2C338.9,124.9,339.5,124.7,340.1,124.8z"/>
	<path id="XMLID_198_" class="st19" d="M329,124.8c0.2,0.6,0.2,1.2,0.1,1.8c0,0.1,0,0.2-0.2,0.2c-3.2,0.6-6.4,1.3-9.7,1.3
		c-0.3,0-0.6,0-0.9-0.1c-0.6-0.1-0.8-0.5-0.5-1c0.2-0.5,0.6-0.9,1.2-1.1c1.5-0.4,3-0.8,4.5-1.2c0.2,0,0.3,0,0.5,0
		c0.8,0.1,1.6,0.2,2.4,0.2C327.2,125,328.1,124.8,329,124.8z"/>
	<path id="XMLID_195_" class="st20" d="M340.1,124.8c-0.6-0.1-1.2,0.1-1.8,0.1c-1.2,0.1-2.4,0-3.6-0.2c-0.1,0-0.1,0-0.2,0
		c-0.8-0.2-0.8-0.2-0.8-1c0,0,0-0.1,0-0.1c0.1-0.8,0.1-0.8,0.9-0.6c0.9,0.1,1.9,0.2,2.8,0.2c0.8,0,1.5-0.1,2.3-0.2
		c0.4-0.1,0.8-0.1,1.2-0.2c0.2,0,0.4,0,0.3,0.3c-0.1,0.4-0.1,0.8-0.1,1.1c0,0.3-0.2,0.5-0.5,0.5
		C340.4,124.7,340.2,124.7,340.1,124.8z"/>
	<path id="XMLID_194_" class="st20" d="M329,124.8c-0.9,0-1.8,0.2-2.7,0.2c-0.8,0-1.6-0.1-2.4-0.2c-0.2,0-0.3,0-0.5,0
		c-0.1-0.1-0.2-0.1-0.3-0.1c-0.4,0-0.5-0.2-0.6-0.6c0-0.3,0-0.7-0.1-1c-0.1-0.4,0.1-0.4,0.4-0.3c0.2,0.1,0.5,0.1,0.7,0.1
		c0.6,0.2,1.2,0.2,1.7,0.3c1.2,0.1,2.4,0.1,3.6-0.2c0,0,0,0,0.1-0.1c0.1,0,0.2,0,0.3,0c0.5-0.1,0.5-0.1,0.6,0.4c0,0.4,0.1,0.7,0,1.1
		C329.7,124.8,329.2,124.6,329,124.8z"/>
	<g id="XMLID_14_">
		<path id="XMLID_218_" class="st21" d="M339.5,39.9c0.5,0.2,1.1,0.2,1.7,0.2c1.5,0.2,2.6,1.1,3.5,2.2c1.2,1.4,1.9,3.1,2.6,4.7
			c1.2,2.8,2,5.7,2.8,8.6c0.4,1.4,0.8,2.8,1.1,4.2c0.3,1.2,0.2,2.3-0.2,3.4c-0.4,1.1-0.9,2.2-1.4,3.2c-1.3,2.4-2.9,4.6-4.4,6.8
			c-0.9-0.4-1.8-0.7-2.7-1.1c0.1-0.3,0.3-0.5,0.4-0.8c1.2-2,2-4.2,2.9-6.3c0.2-0.3,0.2-0.6,0-1c-1-2.6-2-5.1-2.9-7.7
			c-0.4-1-0.7-1.9-1.1-2.9c0,0-0.1,0-0.1,0c0.1,6.2,0.3,12.5,0.4,18.7c-0.1,0.1-0.3,0.1-0.4,0.2c-0.9,0.3-1.8,0.5-2.6,1
			c-0.5,0.3-1.1,0.5-1.6,0.8c-0.8,0.1-1.5,0.2-2.3,0.2c-1.2,0.1-2.4,0.3-3.6,0.4c-1.4,0.1-2.8-0.1-4.1-0.2c-0.4,0-0.8,0-1.1-0.2
			c0.1-0.2-0.1-0.2-0.2-0.2c-1.5-0.8-3-1.5-4.6-1.9c-0.2-0.1-0.4-0.1-0.6,0c-0.6,0.3-1.2,0.5-1.7,0.8c-0.3,0.1-0.5,0.1-0.6-0.2
			c-0.5-0.8-1-1.6-1.6-2.4c0-0.1-0.1-0.2-0.1-0.3c-0.4-0.7-0.9-1.3-1.3-2c-1.2-1.8-2.4-3.7-2.9-5.9c-0.3-1-0.2-2,0.2-3.1
			c0.2-0.6,0.4-1.3,0.5-1.9c0.2-0.5,0.3-1,0.4-1.5c0.3-0.8,0.4-1.7,0.6-2.6c0.8-3.4,1.4-6.8,3.1-9.9c0.6-1.1,1.3-2.1,2.4-2.7
			c0.5,0.7,0.7,1.5,0.9,2.3c1,3.1,1.7,6.3,2,9.5c0.1,1.6,0.2,3.3,0.1,4.9c-0.1,1.4-0.3,2.9-0.6,4.3c-0.2,0.9-0.4,1.7-0.8,2.6
			c0-0.4,0-0.8,0-1.2c0-1.9,0.1-3.9,0.1-5.8c0.1-1,0.1-1.9,0.1-2.9c-0.2,0.4-0.4,0.8-0.5,1.3c-0.1,0.2-0.2,0.4-0.1,0.6
			c-0.1,0.1-0.2,0.2-0.2,0.3c-0.9,2.3-1.7,4.5-2.6,6.7c-0.3,0.8-0.5,1.5,0,2.2c0,0,0,0.1,0,0.1c0.7,1.6,1.3,3.2,2.1,4.8
			c0.2,0.4,0.4,0.9,0.8,1.3c-0.2-1,0.1-1.9,0.7-2.7c0.1-0.2,0.2-0.3,0.3-0.5c1.4-2.7,2.4-5.5,3.1-8.5c0.4-1.8,0.7-3.6,0.8-5.4
			c0.1-1.4,0.1-2.8,0-4.1c-0.1-1.2-0.3-2.5-0.5-3.7c-0.5-2.4-1.4-4.7-2.6-6.9c0.4-0.1,0.8-0.2,1.3-0.3c0,0.2,0,0.3,0.1,0.5
			c0.2,0.4,0.4,0.9,0.6,1.3c0.9,1.8,2,3.5,3.5,4.9c2,1.7,4.2,1.8,6.3,0.2c1.4-1.1,2.5-2.5,3.4-4.1C338.6,41.7,339,40.8,339.5,39.9z"
			/>
		<path id="XMLID_217_" class="st22" d="M334.5,123c0-2.3,0-4.6-0.1-7c0-1.4,0-2.8,0-4.3c0-2.6-0.1-5.2-0.2-7.8
			c0-1.8-0.1-3.6-0.2-5.5c-0.1-3-0.2-5.9-0.3-8.9c-0.1-2.1-0.2-4.1-0.3-6.2c0-0.3-0.1-0.4-0.4-0.4c-0.8,0-1.5,0-2.3-0.1
			c-0.3,0-0.4,0.1-0.4,0.3c-0.1,2.1-0.2,4.2-0.3,6.4c-0.2,3-0.3,6-0.4,9c-0.1,2.1-0.2,4.2-0.2,6.3c-0.1,2.5-0.2,4.9-0.2,7.4
			c-0.1,1.9-0.1,3.8-0.2,5.7c0,1.7-0.1,3.3-0.1,5c0,0,0,0-0.1,0.1c-1.2,0.2-2.4,0.2-3.6,0.2c-0.6,0-1.2-0.1-1.7-0.3
			c-0.1-1-0.1-2.1-0.2-3.1c-0.2-2.4-0.3-4.9-0.5-7.3c-0.1-1.5-0.2-2.9-0.3-4.4c-0.2-2.7-0.3-5.3-0.5-8c-0.1-1.6-0.2-3.3-0.3-4.9
			c-0.2-2.9-0.3-5.7-0.5-8.6c-0.1-1.4-0.1-2.7-0.2-4.1c-0.1-1.5-0.1-3-0.6-4.4c0-0.1-0.1-0.2-0.1-0.3c0-0.2-0.1-0.4-0.1-0.6
			c0.2-0.2,0.5-0.4,0.8-0.6c0.6-0.4,1.2-0.9,1.8-1.3c0.2-0.1,0.4-0.2,0.5-0.4c0.3-0.2,0.6,0.1,0.8,0.2c0.9,0.2,1.8,0.3,2.8,0.4
			c0.8,0.1,1.5,0.1,2.3,0.2c0.9,0.1,1.8,0.1,2.8,0.1c1.4,0,2.7-0.1,4.1-0.3c0.9-0.1,1.9-0.2,2.8-0.3c0.4,0,0.8-0.4,1.2-0.2
			c0,0.1,0.1,0.1,0.1,0.2c1,0.7,2,1.3,3,2c0.2,1.9-0.1,3.7-0.3,5.5c-0.1,1.5-0.3,3.1-0.4,4.6c-0.2,1.9-0.4,3.8-0.5,5.7
			c-0.1,1.6-0.3,3.2-0.4,4.8c-0.2,1.9-0.4,3.9-0.5,5.8c-0.1,1.6-0.3,3.3-0.4,4.9c-0.2,2-0.4,4-0.5,6c-0.1,1.7-0.3,3.3-0.4,5
			c-0.1,1.2-0.2,2.3-0.3,3.5c-0.8,0.1-1.5,0.2-2.3,0.2C336.4,123.1,335.5,123.1,334.5,123z"/>
		<path id="XMLID_214_" class="st23" d="M313.2,57.5c0,0.7-0.2,1.3-0.5,1.9c-0.4,1-0.4,2-0.2,3.1c0.6,2.2,1.7,4,2.9,5.9
			c0.4,0.7,0.9,1.3,1.3,2c0.1,0.1,0.1,0.2,0.1,0.3c0,0.1,0,0.3,0,0.4c0.1,0.8,0.1,1.6,0.1,2.4c0,1.4,0,2.7-0.1,4.1
			c0,0.6-0.1,1.1-0.1,1.7c-0.6,0.2-1.2,0.3-1.8,0.3c-2.2,0.1-4.3,0-6.3-1c-1.9-1-2.9-2.6-3.1-4.7c-0.3-2.5,0.4-4.9,1.4-7.2
			c0.5-1.1,0.6-2.2,0.7-3.4c0-1.2,0.1-2.4,0.1-3.6c0-0.3,0.2-0.4,0.4-0.6c0.9-0.8,1.9-1.5,2.8-2.3c0.4-0.4,0.4-0.3,0-0.8
			c-1-1.1-1.8-2.3-2-3.8c-0.2-1.4,0.6-2.2,2-1.9c0.8,0.1,1.5,0.5,2.1,0.9c0.3,0.2,0.4,0.1,0.4-0.2c0.7-2.6,1.5-5,2.9-7.3
			c0.7-1.2,1.5-2.2,2.6-3.1c0.2-0.2,0.4-0.3,0.7-0.4c0,0.1,0.1,0.2,0.1,0.4c-1.1,0.7-1.8,1.6-2.4,2.7c-1.7,3.1-2.3,6.6-3.1,9.9
			c-0.2,0.9-0.4,1.7-0.6,2.6c-0.3,0-0.6,0.2-0.9,0.3c-0.1,0-0.2,0.1-0.1,0.2C312.7,56.9,312.9,57.3,313.2,57.5z M311.2,51.5
			c-0.8,0-1,0.3-1,0.9c0,0.3,0.1,0.6,0.2,0.9c0.4,0.9,0.9,1.7,1.6,2.4c0.1,0.1,0.1,0.3,0.3,0.2c0.2-0.1,0.3-0.2,0.3-0.4
			c0.2-1,0.4-2,0.6-2.9c0-0.1,0.1-0.3-0.1-0.3C312.4,51.9,311.7,51.6,311.2,51.5z"/>
		<path id="XMLID_206_" class="st24" d="M328.9,37.6c0-0.5,0-1,0-1.5c0-0.2,0-0.3-0.2-0.3c-2.3-0.9-3.6-2.6-4.4-4.8
			c-0.2-0.6-0.4-1.2-0.5-1.8c0-0.1,0-0.3-0.2-0.3c-1-0.2-1.3-1-1.6-1.8c-0.2-0.6-0.1-1.1,0.1-1.6c0.1-0.2,0.2-0.3,0.4-0.4
			c0.4,0.8,0.8,1.7,1.5,2.4c-0.1-1.9,0.1-3.7,0.4-5.5c0-0.2,0.1-0.3,0.3-0.5c0.7-0.5,1.3-1,1.9-1.6c0.2-0.2,0.3-0.1,0.4,0.1
			c0.1,0.4,0.4,0.8,0.6,1.1c1.1,1.4,2.6,2.2,4.2,2.6c0.2,0,0.3,0.1,0.5,0c-0.1-0.1-0.1-0.2-0.2-0.3c-0.4-0.7-0.8-1.5-0.9-2.3
			c-0.1-0.4-0.1-0.8,0.3-1.2c0.1,1,0.5,1.8,1.1,2.5c0.3,0.3,0.6,0.6,0.3,1.1c0,0,0,0.1,0,0.1c0,0.5,0.2,0.6,0.6,0.4
			c0.2-0.1,0.4-0.1,0.6,0c0,0,0,0.1,0.1,0c0,0,0,0-0.1,0c0-0.1,0-0.2,0.2-0.3c0.3-0.1,0.6,0,0.9-0.1c0.3,0,0.5,0.1,0.7,0.3
			c0.3,0.5,0.7,0.9,1.2,1.3c-0.2-0.6,0-1.3,0-1.9c0-0.6,0.1-1.2,0.2-1.7c0-0.1,0-0.3,0.1-0.3c0.2,0,0.2,0.2,0.2,0.3
			c0.2,1.7,0.4,3.3,0.4,5c0,0.2,0,0.3,0,0.6c0.8-0.8,1.2-1.7,1.6-2.6c0.8,0.5,0.9,1.2,0.8,2.1c-0.2,0.7-0.4,1.5-1.2,1.8
			c-0.6,0.2-0.6,0.6-0.7,1.1c-0.3,1.6-0.8,3.2-2,4.5c-0.6,0.6-1.2,1.2-2,1.5c-0.3,0.1-0.4,0.2-0.4,0.6c0,0.4,0,0.9,0,1.3
			c0,0.1,0,0.1,0,0.2c0,0.2,0,0.5,0,0.7c-0.8,0.8-1.5,1.5-2.3,2.3c-0.2,0.2-0.3,0.1-0.4,0c-0.7-0.7-1.4-1.5-2.2-2.2
			c-0.2-0.2-0.3-0.4-0.3-0.7C328.9,37.8,328.9,37.7,328.9,37.6z M335.5,25.4c0.2,0,0.3,0.1,0.5,0.1c-0.9-1.1-2.3-0.7-2.7,0.2
			c0.2,0,0.4-0.3,0.6-0.2c-0.2,0.7-0.2,1,0.1,1.4c0.4,0.6,1,0.6,1.4,0C335.6,26.3,335.6,25.9,335.5,25.4
			C335.4,25.4,335.5,25.4,335.5,25.4z M328.7,25.7c-0.5-0.5-1-0.8-1.7-0.7c-0.5,0.1-0.8,0.3-1.2,0.8c0.4-0.1,0.6-0.3,0.9-0.3
			c-0.2,0.4-0.3,0.8-0.1,1.3c0.1,0.4,0.4,0.7,0.8,0.7c0.4,0,0.6-0.3,0.8-0.7c0.1-0.4,0-0.8-0.1-1.2
			C328.4,25.5,328.5,25.7,328.7,25.7z M324.9,24.4c1.8-0.4,2.1-0.4,4,0.1c0.2,0.1,0.3,0,0.3-0.2c0.3-0.5-0.1-1.1-0.7-1.2
			c-0.2,0-0.5,0-0.7,0c-0.9,0.1-1.8,0.2-2.6,0.7C325.1,23.9,324.9,24.1,324.9,24.4z M333.3,31.6c0-0.2,0-0.3-0.1-0.4
			c-0.2-0.1-0.3,0-0.5,0.1c-1.2,0.9-2.4,0.7-3.4,0c-0.2-0.1-0.4-0.3-0.6,0c-0.2,0.2-0.1,0.4,0.1,0.6c1.3,1,3,1.1,4.3,0.1
			C333.2,31.9,333.3,31.8,333.3,31.6z M330,27.7c0,0-0.1,0-0.1,0c-0.4,0.3-0.7,0.6-0.9,1c-0.1,0.2,0,0.3,0.1,0.4
			c0.3,0.3,0.6,0.6,1,0.8c0.1,0.1,0.2,0.1,0.3,0c0.1-0.1,0-0.2-0.1-0.3c-0.2-0.2-0.5-0.3-0.7-0.5c-0.2-0.1-0.3-0.3-0.1-0.5
			c0.2-0.2,0.3-0.4,0.6-0.6c0.1-0.1,0.1-0.1,0.1-0.2C330.1,27.7,330.1,27.7,330,27.7z M330.3,26.4c0-0.5-0.2-1-0.4-1.4
			c-0.1-0.1-0.1-0.3-0.3-0.2c-0.1,0.1,0,0.2,0,0.3c0.2,0.5,0.5,1,0.3,1.6c0,0.1,0,0.2,0.1,0.2c0.1,0,0.2-0.1,0.2-0.2
			C330.3,26.7,330.3,26.5,330.3,26.4z"/>
		<path id="XMLID_203_" class="st25" d="M334,24.2c-0.2-0.2-0.4-0.1-0.6,0c-0.5,0.2-0.6,0.1-0.6-0.4c0,0,0-0.1,0-0.1
			c0.3-0.5-0.1-0.8-0.3-1.1c-0.6-0.7-1-1.5-1.1-2.5c-0.3,0.4-0.3,0.8-0.3,1.2c0.1,0.9,0.5,1.6,0.9,2.3c0.1,0.1,0.1,0.2,0.2,0.3
			c-0.2,0.1-0.4,0-0.5,0c-1.7-0.5-3.1-1.2-4.2-2.6c-0.3-0.3-0.5-0.7-0.6-1.1c-0.1-0.2-0.2-0.3-0.4-0.1c-0.6,0.6-1.2,1.1-1.9,1.6
			c-0.2,0.1-0.2,0.3-0.3,0.5c-0.3,1.8-0.4,3.6-0.4,5.5c-0.7-0.7-1.1-1.6-1.5-2.4c-0.3-1-0.5-2-0.6-3c-0.1-2-0.1-4,1.1-5.8
			c0.5-0.7,1-1.4,1.8-1.8c0,0,0.1,0,0.1-0.1c1-1.1,2.4-1.5,3.9-1.8c1.8-0.3,3.6-0.3,5.4,0.3c0.8,0.3,1.5,0.6,2,1.3
			c0.1,0.1,0.1,0.1,0.2,0.1c1,0.1,1.6,0.7,2.1,1.4c1.1,1.5,1.5,3.2,1.5,5c0,1.4-0.2,2.8-0.6,4.1c-0.3,0.9-0.8,1.8-1.6,2.6
			c0-0.3,0-0.4,0-0.6c0-1.7-0.1-3.3-0.4-5c0-0.1-0.1-0.3-0.2-0.3c-0.1,0-0.1,0.2-0.1,0.3c-0.1,0.6-0.2,1.2-0.2,1.7
			c0,0.6-0.2,1.3,0,1.9c-0.5-0.4-0.9-0.8-1.2-1.3c-0.2-0.3-0.4-0.4-0.7-0.3c-0.3,0-0.6,0-0.9,0.1C334.1,24,334,24.1,334,24.2
			L334,24.2z M334.6,20.8c-0.5,0.4-1,1.4-0.8,2c0,0.1,0.1,0.2,0.2,0.2c0.4,0,0.8,0.1,1.2,0.1C334.8,22.3,334.6,21.6,334.6,20.8z"/>
		<path id="XMLID_202_" class="st26" d="M319.8,40.8c0-0.1-0.1-0.3-0.1-0.4c0.8-0.4,1.6-0.8,2.4-1.3c0.2-0.1,0.3,0,0.4,0.1
			c0.1,0.3,0.3,0.5,0.4,0.7c1.1,2.2,2,4.5,2.6,6.9c0.3,1.2,0.4,2.4,0.5,3.7c0.1,1.4,0.1,2.8,0,4.1c-0.1,1.8-0.4,3.6-0.8,5.4
			c-0.7,2.9-1.8,5.8-3.1,8.5c-0.1,0.2-0.2,0.4-0.3,0.5c-0.5,0.8-0.8,1.7-0.7,2.7c-0.4-0.4-0.6-0.8-0.8-1.3c-0.8-1.5-1.4-3.2-2.1-4.8
			c0,0,0-0.1,0-0.1c-0.6-0.7-0.3-1.5,0-2.2c0.9-2.2,1.7-4.5,2.6-6.7c0-0.1,0.1-0.3,0.2-0.3c0.2,0.3,0.4,0.7,0.6,1
			c0,1.9-0.1,3.9-0.1,5.8c0,0.4,0,0.8,0,1.2c0.3-0.8,0.6-1.7,0.8-2.6c0.3-1.4,0.5-2.8,0.6-4.3c0.1-1.6,0.1-3.3-0.1-4.9
			c-0.3-3.2-1-6.4-2-9.5C320.4,42.3,320.2,41.5,319.8,40.8z"/>
		<path id="XMLID_201_" class="st27" d="M339.5,39.9c-0.5,0.9-0.9,1.8-1.4,2.6c-0.9,1.5-2,3-3.4,4.1c-2.1,1.6-4.3,1.5-6.3-0.2
			c-1.6-1.4-2.6-3.1-3.5-4.9c-0.2-0.4-0.4-0.9-0.6-1.3c-0.1-0.2-0.1-0.3-0.1-0.5l0,0c0.1,0,0.1,0,0.2-0.1c0.2-0.3,0.6-0.3,0.9-0.5
			c0.2-0.1,0.4-0.2,0.6-0.3c0.1,0,0.1,0.1,0.2,0.2c1,1.5,2,3,3,4.5c0.1,0.2,0.2,0.5,0.5,0.6c0.1,0.2,0,0.4,0.2,0.6
			c0.1,0,0.1-0.1,0.2-0.2c0.5-0.8,1.1-1.6,1.6-2.5c0.2-0.3,0.3-0.2,0.4,0c0.3,0.5,0.6,1,1,1.5c0.2,0.4,0.4,0.7,0.7,1.1
			c0.1-0.2,0.2-0.4,0.2-0.5c0,0,0.1-0.1,0.1-0.1c1.2-1.8,2.4-3.5,3.6-5.3c0.7,0.3,1.4,0.6,2,1C339.4,39.8,339.5,39.9,339.5,39.9z"/>
		<path id="XMLID_200_" class="st28" d="M329.4,44.2c-0.2-0.2-0.3-0.4-0.5-0.6c-1-1.5-2-3-3-4.5c-0.1-0.1-0.1-0.2-0.2-0.2
			c-0.1-0.2-0.1-0.4,0.2-0.5c0.5-0.2,1-0.5,1.5-0.8c0.2-0.1,0.4-0.1,0.6,0c0.1,0.3,0.3,0.5,0.7,0.3c0,0.3,0.1,0.5,0.3,0.7
			c0.7,0.7,1.5,1.4,2.2,2.2c0.2,0.2,0.3,0.2,0.4,0c0.8-0.8,1.5-1.5,2.3-2.3c0.2-0.2,0.4-0.3,0.5-0.6c0.2,0,0.3-0.2,0.4-0.3
			c0.2-0.2,0.3-0.2,0.6,0c0.6,0.3,1.1,0.6,1.7,0.8c0.2,0.1,0.3,0.2,0.1,0.4c-1.2,1.8-2.4,3.5-3.6,5.3c0,0-0.1,0.1-0.1,0.1
			c-0.6-0.9-1.3-1.8-1.9-2.8c-0.2-0.2-0.2-0.3-0.4,0C330.7,42.3,330.1,43.2,329.4,44.2z"/>
		<path id="XMLID_197_" class="st24" d="M343.4,77.1c-1-0.7-2-1.3-3-2c-0.1,0-0.1-0.1-0.1-0.2c0.1-0.2,0.3-0.4,0.4-0.7
			c-0.1,0-0.3,0-0.4,0c-0.7,0.1-1.4,0.3-2,0.4c-0.3,0.1-0.5,0-0.7-0.2c-0.2-0.1-0.2-0.2,0-0.3c0.5-0.3,1.1-0.5,1.6-0.8
			c0.8-0.4,1.7-0.7,2.6-1c0.1,0,0.3-0.1,0.4-0.2c0.1,0,0.2,0,0.3,0c0.9,0.3,1.8,0.7,2.7,1.1c-0.4,1-0.9,1.9-1.3,2.9
			C343.7,76.5,343.6,76.8,343.4,77.1z"/>
		<path id="XMLID_196_" class="st26" d="M316.9,79.3c0-0.6,0.1-1.1,0.1-1.7c0.1-1.3,0.1-2.7,0.1-4.1c0-0.8-0.1-1.6-0.1-2.4
			c0-0.1,0-0.3,0-0.4c0.6,0.7,1.1,1.5,1.6,2.4c-0.3,0.1-0.1,0.2,0,0.3c0.3,0.7,0.6,1.4,1,2.1c0.3,0.6,0.5,1.2,0.9,1.8
			c0,0.2,0.1,0.4,0.1,0.6c-1,0.6-2,1.1-3.2,1.4C317.2,79.3,317,79.3,316.9,79.3z"/>
		<path id="XMLID_193_" class="st21" d="M328.9,37.9c-0.4,0.2-0.5,0-0.7-0.3c0.2,0,0.5,0,0.7,0C328.9,37.7,328.9,37.8,328.9,37.9z"
			/>
		<path id="XMLID_192_" class="st21" d="M335,37.6c-0.1,0.2-0.2,0.3-0.4,0.3c-0.2,0-0.4-0.1-0.5-0.1c0-0.1,0-0.1,0-0.2
			C334.4,37.6,334.7,37.6,335,37.6z"/>
		<path id="XMLID_191_" class="st21" d="M324.3,39.6c0,0.1-0.1,0.1-0.2,0.1C324.1,39.6,324.2,39.6,324.3,39.6z"/>
		<path id="XMLID_189_" class="st24" d="M320.4,77.2c-0.4-0.5-0.6-1.2-0.9-1.8c-0.3-0.7-0.7-1.4-1-2.1c0-0.1-0.2-0.3,0-0.3
			c0.2,0.3,0.3,0.3,0.6,0.2c0.6-0.3,1.2-0.5,1.7-0.8c0.2-0.1,0.4-0.1,0.6,0c1.6,0.4,3.1,1.1,4.6,1.9c0.1,0,0.3,0,0.2,0.2
			c-0.3,0.3-0.7,0.3-1.1,0.2c-0.4-0.1-0.8-0.2-1.2-0.3c-0.3-0.1-0.6-0.2-1-0.2c0.2,0.3,0.3,0.5,0.5,0.7c-0.1,0.2-0.3,0.3-0.5,0.4
			c-0.6,0.4-1.2,0.9-1.8,1.3C320.9,76.8,320.6,77,320.4,77.2z"/>
		<path id="XMLID_188_" class="st29" d="M323.5,75c-0.1-0.2-0.3-0.4-0.5-0.7c0.4,0,0.7,0.1,1,0.2c0.4,0.1,0.8,0.1,1.2,0.3
			c0.4,0.1,0.8,0.1,1.1-0.2c0.3,0.2,0.7,0.2,1.1,0.2c1.4,0.1,2.8,0.3,4.1,0.2c1.2-0.1,2.4-0.2,3.6-0.4c0.8-0.1,1.5-0.2,2.3-0.2
			c-0.2,0.1-0.2,0.2,0,0.3c0.2,0.1,0.4,0.2,0.7,0.2c0.7-0.2,1.4-0.3,2-0.4c0.1,0,0.2-0.1,0.4,0c-0.1,0.3-0.3,0.5-0.4,0.7
			c-0.4-0.2-0.8,0.2-1.2,0.2c-0.9,0.1-1.9,0.2-2.8,0.3c-1.4,0.2-2.7,0.3-4.1,0.3c-0.9,0-1.8,0-2.8-0.1c-0.8-0.1-1.5-0.1-2.3-0.2
			c-0.9-0.1-1.8-0.2-2.8-0.4C324,75.1,323.8,74.8,323.5,75z"/>
		<path id="XMLID_186_" class="st26" d="M313.2,57.5c-0.3-0.3-0.5-0.7-0.7-1c-0.1-0.1,0-0.2,0.1-0.2c0.3-0.1,0.6-0.3,0.9-0.3
			C313.5,56.5,313.4,57.1,313.2,57.5z"/>
		<path id="XMLID_184_" class="st30" d="M328.7,25.7c-0.3,0.1-0.4-0.2-0.6-0.1c0.1,0.4,0.2,0.8,0.1,1.2c-0.1,0.4-0.4,0.7-0.8,0.7
			c-0.4,0-0.7-0.2-0.8-0.7c-0.1-0.4-0.1-0.8,0.1-1.3c-0.3,0-0.5,0.2-0.9,0.3c0.3-0.5,0.7-0.7,1.2-0.8
			C327.7,24.8,328.2,25.2,328.7,25.7z"/>
		<path id="XMLID_183_" class="st30" d="M335.4,25.4c0.2,0.5,0.2,0.9,0,1.4c-0.3,0.6-1,0.6-1.4,0c-0.2-0.4-0.3-0.7-0.1-1.4
			c-0.3-0.1-0.4,0.2-0.6,0.2c0.5-0.9,1.9-1.3,2.7-0.2C335.8,25.5,335.7,25.3,335.4,25.4C335.5,25.4,335.4,25.3,335.4,25.4
			C335.4,25.4,335.4,25.4,335.4,25.4z"/>
		<path id="XMLID_182_" class="st25" d="M324.9,24.4c0-0.3,0.2-0.4,0.4-0.5c0.8-0.4,1.7-0.6,2.6-0.7c0.2,0,0.5,0,0.7,0
			c0.6,0,1,0.6,0.7,1.2c-0.1,0.1-0.2,0.2-0.3,0.2C327.1,24,326.7,24,324.9,24.4z"/>
		<path id="XMLID_181_" class="st31" d="M333.3,31.6c0,0.1,0,0.3-0.2,0.4c-1.4,1-3,0.9-4.3-0.1c-0.2-0.2-0.3-0.4-0.1-0.6
			c0.2-0.2,0.4-0.1,0.6,0c1,0.8,2.2,0.9,3.4,0c0.1-0.1,0.3-0.2,0.5-0.1C333.3,31.3,333.3,31.5,333.3,31.6z"/>
		<path id="XMLID_180_" class="st31" d="M330,27.7c0.1,0,0.1,0,0.2,0.1c0,0.1,0,0.2-0.1,0.2c-0.2,0.1-0.4,0.4-0.6,0.6
			c-0.2,0.2-0.1,0.4,0.1,0.5c0.2,0.2,0.5,0.3,0.7,0.5c0.1,0.1,0.2,0.1,0.1,0.3c-0.1,0.1-0.2,0.1-0.3,0c-0.4-0.2-0.7-0.4-1-0.8
			c-0.1-0.1-0.2-0.3-0.1-0.4c0.2-0.4,0.5-0.7,0.9-1C329.9,27.7,330,27.7,330,27.7z"/>
		<path id="XMLID_179_" class="st31" d="M330.3,26.4c0,0.1,0,0.2,0,0.4c0,0.1-0.1,0.2-0.2,0.2c-0.1,0-0.1-0.1-0.1-0.2
			c0.2-0.6-0.1-1.1-0.3-1.6c-0.1-0.1-0.2-0.3,0-0.3c0.2-0.1,0.2,0.1,0.3,0.2C330.2,25.5,330.4,25.9,330.3,26.4z"/>
		<path id="XMLID_178_" class="st27" d="M334.1,37.8c0.2,0,0.3,0.1,0.5,0.1c-0.1,0.3-0.3,0.4-0.5,0.6C334,38.3,334,38,334.1,37.8z"
			/>
		<path id="XMLID_177_" class="st25" d="M334,24.2C334.1,24.2,334.1,24.2,334,24.2C334,24.3,334.1,24.2,334,24.2L334,24.2z"/>
		<path id="XMLID_176_" class="st24" d="M334.6,20.8c0.1,0.8,0.2,1.5,0.6,2.2c-0.4,0-0.8-0.1-1.2-0.1c-0.1,0-0.2-0.1-0.2-0.2
			C333.6,22.2,334.1,21.2,334.6,20.8z"/>
		<path id="XMLID_175_" class="st32" d="M329.4,44.2c0.6-0.9,1.3-1.9,1.9-2.8c0.2-0.3,0.2-0.2,0.4,0c0.6,0.9,1.2,1.9,1.9,2.8
			c0,0.2-0.1,0.3-0.2,0.5c-0.3-0.3-0.5-0.7-0.7-1.1c-0.3-0.5-0.7-1-1-1.5c-0.1-0.2-0.2-0.3-0.4,0c-0.5,0.8-1,1.6-1.6,2.5
			c0,0.1-0.1,0.2-0.2,0.2C329.5,44.6,329.5,44.4,329.4,44.2z"/>
		<path id="XMLID_174_" class="st24" d="M335.4,25.4C335.4,25.4,335.4,25.4,335.4,25.4C335.4,25.3,335.5,25.4,335.4,25.4
			C335.5,25.4,335.4,25.4,335.4,25.4z"/>
	</g>
</g>
<g id="XMLID_69_">
	<path id="XMLID_308_" class="st33" d="M496.7,118c-0.1,0.2-0.2,0.5-0.3,0.7c-0.5,1.6-0.9,1.8-2.5,1.6c-0.3,0-0.5-0.1-0.8-0.1
		c-1-0.2-1.9-0.6-2.8-0.6c-0.5-0.4-1.3-0.4-1.4-1.3c0.6-3.8,1.1-7.6,1.7-11.4c1.2-8.5,2.4-16.9,3.6-25.4c0.5-3.2,1.3-6.3,1.9-9.5
		c0.1-0.5,0.2-1,0.2-1.6c0.1,0,0.2,0,0.2,0.1c0.2,0.1,0.3,0.1,0.5,0.2l0,0c0.2,0.9,1.1,0.9,1.7,1c1.8,0.1,3.6,0.2,5.3,0
		c2.3-0.3,4.6-1,6.9-1.5c-0.1,1.4-0.2,2.9-0.3,4.3c-0.1,1.1,0.4,1.7,1.6,1.8c0.9,0.1,1.8,0.2,2.7,0.3c-0.3,4.6-0.5,9.1-0.8,13.7
		c-0.2,4.1-0.3,8.1-0.6,12.2c-0.1,2-0.2,3.9-0.3,5.9c-0.2,4-0.5,8-0.7,12c-0.3,0-0.5,0.1-0.8,0.1c-1,0-2-0.2-3,0.1
		c-2-0.3-2.2-0.5-2.3-2.5c0.3-3.6,0.6-7.2,0.8-10.7c0.4-6,0.7-12,1-18c0.2-3.5,0.3-6.9,0-10.4c0-0.5,0-1.2-0.7-1.3
		c-0.6-0.1-0.9,0.5-1.1,1c-0.9,1.6-1.6,3.4-2.1,5.2C501.4,95.1,499.3,106.6,496.7,118z"/>
	<path id="XMLID_307_" class="st34" d="M496.6,70.5c-0.1-0.1-0.1-0.1-0.2-0.1c-0.5-0.6-0.7-1.4-0.6-2.2c0.4-4.6,0.8-9.3,1.1-13.9
		c0-0.6,0-1.2,0-1.8c0-0.4,0.1-0.8,0.1-1.1c0.3-1.2,0.3-2.4,0.3-3.6l0,0c0.9-0.9,1.1-2,1.3-3.2c0.7-3,0.6-6.1,0.8-9.2
		c0.5,0,1,0,1.5,0c0.8,3.4,3.8,6.3,5.8,5.4c-2.8-0.8-4.8-2.4-5.2-5.4c0.5,0,0.9,0.1,1.4,0.1c1,3.1,4.2,5.4,7.7,3.2
		c0.8-0.5,1.6-1,2.2-1.8c0.3,0,0.5,0,0.8,0c-0.6,2.5-2.8,3.2-4.7,4.1c2.1-0.2,3.7-1.2,4.8-2.9c0.3-0.4,0.3-0.9,0.9-1
		c0.8,0.3,1.6,0.6,2.4,0.9c0.3,0.6,0,1.1,0,1.7c-0.3,2.5-0.6,4.9-0.4,7.4c-0.1,0.2-0.1,0.5,0.1,0.7c0,0.2,0.1,0.5,0.1,0.7
		c-0.6,0.1-0.5,0.6-0.6,1c-0.5,2.2-0.6,4.4-0.7,6.6c-0.1,2.5-0.1,5,0.2,7.4c-0.5,0-0.9,0-1.4,0c-0.7,0-1.5-0.4-2.2,0.3
		c-0.5,0.3-0.5,0.8-0.6,1.2c-0.1,0.8-0.2,1.6-0.3,2.4c-0.3,0-0.5,0.1-0.8,0.1c-4.5,1-8.9,2-13.4,3l0,0
		C497,70.5,496.8,70.4,496.6,70.5z"/>
	<path id="XMLID_306_" class="st35" d="M491.4,52.3c-0.3,0.7-0.9,1.2-1.4,1.7c-3,3-5.4,2.6-7.6-1c-1.3-2.2-2.1-4.7-2.9-7.2
		c-0.8-2.6-2.2-4.7-4.4-6.3c-1.6-1.2-2.2-3.1-3.4-4.9c1.3,0,1.7,1,2.4,1.2c0.3-0.4-0.1-1,0.4-1.5c0.6,0.3,0.9,0.9,1.1,1.5
		c0.7,1.7,2,2.5,3.6,3c0.7,0.2,1.2,0.1,1.4-0.7c0.1-0.4,0.3-0.8,0.5-1.2c0.2-0.4,0.6-0.4,1-0.2c0.4,0.2,0.6,0.5,0.3,1
		c-1.1,1.8-0.5,3.5,0.4,5.2c1.1,2.2,2.1,4.5,3.2,6.8c0.6,1.3,0.6,1.3,1.4,0.1c0.2-0.3,0.5-0.6,0.7-0.9
		C489.4,49.8,490.3,51.1,491.4,52.3z"/>
	<path id="XMLID_305_" class="st36" d="M502.7,19.2c0-1.9-0.2-3.8-0.8-5.7c-0.2-0.6-0.4-1.3-0.4-1.9c-0.2-1.5,0.5-2.4,2-2.4
		c0.8,0,1-0.3,1.1-1.1c0.2-1.9,0.5-2.1,2.1-1c0.4,0.2,0.7,0.2,1.1,0.3c1.2,0.1,2.3,0.4,3.3,1.2c1.1,0.8,2,1.9,3.3,2.4
		c1,0.4,1.2,1.6,1.2,2.7c0.1,2-0.6,3.8-1.1,5.6c-1-0.3-1.7-1-2.2-2c-0.7-1.6-2-1.9-3.5-1.8c-2.2,0.2-3.7,1.5-5.1,3
		C503.6,18.9,503.4,19.7,502.7,19.2z"/>
	<path id="XMLID_304_" class="st34" d="M519.5,39.4c4.2,3.3,7.1,7.6,9.2,12.4c-3.1,0.9-6.3,1.8-9.4,2.7c-0.4-0.8-0.4-1.8-0.6-2.6
		c-0.2-0.7,0.1-1.6-0.8-2c0.1-0.1,0.1-0.3,0.2-0.4c0.2-0.2,0.2-0.4,0-0.6c-0.1-3.1-0.3-6.3-0.4-9.4c0-0.3-0.1-0.7,0.3-0.9
		c0.3,0.1,0.5,0.3,0.8,0.4C519,39.1,519.2,39.2,519.5,39.4z"/>
	<path id="XMLID_301_" class="st36" d="M518.7,38.9c-0.3-0.1-0.5-0.3-0.8-0.4c-0.2-0.3-0.5-0.4-0.8-0.4c-0.8-0.3-1.6-0.6-2.4-0.9
		c-0.3-0.3-0.7-0.2-1.1-0.2c-0.3,0-0.5,0-0.8,0c-1.5-0.2-2.6-0.8-2.4-2.6c0.1-1.6,0.1-1.6-1.5-1.4c-0.9,0.1-1.7,0-2.5-0.4
		c-0.3-0.1-0.6-0.5-1.1-0.2c-0.3-0.9-1-1.4-1.6-2c-1.1-1.7-1.8-3.6-1.6-5.7c0.3-1.2,0.4-2.5,0.3-3.8c0.5,0.3,0.3,0.8,0.4,1.2
		c0,0.3,0.1,0.6,0.1,0.9c0.2,2.4,1.9,3.6,4.3,2.7c1-0.4,1.8-0.2,2.8,0.2c1.7,0.8,3.6-0.2,3.9-2.1c0.1-0.6,0.2-1.1,0.2-1.7l0.1,0
		l0.1,0c0,0.9,0.1,1.7,0.1,2.6c-0.2,2-0.1,4.1-1.6,5.8c-1.1,0.9-1.1,0.9,0.1,1.6C515.7,33.8,517.9,35.8,518.7,38.9z M506.4,28.3
		c1.9,1.6,3.3,1.5,4.1-0.3C509.1,28.1,507.8,28,506.4,28.3z"/>
	<path id="XMLID_300_" class="st37" d="M511.3,67.5c0.1-0.8,0.2-1.6,0.3-2.4c0.1-0.5,0.1-0.9,0.6-1.2c1.3,1.3,2.6,2.7,4,3.9
		c1.5,1.3,2.8,2.9,4.8,3.5c0.4,0.6,0.9,1,1.7,1c0.1,0.8,1,0.8,1.4,1.4c-0.5,0.5-1.2,0.9-1.8,1.2c-0.4,0.2-1.3,0.2-1.1,0.8
		c0.1,0.5,0.9,0.3,1.4,0.4c0.1,0,0.3,0,0.4,0c0.4,0,1,0,1,0.5c0,0.5-0.6,0.4-1,0.4c-1,0-2.1-0.4-3.1,0c-0.3,0-0.6,0-0.9,0
		c-1.3-0.4-2.6-0.3-3.9-0.5c-0.9-0.1-1.8-0.2-2.7-0.3c-1.1-0.1-1.6-0.7-1.6-1.8c0.1-1.4,0.2-2.9,0.3-4.3
		C511.3,69.3,511.3,68.4,511.3,67.5z"/>
	<path id="XMLID_299_" class="st38" d="M515,76.6c1.3,0.1,2.6,0,3.9,0.5c-1,7.8-2.1,15.7-3.1,23.5c-0.8,5.8-1.5,11.6-2.3,17.4
		c-0.3,0.8,0.2,1.8-0.8,2.3c0.2-4,0.5-8,0.7-12c0.1-2,0.2-3.9,0.3-5.9c0.2-4.1,0.4-8.1,0.6-12.2C514.5,85.7,514.8,81.2,515,76.6z"/>
	<path id="XMLID_298_" class="st34" d="M496.3,49.8c-0.2,0.3-0.4,0.6-0.7,0.9c-2.4-2.7-4.9-5.5-7.3-8.2c2.6-3.3,5.7-5.9,9.8-6.9
		c0.1,0,0.2,0,0.3-0.1c0.6,0,0.8,0.1,0.7,0.9c-0.6,3.8-1.2,7.6-1.8,11.4l0,0C496.9,48.4,496.5,49,496.3,49.8z"/>
	<path id="XMLID_297_" class="st39" d="M527.4,64.7c1.8,0.2,3.6,0.3,5.3,0.5c1,0.1,1.8,0.4,1.8,1.5c-0.2,3.5-0.5,7.1-1,10.5
		c-2.7-0.4-5-1.6-7.4-2.6C526.8,71.3,527.1,68,527.4,64.7z"/>
	<path id="XMLID_296_" class="st35" d="M527.4,64.7c-0.2,3.3-0.6,6.7-1.3,9.9c-0.4,1-0.7,1.9-1.1,2.9c-1.5,2.1-3.6,1.9-5.2-0.5
		c1-0.5,2.1-0.1,3.1,0c0.4,0,0.9,0.1,1-0.4c0-0.6-0.5-0.5-1-0.5c-0.1,0-0.3,0.1-0.4,0c-0.5-0.1-1.3,0.1-1.4-0.4
		c-0.1-0.6,0.7-0.6,1.1-0.8c0.7-0.3,1.3-0.7,1.8-1.2c0.6-0.2,0.7-0.7,0.6-1.3c-0.3-2.7-0.6-5.3-1-8c-0.3-2.4-0.2-4.8-1.1-7.1
		c1.3-0.2,2.7-0.4,4-0.5C527.4,59.3,527.3,62,527.4,64.7z"/>
	<path id="XMLID_295_" class="st40" d="M514.6,24.9c0-0.9-0.1-1.7-0.1-2.6c0.1-0.4,0.1-0.8,0.2-1.2c0.1-0.5,0-0.6-0.5-0.6
		c-3.6,0-7.2,0-10.8,0.1c-0.3,0-0.7-0.2-0.8,0.3c0.1,1.3-0.1,2.5-0.3,3.8c-1.5-1.7-1.2-4.8,0.5-5.6c0.7,0.5,0.9-0.3,1.2-0.6
		c1.4-1.5,2.9-2.9,5.1-3c1.6-0.1,2.8,0.2,3.5,1.8c0.4,0.9,1.2,1.6,2.2,2C516.5,20.9,516.4,24,514.6,24.9z"/>
	<path id="XMLID_294_" class="st38" d="M498.5,35.5c-0.1,0-0.2,0-0.3,0.1c0.9-2,2.6-3.4,4.4-4.5c0.4-0.2,0.7-0.4,1.1-0.7
		c0.7,0.6,1.4,1.1,1.6,2c0,0.1,0.1,0.2,0.1,0.3l0,0c0,0.1-0.1,0.3-0.1,0.4c-0.4,2.6-0.4,2.6-2.4,2.5c-0.5,0-0.9-0.1-1.4-0.1
		c-0.2,0-0.4,0-0.6,0c-0.5,0-1,0-1.5,0C499.2,35.4,498.8,35.3,498.5,35.5z"/>
	<path id="XMLID_293_" class="st34" d="M494.8,51.9c-0.3,1.1-0.9,1.1-1.7,0.5c-0.3-0.2-0.5-0.5-0.8-0.7c-1.2-1.2-2.4-2.6-3.8-3.6
		c-0.5-0.5-0.9-1-1.4-1.4c-1.2-1.2-1.2-1.5-0.2-2.7c0.2-0.2,0.4-0.4,0.5-0.6C490,46.2,492.4,49,494.8,51.9z"/>
	<path id="XMLID_292_" class="st41" d="M519.3,54.4c3.1-0.9,6.3-1.8,9.4-2.7c0.2,0.5,0.4,1,0.6,1.5c-3.2,1-6.5,2.1-9.7,3.1
		C519.3,55.8,519.2,55.1,519.3,54.4z"/>
	<path id="XMLID_291_" class="st41" d="M494.8,51.9c-2.4-2.8-4.8-5.7-7.3-8.5c0.3-0.3,0.5-0.6,0.8-0.8c2.4,2.7,4.9,5.5,7.3,8.2
		C495.3,51.1,495.1,51.5,494.8,51.9z"/>
	<path id="XMLID_290_" class="st37" d="M525,77.5c0.4-1,0.7-1.9,1.1-2.9c2.4,1.1,4.7,2.3,7.4,2.6c-1.1,1.5-2.6,0.7-3.8,0.7
		C528,77.9,526.5,77.6,525,77.5z"/>
	<path id="XMLID_289_" class="st34" d="M519.5,56.4c3.2-1,6.5-2.1,9.7-3.1c1,1.7,1,1.8-0.9,2.2c-0.6,0.1-1.3,0.3-1.9,0.4
		c-1.7,0.1-3.4,0.4-5.1,0.7c-0.6,0.1-1.2,0.2-1.8,0.2C519.6,56.7,519.6,56.6,519.5,56.4z"/>
	<path id="XMLID_288_" class="st41" d="M518.7,38.9c-0.8-3.1-3-5.1-5.7-6.6c-1.2-0.7-1.2-0.7-0.1-1.6c2.8,1.7,5,3.9,6.1,7.1
		c0.2,0.5,0.3,1.1,0.4,1.6C519.2,39.2,519,39.1,518.7,38.9z"/>
	<path id="XMLID_287_" class="st42" d="M488.5,48c1.4,1,2.6,2.4,3.8,3.6c-0.3,0.2-0.6,0.5-0.9,0.7c-1.1-1.2-2-2.6-3.3-3.6
		C488.3,48.5,488.4,48.3,488.5,48z"/>
	<path id="XMLID_286_" class="st42" d="M521.4,56.7c1.7-0.3,3.4-0.7,5.1-0.7c0,0.3,0,0.6,0.1,0.8c-1.3,0.2-2.7,0.4-4,0.5
		C522.2,57,521.9,56.7,521.4,56.7z"/>
	<path id="XMLID_285_" class="st43" d="M496.3,49.8c0.2-0.8,0.6-1.4,1.1-2c-0.1,1.2,0,2.5-0.3,3.6C496.8,50.9,496.5,50.3,496.3,49.8
		z"/>
	<path id="XMLID_284_" class="st43" d="M497,52.6c0,0.6,0,1.2,0,1.8C497,53.7,497,53.2,497,52.6z"/>
	<path id="XMLID_282_" class="st33" d="M492.6,123c0.6,0.2,0.6,0.7,0.6,1.1c0.1,1.1,0.1,2.2,0.2,3.4c-1.3-0.1-2.6-0.1-3.9,0
		c-0.8-1-1.6,0-2.4,0c-4-0.1-8.1-0.1-12.1,0c-0.1-0.9,0.5-1.2,1.2-1.3c2.8-0.4,5.7-0.9,8.5-1.3c1.2-0.2,2.2-0.9,3.3-1.4
		c0.5-0.2,0.9-0.4,1.5-0.5C490.6,123,491.6,123,492.6,123z"/>
	<path id="XMLID_279_" class="st41" d="M511.2,123.8c2.5,0.7,4.9,1.4,7.4,2.2c0.6,0.2,1.3,0.4,1.1,1.3c-4.5,0-8.9,0-13.4-0.1
		c0.4-1.2,0.3-2.6,1.9-3.1C509.2,124,510.3,124.2,511.2,123.8z M511.4,124.7c1.6,1,1.6,1,2.3,0.6C513,124.8,512.3,124.3,511.4,124.7
		z"/>
	<path id="XMLID_278_" class="st40" d="M511.2,123.8c-1,0.4-2,0.2-3,0.3c-0.1-1.2,0.5-2.3,0.6-3.5c1-0.3,2-0.1,3-0.1
		C511.9,121.6,511.3,122.7,511.2,123.8z"/>
	<path id="XMLID_277_" class="st40" d="M492.6,123c-1,0-2,0-3,0c0.3-1.1,0.5-2.3,0.8-3.4c1,0,1.9,0.4,2.8,0.6
		C493.2,121.2,492.8,122.1,492.6,123z"/>
	<path id="XMLID_276_" class="st15" d="M506.3,127.2c4.5,0,8.9,0,13.4,0.1c-0.2,0.6-0.7,0.6-1.2,0.6c-3.8,0-7.6,0-11.4,0
		C506.8,127.8,506,128.2,506.3,127.2z"/>
	<path id="XMLID_275_" class="st44" d="M475,127.5c4-0.1,8.1-0.1,12.1,0c-0.4,0.5-1,0.5-1.6,0.5c-3.1,0-6.1,0-9.2,0
		C475.9,128,475.4,128.1,475,127.5z"/>
	<path id="XMLID_274_" class="st44" d="M489.5,127.5c1.3-0.1,2.6-0.1,3.9,0C492.6,128.3,490.3,128.3,489.5,127.5z"/>
	<path id="XMLID_273_" class="st38" d="M511.3,67.5c0,0.9-0.1,1.8-0.3,2.6c-2.3,0.5-4.5,1.2-6.9,1.5c-1.8,0.2-3.6,0.2-5.3,0
		c-0.6,0-1.4-0.1-1.7-1c4.5-1,8.9-2,13.4-3C510.8,67.6,511.1,67.6,511.3,67.5z"/>
	<path id="XMLID_272_" class="st38" d="M496.6,70.5c0.2-0.1,0.4,0,0.5,0.2C497,70.6,496.8,70.6,496.6,70.5z"/>
	<path id="XMLID_271_" class="st45" d="M519.5,56.4c0,0.2,0,0.3,0,0.5c0.2,0.6,0.3,1.3,0.5,1.9c0.4,1.8,1.3,3.4,1.2,5.3
		c-1.9,0-3.7-0.2-5.5-0.5c-0.3-2.5-0.3-5-0.2-7.4c0.1-2.2,0.3-4.4,0.7-6.6c0.1-0.4,0-0.9,0.6-1c0.3,0.4,0.6,0.9,0.9,1.3
		c0.9,0.4,0.6,1.3,0.8,2c0.2,0.9,0.2,1.8,0.6,2.6C519.2,55.1,519.3,55.8,519.5,56.4z"/>
	<path id="XMLID_270_" class="st39" d="M515.8,63.6c1.8,0.3,3.7,0.5,5.5,0.5c0.8,0.1,1.5,0.2,2.3,0.3c0.3,2.7,0.6,5.3,1,8
		c0.1,0.6,0,1-0.6,1.3c-0.4-0.5-1.2-0.6-1.4-1.4c0.5-0.3,1.1-0.5,1.3-1.2c0.1-0.7,0.1-1.3-0.5-1.8c-0.5-0.4-1-0.5-1.6-0.2
		c-0.8,0.5-1.1,1.2-0.9,2.1c-2-0.6-3.3-2.2-4.8-3.5c-1.4-1.2-2.7-2.6-4-3.9c0.6-0.7,1.4-0.3,2.2-0.3
		C514.8,63.6,515.3,63.6,515.8,63.6z"/>
	<path id="XMLID_269_" class="st35" d="M503,35.5c2,0.2,2,0.2,2.4-2.5c0.4,0,0.7,0.1,1,0.3c1.3,0.8,2.6,1.1,4.1,1
		c-0.2,1.8,0.8,2.4,2.4,2.6c-0.6,0.8-1.4,1.3-2.2,1.8C507.2,40.9,504,38.6,503,35.5z"/>
	<path id="XMLID_268_" class="st43" d="M517.8,49.8c-0.3-0.4-0.6-0.8-0.9-1.3c0-0.2-0.1-0.5-0.1-0.7c0.1-0.2,0.1-0.5-0.1-0.7
		c-0.2-2.5,0-4.9,0.4-7.4c0.1-0.5,0.3-1.1,0-1.7c0.3,0,0.6,0.1,0.8,0.4c-0.4,0.2-0.3,0.6-0.3,0.9c0.1,3.1,0.3,6.3,0.4,9.4
		c0,0.2,0,0.4,0,0.6C518,49.5,517.9,49.7,517.8,49.8z"/>
	<path id="XMLID_267_" class="st43" d="M498.5,35.5c0.3-0.2,0.7-0.2,1.1-0.1c-0.2,3.1-0.2,6.2-0.8,9.2c-0.2,1.1-0.4,2.3-1.3,3.2
		c0.6-3.8,1.1-7.6,1.8-11.4C499.3,35.7,499,35.6,498.5,35.5z"/>
	<path id="XMLID_266_" class="st43" d="M501,35.5c0.2,0,0.4,0,0.6,0c0.4,3.1,2.4,4.6,5.2,5.4C504.8,41.7,501.8,38.8,501,35.5z"/>
	<path id="XMLID_265_" class="st43" d="M513.7,37c0.4,0,0.7-0.1,1.1,0.2c-0.6,0.1-0.7,0.6-0.9,1c-1.2,1.7-2.7,2.7-4.8,2.9
		C510.9,40.2,513.1,39.5,513.7,37z"/>
	<path id="XMLID_264_" class="st45" d="M516.7,47.1c0.2,0.2,0.2,0.4,0.1,0.7C516.6,47.6,516.6,47.4,516.7,47.1z"/>
	<path id="XMLID_263_" class="st45" d="M518,49.4c0-0.2,0-0.4,0-0.6C518.2,49,518.2,49.2,518,49.4z"/>
	<path id="XMLID_260_" class="st40" d="M514.3,22.3c-0.1,0.6-0.1,1.1-0.2,1.7c-0.3,1.9-2.1,2.9-3.9,2.1c-0.9-0.4-1.8-0.6-2.8-0.2
		c-2.4,0.9-4.1-0.3-4.3-2.7c0-0.3-0.1-0.6-0.1-0.9c0.2,0.1,0.4,0.2,0.6,0.3c0.1,0.1,0.1,0.2,0.2,0.2c0.2,0.2,0.4,0.3,0.6,0.5
		c1,0.8,2.1-0.5,3.2,0.1c-0.2-0.6,0.6-1,0.2-1.6c-1.5,1.6-2,1.8-3.8,0.9c-0.1-0.1-0.2-0.2-0.3-0.3c-0.5-0.9-0.4-1.4,0.8-1.2
		c1.1,0.1,2.2,0,3.2,0.1c0.6,0.1,1.2-0.1,1.6,0.5c0.8-1.4,2-0.5,3-0.6c1.5-0.2,1.6,0,0.8,1.4c-0.1,0.1-0.2,0.3-0.1,0.3
		c0.2,0.2,0.3,0,0.4-0.1C513.8,22.7,513.8,21.8,514.3,22.3z M512.9,22.9c-1.2,0.5-2.3-0.1-3.3-0.6C510.8,23.6,511.6,23.7,512.9,22.9
		z"/>
	<path id="XMLID_259_" class="st42" d="M510.5,34.4c-1.5,0.1-2.9-0.2-4.1-1c-0.3-0.2-0.6-0.3-1-0.3c0-0.1,0.1-0.3,0.1-0.4
		c0,0,0,0,0,0c0-0.1-0.1-0.2-0.1-0.3c0.4-0.3,0.7,0.1,1.1,0.2c0.8,0.3,1.7,0.5,2.5,0.4C510.6,32.8,510.6,32.8,510.5,34.4z"/>
	<path id="XMLID_258_" class="st43" d="M514.3,22.3c-0.5-0.5-0.5,0.4-0.8,0.3c-0.1-0.1-0.2-0.1-0.2-0.2c0.8-1.4,0.7-1.5-0.8-1.4
		c-1,0.1-2.3-0.8-3,0.6c-0.4-0.6-1-0.4-1.6-0.5c-1.1-0.1-2.2,0-3.2-0.1c-1.2-0.1-1.3,0.3-0.8,1.2c-0.1,0.1-0.1,0.2-0.2,0.2
		c-0.2-0.1-0.4-0.2-0.6-0.3c-0.2-0.4,0.1-1-0.4-1.2c0.1-0.6,0.5-0.3,0.8-0.3c3.6,0,7.2,0,10.8-0.1c0.5,0,0.6,0.1,0.5,0.6
		c-0.1,0.4-0.1,0.8-0.2,1.2L514.3,22.3L514.3,22.3z"/>
	<path id="XMLID_257_" class="st44" d="M506.4,28.3c1.4-0.4,2.7-0.2,4.1-0.3C509.7,29.8,508.3,29.9,506.4,28.3z"/>
	<path id="XMLID_256_" class="st15" d="M521,71.2c-0.2-0.9,0-1.6,0.9-2.1c0.6-0.3,1.1-0.2,1.6,0.2c0.6,0.5,0.7,1.1,0.5,1.8
		c-0.1,0.7-0.8,0.9-1.3,1.2C521.9,72.2,521.4,71.8,521,71.2z"/>
	<path id="XMLID_255_" class="st46" d="M523.6,64.4c-0.8-0.1-1.5-0.2-2.3-0.3c0-1.9-0.8-3.5-1.2-5.3c-0.1-0.6-0.3-1.3-0.5-1.9
		c0.6-0.1,1.2-0.2,1.8-0.2c0.5,0,0.8,0.4,1.2,0.6C523.4,59.6,523.3,62,523.6,64.4z"/>
	<path id="XMLID_254_" class="st35" d="M505.5,32.7C505.5,32.7,505.5,32.7,505.5,32.7C505.5,32.7,505.5,32.7,505.5,32.7z"/>
	<path id="XMLID_253_" class="st39" d="M511.4,124.7c0.9-0.4,1.6,0,2.3,0.6C513,125.7,513,125.7,511.4,124.7z"/>
	<path id="XMLID_252_" class="st43" d="M504,22.5c1.7,0.9,2.3,0.8,3.8-0.9c0.4,0.6-0.4,1.1-0.2,1.6c-1-0.6-2.1,0.8-3.2-0.1
		c-0.2-0.2-0.4-0.3-0.6-0.5C503.9,22.6,503.9,22.6,504,22.5z"/>
	<path id="XMLID_251_" class="st43" d="M512.9,22.9c-1.3,0.9-2.2,0.7-3.3-0.6C510.7,22.8,511.7,23.4,512.9,22.9z"/>
	<path id="XMLID_250_" class="st43" d="M513.5,22.6c-0.1,0.1-0.2,0.3-0.4,0.1c0,0,0.1-0.2,0.1-0.3C513.3,22.5,513.4,22.5,513.5,22.6
		z"/>
	<path id="XMLID_249_" class="st43" d="M503.8,22.2c0.1,0.1,0.2,0.2,0.3,0.3c-0.1,0.1-0.2,0.1-0.2,0.2c-0.1-0.1-0.1-0.2-0.2-0.2
		C503.6,22.4,503.7,22.3,503.8,22.2z"/>
</g>
<circle id="XMLID_71_" class="st47" cx="160" cy="208.5" r="15.3"/>
<circle id="XMLID_73_" class="st48" cx="333.7" cy="202" r="15.3"/>
<circle id="XMLID_74_" class="st49" cx="506" cy="208.9" r="15.3"/>
<text id="XMLID_13_" transform="matrix(1 0 0 1 51.6208 89.5328)" class="st50 st51">1998</text>
<text id="XMLID_72_" transform="matrix(1 0 0 1 216.6208 87.5328)" class="st50 st51">2004</text>
<text id="XMLID_75_" transform="matrix(1 0 0 1 388.954 89.5328)" class="st50 st51">2009</text>
<text id="XMLID_77_" transform="matrix(1 0 0 1 552.6207 88.5328)" class="st50 st51">2013</text>
<text id="XMLID_78_" transform="matrix(1 0 0 1 126.6665 237.3327)" class="st52 st53">Primary</text>
<text id="XMLID_80_" transform="matrix(1 0 0 1 480.9998 237.3327)" class="st52 st53">Tertiary</text>
<text id="XMLID_79_" transform="matrix(1 0 0 1 289.1665 237.3333)" class="st52 st53">Secondary</text>
<text id="XMLID_81_" transform="matrix(1 0 0 1 92.9053 252.7402)"><tspan x="0" y="0" class="st54 st55">Santiago South Central School </tspan><tspan x="2.3" y="10.8" class="st54 st55">Malvar, Santiago City, Isabela</tspan></text>
<text id="XMLID_82_" transform="matrix(1 0 0 1 240.2695 252.7402)"><tspan x="0" y="0" class="st54 st55">Univeristy of La Sallete High School Dept. </tspan><tspan x="25.1" y="10.8" class="st54 st55">Malvar, Santiago City, Isabela</tspan></text>
<text id="XMLID_83_" transform="matrix(1 0 0 1 422.4556 252.7402)"><tspan x="0" y="0" class="st54 st55">Bachelor of Science in Information Technology </tspan><tspan x="52.5" y="10.8" class="st54 st55">Northeastern College </tspan><tspan x="36.7" y="21.6" class="st54 st55">Villasis, Santiago City, Isabela</tspan></text>
</svg>
