<?xml version="1.0" encoding="utf-8"?>
<!-- Generator: Adobe Illustrator 19.0.0, SVG Export Plug-In . SVG Version: 6.00 Build 0)  -->
<svg version="1.1" id="Layer_1" xmlns="http://www.w3.org/2000/svg" xmlns:xlink="http://www.w3.org/1999/xlink" x="0px" y="0px"
	 viewBox="0 0 489 580" style="enable-background:new 0 0 489 580;" xml:space="preserve">
<style type="text/css">
	.st0{fill:#FFFFFF;stroke:#F37575;stroke-width:7;stroke-miterlimit:10;}
	.st1{fill:none;stroke:#F37575;stroke-width:7;stroke-miterlimit:10;}
	.st2{fill:#317486;}
	.st3{fill:#F0AC7D;}
	.st4{fill:#B63231;}
	.st5{fill:#DCD6CF;}
	.st6{fill:#DD7446;}
	.st7{fill:#EDEDED;}
	.st8{fill:#9AA454;}
	.st9{fill:#68371D;}
	.st10{fill:#C19574;}
	.st11{fill:#FFFFFF;}
	.st12{fill:#4E7F60;}
	.st13{fill:#AF5554;}
	.st14{fill:#946D97;}
	.st15{fill:#F37475;}
	.st16{font-family: 'Montserrat', sans-serif;}
	.st17{font-size:18px;}
	.st18{font-family: 'Montserrat', sans-serif;}
	.st19{font-size:16px;}
	.st20{font-family:'OpenSans';}
	.st21{font-size:11px;}
	.st22{fill:none;stroke:#377FC2;stroke-width:7;stroke-miterlimit:10;}
	.st23{fill:#327FC2;}
	.st24{fill:#FFFFFF;stroke:#377FC2;stroke-width:7;stroke-miterlimit:10;}
	.st25{fill:#454D56;}
	.st26{fill:#7796AF;}
	.st27{fill:#48525A;}
	.st28{fill:#647F97;}
	.st29{fill:#7290A9;}
	.st30{fill:#F2A284;}
	.st31{fill:#5D4947;}
	.st32{fill:#577386;}
	.st33{fill:#B9B9BA;}
	.st34{fill:#E7E7E8;}
	.st35{fill:#577186;}
	.st36{fill:#4A4F57;}
	.st37{fill:#C87D66;}
	.st38{fill:#979493;}
	.st39{fill:none;stroke:#08B793;stroke-width:7;stroke-miterlimit:10;}
	.st40{fill:#FFFFFF;stroke:#08B793;stroke-width:7;stroke-miterlimit:10;}
	.st41{fill:#23386D;}
	.st42{fill:#F3BA1B;}
	.st43{fill:#EF9C79;}
	.st44{fill:#202647;}
	.st45{fill:#A2A1A2;}
	.st46{fill:#1E2E59;}
	.st47{fill:#B4B4B5;}
	.st48{fill:#E89776;}
	.st49{fill:#2B3C6A;}
	.st50{fill:#CA8468;}
	.st51{fill:#434049;}
	.st52{fill:#E1E3E8;}
	.st53{fill:#C4982E;}
	.st54{fill:#838589;}
	.st55{fill:#11B793;}
</style>
<g id="XMLID_2_">
	<circle id="XMLID_1_" class="st0" cx="225.9" cy="56.5" r="45.5"/>
	<line id="XMLID_10_" class="st1" x1="170.9" y1="53.5" x2="79.9" y2="53.5"/>
	<line id="XMLID_5_" class="st1" x1="230.4" y1="113" x2="230.4" y2="164.7"/>
	<path id="XMLID_11_" class="st1" d="M167.4,53.5c0,34.8,28.2,63,63,63"/>
	<g id="XMLID_18_">
		<path id="XMLID_65_" class="st2" d="M231.7,33.1c0.9,0.1,1.8,0.2,2.8,0.3c3.4,0.4,5,1.8,5.7,5.1c0.6,2.9,0.8,5.8,1,8.8
			c0,0.5,0,1.1,0.6,1.4c0.2,0.1,0.3,0.4,0.4,0.6c0.8,1.6,0.1,5.5-1.1,6.8c-0.2,0.2-0.3,0.5-0.4,0.8c-1,2.9-3.2,4.3-6.1,4.8
			c-0.3,0-0.6,0.1-1,0.1c-0.8-0.1-0.8,0.3-0.8,1c0.1,5.3,0.2,10.6,0.2,15.9c0,0.4,0.1,0.8,0,1.2c-0.1,0.5-0.2,0.9,0.6,1.1
			c0.5,0.1,0.6,0.7,0.5,1.2c-0.1,0.4-0.1,0.8-0.2,1.1c-0.2,0.2-0.4,0.2-0.6,0c-0.9-0.5-1.9-0.4-2.9-0.1c-0.7,0.2-1.1,0.8-1.8,1
			c-0.2-0.4-0.4-0.8-0.6-1.1c-0.2-0.4-0.4-1,0.1-1.1c1.4-0.5,1.1-1.2,0.5-2.1c-0.2-0.3-0.2-0.6-0.3-0.9c-0.9-3.8-1.7-7.5-2.6-11.3
			c-0.1-0.3,0-0.6-0.4-0.7c-0.9,4-1.9,8.1-2.8,12.1c-0.2,0.7-0.1,1.5-1.2,1.6c-0.1,0-0.2,0.4-0.3,0.6c-0.2,0.7-0.3,1.4-0.4,2.1
			c-0.1,0.5-0.1,0.9-0.2,1.4c-0.1,0.6-0.2,1.1-0.9,1.2c-0.8,0.1-1.6,0.4-2.4,0.3c0.9-2,0.1-3.9-0.2-5.8c0-0.2,0-0.4,0-0.6
			c0.2-0.2,0.2-0.4,0.2-0.7c0,0,0,0,0,0c0-0.1,0.1-0.1,0.1-0.2c0.5-0.4,0.5-0.9,0.5-1.5c0.4-5.7,0.8-11.4,1.1-17.2
			c0.1-0.1,0.1-0.2,0.2-0.2c1.1,0.4,1.8,0.1,2.1-0.8c3.7,1.5,7.5,1.4,11.3,0.5c0.8-0.2,1.5-0.6,1.3-1.7c-0.2-0.7-0.1-1.4-0.2-2.1
			c0.4-0.1,0.8-0.2,1.1-0.2c1,0,1.4-0.5,1.6-1.5c0.2-1.2,0.3-2.5,0.3-3.7c0.2-0.1,0.5-0.4,0.7-0.4c1-0.1,1.1-0.7,0.9-1.5
			c-0.4-1.7-0.8-3.4-1.2-5.1c-0.5-1.7-0.5-3.4-1.6-4.9c-0.5-0.6-0.7-0.8-1.1,0c-1,1.6-1.4,3.4-1.9,5.3c-0.2,1.2-0.8,2.2-0.9,3.4
			c-0.5-0.2-0.3-0.6-0.3-0.9c0-1.4,0-2.8,0-4.2c0-0.3,0.2-0.7-0.4-0.8c-0.3-0.3-0.6-0.1-0.9-0.3c0-0.8,0-1.5,0-2.3
			c-0.1-1.5-0.1-2.9-0.2-4.4c0-0.5,0-0.8,0.5-1.1C230.6,33.1,231.1,33.1,231.7,33.1z M220,84.4c0-0.4,0.1-0.8-0.3-0.9
			c-0.4,0-0.5,0.4-0.5,0.8c0,0.3-0.1,0.7,0.4,0.8C220,85,219.9,84.6,220,84.4z"/>
		<path id="XMLID_57_" class="st3" d="M231.7,33.1c-0.6,0-1.1,0-1.7,0c-0.6-0.1-0.9,0.1-0.8,0.8c0,0.9,0,1.7,0,2.6
			c0.1,1.2-0.3,1.7-1.5,1.8c-0.3,0-0.6,0-1,0c-1.2,0-1.5-0.4-1-1.5c0.1-0.2,0-0.4,0-0.6c0.1-0.5,0.1-1,0.2-1.6
			c0.2-1.5,0.2-1.5-1.3-1.4c-1.3-0.6-2.7-0.9-4-1.6c-3.4-1.8-5-5.2-3.1-9c0.2-0.5,0.3-1,0.5-1.5c0.4-1.3,0.5-2.7,0.7-4.1
			c0.5,0.1,1.1,0.2,1.6,0.2c2.4-0.1,4.8,0.2,7.1,0.3c1.9,0.1,3.9,0.3,5.8,0.8c0.3,1.3,0.9,2.5,1.9,3.5c0.3,0.3,0.4,0.5,0.5,0.9
			c0.1,1,0.3,1.9,0.5,3c1.2-1.4,1.9-3.4,4.2-3c0.5,0.9,1.3,1.7,1.2,2.9c-0.1,1.8-1.3,3.2-3.1,3.2c-0.8,0-1.3,0.3-1.8,0.9
			c-1.3,1.5-2.9,2.6-4.8,3.2C231.8,32.8,231.6,32.8,231.7,33.1z M222.3,26.1c-0.9,0.2-1.2,0.8-1.1,1.7c0.1,1.2,1,2.1,2.2,2.4
			c1.4,1.2,4.3,1.1,6.2-0.2c1.2-1.3,1.1-2.3-0.1-3c-0.7-0.4-1.5-0.3-2.3-0.1c-1.3,0.2-2.5,0.1-3.7-0.5
			C223.1,26.2,222.8,25.7,222.3,26.1z M232.2,21.7c0-0.5,0-1.1-0.8-1.2c-0.7-0.1-1.2,0.6-1.2,1.5c0,0.6,0.2,1.2,0.9,1.2
			C232.1,23.1,232.2,22.4,232.2,21.7z M226.8,20.2c-0.1,0-0.2,0-0.3,0c-0.1,0.2-0.2,0.5-0.2,0.7c-0.1,1-0.1,2-1.6,2.2
			c-0.6,0.1-0.5,0.8-0.4,1.3c0,0.5,0.3,0.9,0.8,1c0.4,0.1,0.7-0.1,0.8-0.7c-0.5,0.1-1.1,0.3-1.2-0.5c-0.1-0.8,0.3-0.9,1-0.8
			c0.2,0,0.5-0.2,0.6-0.4C226.6,22.1,226.8,21.2,226.8,20.2z M223.4,20.7c0-0.6-0.1-1.1-0.8-1.1c-0.7,0-1,0.6-1,1.2
			c0,0.5,0.2,1,0.8,1C223.2,21.8,223.4,21.2,223.4,20.7z M233,19.1c0-0.1-0.1-0.2-0.1-0.3c-0.7-0.6-1.4-0.8-2.3-0.6
			c-0.2,0-0.3,0.1-0.2,0.3c0,0.2,0.2,0.3,0.4,0.3c0.7,0,1.2,0.2,1.8,0.5C232.8,19.4,233,19.4,233,19.1z M223.9,17.8
			c-0.9-0.7-1.7-0.6-2.5-0.2c-0.2,0.1-0.3,0.2-0.2,0.4c0.1,0.2,0.2,0.2,0.3,0.1C222.2,17.8,223,18.1,223.9,17.8z"/>
		<path id="XMLID_54_" class="st4" d="M233.3,18.2c-1.9-0.5-3.9-0.7-5.8-0.8c-2.4-0.1-4.8-0.4-7.1-0.3c-0.5,0-1-0.1-1.6-0.2
			c-0.2-0.1-0.5,0-0.7-0.3c0-1.7,0-3.3,0.4-5c0.8-3.5,2.2-4.8,5.7-5c3.8-0.2,7.6,0.1,11.3,1.3c1.2,0.4,2.2,0.9,3.1,1.7
			c0.1,0.4,0.3,0.8-0.4,0.6c-0.3-0.1-0.6-0.1-0.8-0.1c-0.8-0.2-1.1,0.1-1.1,0.9c0,1.8,0,3.6-0.1,5.3c0,0.5,0.1,0.7,0.6,0.8
			c1.1,0.2,2.2,0.4,3.4,0.5c0,0.5,0.1,1-0.2,1.5c-0.3,0-0.6,0-0.8-0.1C237.1,18.8,235.2,18.5,233.3,18.2z M223.9,9.8
			c-0.5-1.4-0.9-1.5-1.8-0.6c-0.2,0.2-0.4,0.4-0.5,0.7c-0.5,1.2-0.9,2.4-1.3,3.6c-0.4,1.4-0.4,1.4,1.1,1.8c0.3,0.1,0.6,0.2,0.9,0.3
			c1,0.4,2,0.6,3,0.5c0.9-0.1,1.8-0.5,2.8-0.4c0.5,0,0.5-0.4,0.5-0.8c-0.2-1.6-0.5-3.3-1.6-4.6c-0.4-0.5-0.7-0.8-1.3-0.3
			c-0.3,0.3-0.6,0.1-0.8-0.2C224.6,9,224.2,9.1,223.9,9.8z"/>
		<path id="XMLID_53_" class="st5" d="M217,85.9c0.8,0.1,1.6-0.2,2.4-0.3c0.7-0.1,0.8-0.6,0.9-1.2c0-0.5,0.1-0.9,0.2-1.4
			c2.4-0.3,4.8-0.6,7.3-0.2c0.2,0.4,0.4,0.8,0.6,1.1c-0.1,0.6-0.2,1.2-0.2,1.9c0,0.9,0.3,1.3,1.2,1.3c1,0,2,0.1,2.9,0
			c2.1-0.2,2.5-0.9,1.7-2.8c-0.1-0.1-0.1-0.3-0.1-0.4c1.2-0.2,2.3,0.2,3.5,0.5c3,0.7,6.1,1,9.2,2c-4,0.9-8,1.7-12,2.3
			c-3.3,0.5-6.6,0.9-9.9,0.8c-3.6,0-7.2-0.5-10.8-1.1c-2.4-0.4-4.8-0.7-7.1-1.3c-0.4-0.1-0.6,0.1-0.9,0.1c0,0,0,0,0,0
			c-0.1-0.5-0.5-0.4-0.8-0.4c-0.5,0-1-0.1-1.5-0.2c-0.1-0.2-0.2-0.4-0.2-0.6c0.1-0.1,0.3-0.2,0.4-0.2c0.1,0.2,0.3,0.2,0.4,0
			c2.4-0.4,4.8-0.9,7.3-1.1c0.3,1,0.9,1.2,1.8,1.4C214.5,86.2,215.8,86.1,217,85.9z"/>
		<path id="XMLID_52_" class="st6" d="M233.3,18.2c1.9,0.3,3.9,0.6,5.8,1c0.3,0,0.6,0.1,0.8,0.1c0.3,0.1,0.6-0.1,0.8,0.2
			c-0.3,0.9,0.2,1.8-0.3,2.6c0,0-0.1,0-0.1,0.1c0,0.1,0,0.1,0,0.2c0,0.1-0.1,0.3-0.1,0.4c-2.3-0.4-3,1.6-4.2,3
			c-0.2-1.1-0.4-2.1-0.5-3c-0.1-0.4-0.2-0.7-0.5-0.9C234.2,20.7,233.6,19.5,233.3,18.2z"/>
		<path id="XMLID_51_" class="st7" d="M240.1,17.7c-1.1-0.2-2.2-0.4-3.4-0.5c-0.5-0.1-0.6-0.3-0.6-0.8c0.1-1.8,0.1-3.6,0.1-5.3
			c0-0.9,0.2-1.2,1.1-0.9c0.3,0.1,0.6,0.1,0.8,0.1c0.7,0.2,0.5-0.2,0.4-0.6c0.3,0.1,0.5-0.6,0.8-0.2c0.2,0.2,0,0.5-0.2,0.7
			c-0.2,0.2,0,0.5,0.1,0.7c0.8,1.8,1.1,3.7,1.1,5.7C240.3,16.9,240.2,17.3,240.1,17.7z"/>
		<path id="XMLID_50_" class="st2" d="M224.7,33.1c1.5,0,1.5,0,1.3,1.4c-0.1,0.5-0.1,1-0.2,1.6c-0.5,0.6-0.8,1.2-1,1.9
			c-0.4,0.6-0.6,1.3-0.8,1.9c-0.1,0.5-0.5,0.4-0.8,0.4c-0.7-0.1-1.3-0.2-2-0.2c-0.2-0.2-0.3-0.5-0.2-0.9c0.2-0.8,0.1-1.5,0.1-2.3
			c0.8-0.7,1-1.6,1.4-2.5C222.9,33.6,223.9,33.5,224.7,33.1z"/>
		<path id="XMLID_49_" class="st7" d="M233.9,84c0,0.1,0.1,0.3,0.1,0.4c0.8,1.9,0.3,2.6-1.7,2.8c-1,0.1-2,0-2.9,0
			c-0.9,0-1.3-0.4-1.2-1.3c0-0.6,0.2-1.3,0.2-1.9c0.7-0.2,1.1-0.9,1.8-1c1-0.2,1.9-0.4,2.9,0.1c0.2,0.1,0.4,0.2,0.6,0
			C233.8,83.4,233.8,83.7,233.9,84z"/>
		<path id="XMLID_48_" class="st8" d="M221,37c0,0.8,0.1,1.5-0.1,2.3c-0.1,0.3,0,0.6,0.2,0.9c-0.5,0-1.1-0.2-1.5,0.3
			c-0.4,0.5-0.3,1-0.1,1.5c-0.1,0.2-0.5,0.3-0.4,0.7c-0.3,0.4-0.2,0.8-0.2,1.2c0,1.4,0,2.9,0,4.3c-0.7,0-1.4,0-2.1,0
			c0,0,0-0.1,0-0.1c-1-1-0.3-1.9,0.1-2.8c1-2.3,2-4.5,3-6.8C220.2,37.8,220.5,37.3,221,37z"/>
		<path id="XMLID_47_" class="st9" d="M240.1,17.7c0.1-0.4,0.2-0.8,0.2-1.2c1.9,0.6,4,1,5.8,1.9c0.4,0.2,1,0.2,0.9,0.7
			c-0.1,0.4-0.7,0.4-1.1,0.4c-1.7,0.1-3.5,0-5.2-0.1c-0.2-0.3-0.6-0.1-0.8-0.2C240.2,18.7,240.1,18.2,240.1,17.7z"/>
		<path id="XMLID_46_" class="st10" d="M216.8,48.1c0.7,0,1.4,0,2.1,0c0,0.9,0,1.7,0,2.6c-0.3,0.1-0.6-0.4-0.8,0
			c-0.3,0.7,0.7,0.6,0.7,1.2c-1.1-0.1-1.4,0.7-1.4,1.6c0,1,0.5,1.6,1.5,1.6c0,0.1,0,0.1,0,0.2c-1.2,0-0.6,1-0.9,1.5
			c-0.9-1.9-1.4-4-1.9-6C216,49.8,216.5,48.9,216.8,48.1z"/>
		<path id="XMLID_45_" class="st4" d="M218.1,56.7c0.3-0.5-0.3-1.5,0.9-1.5c0,0.5,0,1,0,1.5c-0.1,1,0.3,1.3,1.2,1.2c3-0.1,6,0,9,0
			c0.1,1-0.2,1.4-1.3,1.3c-2.4-0.3-4.8-0.4-7.2-0.6c-0.6,0-1.3,0-1.9,0C217.6,58.2,218.3,57.3,218.1,56.7z"/>
		<path id="XMLID_44_" class="st6" d="M218.1,16.6c0.2,0.3,0.4,0.2,0.7,0.3c-0.1,1.4-0.2,2.8-0.7,4.1c-0.7-0.5-1.2-1.1-1.4-1.9
			C216.4,17.8,216.8,17.2,218.1,16.6z"/>
		<path id="XMLID_43_" class="st10" d="M218.7,58.6c0.6,0,1.3,0,1.9,0c0.1,0.1,0.1,0.2,0.2,0.3c-0.4,0.8-1.3,0.5-1.9,0.9
			c-0.1,0.1-0.1,0.2-0.2,0.2C218.8,59.6,218.8,59.1,218.7,58.6z"/>
		<path id="XMLID_42_" class="st3" d="M240.5,22.2c0-0.1,0-0.1,0-0.2c0,0,0.1,0,0.1-0.1C240.5,22.1,240.5,22.2,240.5,22.2z"/>
		<path id="XMLID_41_" class="st3" d="M219,55c-1.1,0-1.6-0.6-1.5-1.6c0-0.9,0.3-1.7,1.4-1.6c0-0.6-1-0.5-0.7-1.2
			c0.2-0.3,0.5,0.1,0.8,0c0.8,0.1,1.6,0.3,1.9,1c0.5,1,1,1,2,0.9c2.3-0.2,4.6-0.5,6.9-0.6c0.5-0.1,1,0.2,1.4-0.3
			c1.1,0.5,2,0.1,2.1-1c1.1,0.2,2.1-0.6,3.2-0.4c0,1.2-0.1,2.5-0.3,3.7c-0.1,0.9-0.5,1.5-1.6,1.5c-0.4,0-0.8,0.1-1.1,0.2
			c-1.2-0.4-2.3,0-3.4,0.1c-0.4-0.1-0.7-0.4-1.1-0.4C225.6,55.6,222.3,54.7,219,55z"/>
		<path id="XMLID_40_" class="st11" d="M227.8,82.9c-2.4-0.4-4.8-0.1-7.3,0.2c0.1-0.7,0.3-1.4,0.4-2.1c0.1-0.2,0.2-0.6,0.3-0.6
			c1.1-0.1,1-0.9,1.2-1.6c0.9-4,1.9-8.1,2.8-12.1c0.4,0.1,0.3,0.4,0.4,0.7c0.9,3.8,1.7,7.5,2.6,11.3c0.1,0.3,0.1,0.7,0.3,0.9
			c0.6,0.9,0.9,1.7-0.5,2.1C227.3,82,227.5,82.5,227.8,82.9z"/>
		<path id="XMLID_39_" class="st8" d="M236.5,50.2c-1.1-0.2-2.1,0.6-3.2,0.4c-0.5,0-0.8-0.2-0.8-0.7c-0.1-1.8-0.4-3.7-0.1-5.5
			c0-0.3,0.2-0.6-0.1-0.8c0.5-1.8,0.9-3.6,1.9-5.3c0.5-0.8,0.7-0.7,1.1,0c1.1,1.5,1.1,3.3,1.6,4.9c0.5,1.7,0.8,3.4,1.2,5.1
			c0.2,0.8,0.2,1.4-0.9,1.5C237,49.9,236.7,50.1,236.5,50.2z"/>
		<path id="XMLID_38_" class="st5" d="M231.2,51.6c-0.4,0.5-0.9,0.2-1.4,0.3c0-0.3,0.3-0.5,0.3-0.9c0-2.4,0-4.9,0.1-7.3
			c0-0.6-0.2-0.8-0.8-0.8c-2.8,0-5.7,0-8.5,0c-0.6,0-1.2,0-1.6-0.4c0-0.3,0.3-0.4,0.4-0.7c0.4-0.2,0.8-0.2,1.2-0.2
			c2.9,0.1,5.8,0.1,8.6,0.2c0.3,0,0.8,0.2,1.1-0.3c-2.1-0.3-4.1-0.3-6.1-0.6c-1.6-0.2-3.3,0-4.8-0.6c0.4-0.5,1-0.3,1.5-0.3
			c0.7,0.1,1.3,0.2,2,0.2c0.3,0,0.7,0.1,0.8-0.4c0.3,0,0.6,0.1,0.8,0.4c-0.1,0-0.2,0-0.3,0.1c0,0-0.1,0.1-0.1,0.2
			c2.1,0.2,4.3,0.3,6.4,0.5c0.5,0.1,0.4,0.5,0.4,0.8c0,1.4,0,2.8,0,4.2c0,0.3-0.2,0.7,0.3,0.9C231,48.6,231.2,50.1,231.2,51.6z"/>
		<path id="XMLID_37_" class="st7" d="M230.1,55.8c1.1-0.1,2.3-0.5,3.4-0.1c0.1,0.7,0,1.4,0.2,2.1c0.3,1.1-0.4,1.5-1.3,1.7
			c-3.8,1-7.6,1-11.3-0.5c-0.1,0-0.1-0.1-0.2-0.1c-0.1-0.1-0.1-0.2-0.2-0.3c2.4,0.2,4.8,0.3,7.2,0.6c1.1,0.1,1.4-0.3,1.3-1.3
			c0.6,0,0.9-0.3,0.9-0.9C230,56.6,230.1,56.2,230.1,55.8z"/>
		<path id="XMLID_36_" class="st7" d="M224.7,40.4c-0.2-0.3-0.5-0.4-0.8-0.4c0.3-0.6,0.4-1.3,0.8-1.9c0.8,1.3,2.2,1.6,3.8,0.8
			c0.4-0.2,0.7-0.5,1.2-0.3c0,0.8,0,1.5,0,2.3C228.1,40.7,226.4,40.5,224.7,40.4z"/>
		<path id="XMLID_35_" class="st7" d="M231.2,51.6c0.1-1.5-0.1-3.1,0.2-4.6c0.1-1.2,0.7-2.3,0.9-3.4c0.3,0.2,0.1,0.5,0.1,0.8
			c-0.3,1.8,0,3.7,0.1,5.5c0,0.5,0.3,0.8,0.8,0.7C233.1,51.7,232.2,52.2,231.2,51.6z"/>
		<path id="XMLID_34_" class="st10" d="M229.8,38.6c-0.5-0.2-0.8,0.1-1.2,0.3c-1.6,0.7-3,0.5-3.8-0.8c0.1-0.7,0.5-1.4,1-1.9
			c0,0.2,0,0.4,0,0.6c-0.5,1.1-0.2,1.5,1,1.5c0.3,0,0.6,0,1,0c1.2-0.1,1.6-0.6,1.5-1.8c0-0.9,0-1.7,0-2.6c0-0.6,0.3-0.8,0.8-0.8
			c-0.4,0.3-0.5,0.6-0.5,1.1C229.6,35.7,229.7,37.1,229.8,38.6z"/>
		<path id="XMLID_33_" class="st10" d="M224.7,40.4c1.7,0.2,3.4,0.3,5,0.5c0.3,0.2,0.7,0,0.9,0.3c-2.1-0.2-4.3-0.3-6.4-0.5
			c0.1-0.1,0.1-0.1,0.1-0.2C224.5,40.4,224.6,40.4,224.7,40.4z"/>
		<path id="XMLID_32_" class="st7" d="M220,84.4c0,0.3,0,0.7-0.4,0.7c-0.4,0-0.4-0.4-0.4-0.8c0-0.4,0.1-0.8,0.5-0.8
			C220.1,83.5,220,84,220,84.4z"/>
		<path id="XMLID_31_" class="st12" d="M220.9,58.9c0.1,0,0.1,0.1,0.2,0.1c-0.3,0.9-1,1.1-2.1,0.8C219.6,59.5,220.5,59.8,220.9,58.9
			z"/>
		<path id="XMLID_30_" class="st9" d="M223.4,30.2c-1.2-0.2-2.1-1.2-2.2-2.4c-0.1-0.8,0.2-1.5,1.1-1.7c-0.3,0.9,0.1,1.4,1,1.7
			c1.6,0.5,3.3,0.7,5,0.5c0.8-0.1,1.2-0.5,1.1-1.3c1.3,0.7,1.3,1.7,0.1,3c-0.1-0.1-0.3-0.1-0.4-0.2
			C227.9,28.7,224.6,28.8,223.4,30.2z"/>
		<path id="XMLID_29_" class="st7" d="M229.5,27c0.1,0.9-0.3,1.2-1.1,1.3c-1.7,0.2-3.4,0-5-0.5c-0.8-0.3-1.2-0.8-1-1.7
			c0.5-0.4,0.8,0,1.2,0.2c1.2,0.6,2.4,0.7,3.7,0.5C228,26.7,228.7,26.5,229.5,27z"/>
		<path id="XMLID_28_" class="st6" d="M223.4,30.2c1.2-1.4,4.5-1.4,5.8-0.4c0.1,0.1,0.2,0.1,0.4,0.2
			C227.7,31.3,224.8,31.4,223.4,30.2z"/>
		<path id="XMLID_27_" class="st9" d="M232.2,21.7c0,0.8-0.2,1.4-1.1,1.4c-0.7,0-0.9-0.6-0.9-1.2c0-0.8,0.5-1.5,1.2-1.5
			C232.2,20.5,232.2,21.2,232.2,21.7z"/>
		<path id="XMLID_26_" class="st13" d="M226.8,20.2c0.1,1-0.2,1.9-0.5,2.8c-0.1,0.2-0.4,0.4-0.6,0.4c-0.7-0.1-1,0-1,0.8
			c0.1,0.8,0.7,0.6,1.2,0.5c-0.1,0.6-0.4,0.8-0.8,0.7c-0.5-0.1-0.8-0.5-0.8-1c0-0.5-0.1-1.2,0.4-1.3c1.5-0.1,1.4-1.2,1.6-2.2
			c0-0.2,0.1-0.5,0.2-0.7C226.6,20.2,226.7,20.2,226.8,20.2z"/>
		<path id="XMLID_25_" class="st9" d="M223.4,20.7c-0.1,0.5-0.2,1.2-1,1.1c-0.6,0-0.8-0.5-0.8-1c0-0.6,0.3-1.1,1-1.2
			C223.3,19.6,223.4,20,223.4,20.7z"/>
		<path id="XMLID_24_" class="st6" d="M233,19.1c0,0.3-0.2,0.4-0.5,0.2c-0.6-0.3-1.2-0.5-1.8-0.5c-0.2,0-0.3-0.1-0.4-0.3
			c0-0.2,0.1-0.3,0.2-0.3c0.9-0.1,1.6,0.1,2.3,0.6C233,18.9,233,19,233,19.1z"/>
		<path id="XMLID_23_" class="st6" d="M223.9,17.8c-0.9,0.3-1.7,0-2.4,0.3c-0.1,0.1-0.3,0-0.3-0.1c-0.1-0.2,0.1-0.3,0.2-0.4
			C222.2,17.2,223,17.1,223.9,17.8z"/>
		<path id="XMLID_22_" class="st6" d="M223.9,9.8c0.3-0.6,0.7-0.8,0.9-0.1c0.2,0.4,0.4,0.5,0.8,0.2c0.6-0.5,0.9-0.2,1.3,0.3
			c1.2,1.3,1.4,3,1.6,4.6c0.1,0.3,0.1,0.8-0.5,0.8c-1-0.1-1.9,0.3-2.8,0.4c-1,0.1-2.1,0-3-0.5c-0.3-0.1-0.6-0.3-0.9-0.3
			c-1.5-0.3-1.5-0.3-1.1-1.8c0.4-1.2,0.8-2.4,1.3-3.6c0.1-0.3,0.3-0.5,0.5-0.7C223,8.2,223.4,8.3,223.9,9.8z"/>
		<path id="XMLID_21_" class="st14" d="M219.1,42.5c0.5,0.4,1,0.4,1.6,0.4c2.8-0.1,5.7,0,8.5,0c0.6,0,0.8,0.3,0.8,0.8
			c0,2.4-0.1,4.9-0.1,7.3c0,0.4-0.3,0.6-0.3,0.9c-2.3,0-4.6,0.4-6.9,0.6c-1,0.1-1.5,0.1-2-0.9c-0.3-0.6-1.1-0.9-1.9-1
			c0-0.9,0-1.7,0-2.6c0-1.4,0-2.9,0-4.3C218.9,43.3,218.8,42.9,219.1,42.5z"/>
		<path id="XMLID_20_" class="st4" d="M219.6,40.4c1.5,0.6,3.2,0.4,4.8,0.6c2,0.2,4,0.2,6.1,0.6c-0.3,0.5-0.7,0.3-1.1,0.3
			c-2.9-0.1-5.8-0.1-8.6-0.2c-0.4,0-0.9-0.1-1.2,0.2C219.3,41.4,219.2,40.9,219.6,40.4z"/>
		<path id="XMLID_19_" class="st14" d="M230.1,55.8c0,0.4,0,0.8,0,1.3c0,0.6-0.2,0.9-0.9,0.9c-3,0-6,0-9,0c-1,0-1.4-0.3-1.2-1.2
			c0.1-0.5,0-1,0-1.5c0-0.1,0-0.1,0-0.2c3.3-0.3,6.7,0.5,10,0.4C229.3,55.4,229.7,55.6,230.1,55.8z"/>
	</g>
	<circle id="XMLID_71_" class="st15" cx="230.9" cy="163.7" r="15.3"/>
	<text id="XMLID_7_" transform="matrix(1 0 0 1 122.5776 44.6647)" class="st16 st17">1998</text>
	<text id="XMLID_75_" transform="matrix(1 0 0 1 296.6233 133.2986)" class="st18 st19">Primary</text>
	<text id="XMLID_78_" transform="matrix(1 0 0 1 251.8416 147.6319)"><tspan x="0" y="0" class="st20 st21">Santiago South Central School </tspan><tspan x="2.8" y="13.2" class="st20 st21">Malvar, Santiago City, Isabela</tspan></text>
	<line id="XMLID_12_" class="st22" x1="230.8" y1="291.6" x2="230.8" y2="339.5"/>
	<circle id="XMLID_73_" class="st23" cx="230.8" cy="339.3" r="15.3"/>
	<line id="XMLID_9_" class="st22" x1="290.3" y1="232.1" x2="381.3" y2="232.1"/>
	<path id="XMLID_8_" class="st22" d="M230.8,295.1c34.8,0,63-28.2,63-63"/>
	<circle id="XMLID_3_" class="st24" cx="232.5" cy="235.2" r="45.5"/>
	<path id="XMLID_70_" class="st7" d="M79.5,279c0-0.2,0-0.4,0.3-0.4c0,0,0.1,0,0.1,0.1C79.9,279,79.7,279,79.5,279L79.5,279z"/>
	<g id="XMLID_68_">
		<path id="XMLID_199_" class="st25" d="M242.3,265.2c1.5,0.4,3.1,0.8,4.6,1.2c0.6,0.2,1,0.6,1.3,1.2c0.2,0.4,0,0.8-0.5,0.9
			c-0.4,0.1-0.7,0.1-1.1,0.1c-2.3,0-4.5-0.3-6.7-0.7c-0.9-0.2-1.9-0.4-2.8-0.5c-0.4-0.1-0.5-0.2-0.5-0.6c0-0.6,0-1.1,0.2-1.6
			c0.1,0,0.1,0,0.2,0c1.2,0.2,2.4,0.2,3.6,0.2C241.1,265.3,241.7,265.2,242.3,265.2z"/>
		<path id="XMLID_198_" class="st25" d="M231.2,265.2c0.2,0.6,0.2,1.2,0.1,1.8c0,0.1,0,0.2-0.2,0.2c-3.2,0.6-6.4,1.3-9.7,1.3
			c-0.3,0-0.6,0-0.9-0.1c-0.6-0.1-0.8-0.5-0.5-1c0.2-0.5,0.6-0.9,1.2-1.1c1.5-0.4,3-0.8,4.5-1.2c0.2,0,0.3,0,0.5,0
			c0.8,0.1,1.6,0.2,2.4,0.2C229.4,265.4,230.3,265.2,231.2,265.2z"/>
		<path id="XMLID_195_" class="st26" d="M242.3,265.2c-0.6-0.1-1.2,0.1-1.8,0.1c-1.2,0.1-2.4,0-3.6-0.2c-0.1,0-0.1,0-0.2,0
			c-0.8-0.2-0.8-0.2-0.8-1c0,0,0-0.1,0-0.1c0.1-0.8,0.1-0.8,0.9-0.6c0.9,0.1,1.9,0.2,2.8,0.2c0.8,0,1.5-0.1,2.3-0.2
			c0.4-0.1,0.8-0.1,1.2-0.2c0.2,0,0.4,0,0.3,0.3c-0.1,0.4-0.1,0.8-0.1,1.1c0,0.3-0.2,0.5-0.5,0.5
			C242.6,265.1,242.4,265.1,242.3,265.2z"/>
		<path id="XMLID_194_" class="st26" d="M231.2,265.2c-0.9,0-1.8,0.2-2.7,0.2c-0.8,0-1.6-0.1-2.4-0.2c-0.2,0-0.3,0-0.5,0
			c-0.1-0.1-0.2-0.1-0.3-0.1c-0.4,0-0.5-0.2-0.6-0.6c0-0.3,0-0.7-0.1-1c-0.1-0.4,0.1-0.4,0.4-0.3c0.2,0.1,0.5,0.1,0.7,0.1
			c0.6,0.2,1.2,0.2,1.7,0.3c1.2,0.1,2.4,0.1,3.6-0.2c0,0,0,0,0.1-0.1c0.1,0,0.2,0,0.3,0c0.5-0.1,0.5-0.1,0.6,0.4
			c0,0.4,0.1,0.7,0,1.1C231.9,265.3,231.4,265,231.2,265.2z"/>
		<g id="XMLID_13_">
			<path id="XMLID_218_" class="st27" d="M241.7,180.3c0.5,0.2,1.1,0.2,1.7,0.2c1.5,0.2,2.6,1.1,3.5,2.2c1.2,1.4,1.9,3.1,2.6,4.7
				c1.2,2.8,2,5.7,2.8,8.6c0.4,1.4,0.8,2.8,1.1,4.2c0.3,1.2,0.2,2.3-0.2,3.4c-0.4,1.1-0.9,2.2-1.4,3.2c-1.3,2.4-2.9,4.6-4.4,6.8
				c-0.9-0.4-1.8-0.7-2.7-1.1c0.1-0.3,0.3-0.5,0.4-0.8c1.2-2,2-4.2,2.9-6.3c0.2-0.3,0.2-0.6,0-1c-1-2.6-2-5.1-2.9-7.7
				c-0.4-1-0.7-1.9-1.1-2.9c0,0-0.1,0-0.1,0c0.1,6.2,0.3,12.5,0.4,18.7c-0.1,0.1-0.3,0.1-0.4,0.2c-0.9,0.3-1.8,0.5-2.6,1
				c-0.5,0.3-1.1,0.5-1.6,0.8c-0.8,0.1-1.5,0.2-2.3,0.2c-1.2,0.1-2.4,0.3-3.6,0.4c-1.4,0.1-2.8-0.1-4.1-0.2c-0.4,0-0.8,0-1.1-0.2
				c0.1-0.2-0.1-0.2-0.2-0.2c-1.5-0.8-3-1.5-4.6-1.9c-0.2-0.1-0.4-0.1-0.6,0c-0.6,0.3-1.2,0.5-1.7,0.8c-0.3,0.1-0.5,0.1-0.6-0.2
				c-0.5-0.8-1-1.6-1.6-2.4c0-0.1-0.1-0.2-0.1-0.3c-0.4-0.7-0.9-1.3-1.3-2c-1.2-1.8-2.4-3.7-2.9-5.9c-0.3-1-0.2-2,0.2-3.1
				c0.2-0.6,0.4-1.3,0.5-1.9c0.2-0.5,0.3-1,0.4-1.5c0.3-0.8,0.4-1.7,0.6-2.6c0.8-3.4,1.4-6.8,3.1-9.9c0.6-1.1,1.3-2.1,2.4-2.7
				c0.5,0.7,0.7,1.5,0.9,2.3c1,3.1,1.7,6.3,2,9.5c0.1,1.6,0.2,3.3,0.1,4.9c-0.1,1.4-0.3,2.9-0.6,4.3c-0.2,0.9-0.4,1.7-0.8,2.6
				c0-0.4,0-0.8,0-1.2c0-1.9,0.1-3.9,0.1-5.8c0.1-1,0.1-1.9,0.1-2.9c-0.2,0.4-0.4,0.8-0.5,1.3c-0.1,0.2-0.2,0.4-0.1,0.6
				c-0.1,0.1-0.2,0.2-0.2,0.3c-0.9,2.3-1.7,4.5-2.6,6.7c-0.3,0.8-0.5,1.5,0,2.2c0,0,0,0.1,0,0.1c0.7,1.6,1.3,3.2,2.1,4.8
				c0.2,0.4,0.4,0.9,0.8,1.3c-0.2-1,0.1-1.9,0.7-2.7c0.1-0.2,0.2-0.3,0.3-0.5c1.4-2.7,2.4-5.5,3.1-8.5c0.4-1.8,0.7-3.6,0.8-5.4
				c0.1-1.4,0.1-2.8,0-4.1c-0.1-1.2-0.3-2.5-0.5-3.7c-0.5-2.4-1.4-4.7-2.6-6.9c0.4-0.1,0.8-0.2,1.3-0.3c0,0.2,0,0.3,0.1,0.5
				c0.2,0.4,0.4,0.9,0.6,1.3c0.9,1.8,2,3.5,3.5,4.9c2,1.7,4.2,1.8,6.3,0.2c1.4-1.1,2.5-2.5,3.4-4.1
				C240.8,182.1,241.2,181.2,241.7,180.3z"/>
			<path id="XMLID_217_" class="st28" d="M236.7,263.4c0-2.3,0-4.6-0.1-7c0-1.4,0-2.8,0-4.3c0-2.6-0.1-5.2-0.2-7.8
				c0-1.8-0.1-3.6-0.2-5.5c-0.1-3-0.2-5.9-0.3-8.9c-0.1-2.1-0.2-4.1-0.3-6.2c0-0.3-0.1-0.4-0.4-0.4c-0.8,0-1.5,0-2.3-0.1
				c-0.3,0-0.4,0.1-0.4,0.3c-0.1,2.1-0.2,4.2-0.3,6.4c-0.2,3-0.3,6-0.4,9c-0.1,2.1-0.2,4.2-0.2,6.3c-0.1,2.5-0.2,4.9-0.2,7.4
				c-0.1,1.9-0.1,3.8-0.2,5.7c0,1.7-0.1,3.3-0.1,5c0,0,0,0-0.1,0.1c-1.2,0.2-2.4,0.2-3.6,0.2c-0.6,0-1.2-0.1-1.7-0.3
				c-0.1-1-0.1-2.1-0.2-3.1c-0.2-2.4-0.3-4.9-0.5-7.3c-0.1-1.5-0.2-2.9-0.3-4.4c-0.2-2.7-0.3-5.3-0.5-8c-0.1-1.6-0.2-3.3-0.3-4.9
				c-0.2-2.9-0.3-5.7-0.5-8.6c-0.1-1.4-0.1-2.7-0.2-4.1c-0.1-1.5-0.1-3-0.6-4.4c0-0.1-0.1-0.2-0.1-0.3c0-0.2-0.1-0.4-0.1-0.6
				c0.2-0.2,0.5-0.4,0.8-0.6c0.6-0.4,1.2-0.9,1.8-1.3c0.2-0.1,0.4-0.2,0.5-0.4c0.3-0.2,0.6,0.1,0.8,0.2c0.9,0.2,1.8,0.3,2.8,0.4
				c0.8,0.1,1.5,0.1,2.3,0.2c0.9,0.1,1.8,0.1,2.8,0.1c1.4,0,2.7-0.1,4.1-0.3c0.9-0.1,1.9-0.2,2.8-0.3c0.4,0,0.8-0.4,1.2-0.2
				c0,0.1,0.1,0.1,0.1,0.2c1,0.7,2,1.3,3,2c0.2,1.9-0.1,3.7-0.3,5.5c-0.1,1.5-0.3,3.1-0.4,4.6c-0.2,1.9-0.4,3.8-0.5,5.7
				c-0.1,1.6-0.3,3.2-0.4,4.8c-0.2,1.9-0.4,3.9-0.5,5.8c-0.1,1.6-0.3,3.3-0.4,4.9c-0.2,2-0.4,4-0.5,6c-0.1,1.7-0.3,3.3-0.4,5
				c-0.1,1.2-0.2,2.3-0.3,3.5c-0.8,0.1-1.5,0.2-2.3,0.2C238.6,263.6,237.7,263.5,236.7,263.4z"/>
			<path id="XMLID_214_" class="st29" d="M215.4,198c0,0.7-0.2,1.3-0.5,1.9c-0.4,1-0.4,2-0.2,3.1c0.6,2.2,1.7,4,2.9,5.9
				c0.4,0.7,0.9,1.3,1.3,2c0.1,0.1,0.1,0.2,0.1,0.3c0,0.1,0,0.3,0,0.4c0.1,0.8,0.1,1.6,0.1,2.4c0,1.4,0,2.7-0.1,4.1
				c0,0.6-0.1,1.1-0.1,1.7c-0.6,0.2-1.2,0.3-1.8,0.3c-2.2,0.1-4.3,0-6.3-1c-1.9-1-2.9-2.6-3.1-4.7c-0.3-2.5,0.4-4.9,1.4-7.2
				c0.5-1.1,0.6-2.2,0.7-3.4c0-1.2,0.1-2.4,0.1-3.6c0-0.3,0.2-0.4,0.4-0.6c0.9-0.8,1.9-1.5,2.8-2.3c0.4-0.4,0.4-0.3,0-0.8
				c-1-1.1-1.8-2.3-2-3.8c-0.2-1.4,0.6-2.2,2-1.9c0.8,0.1,1.5,0.5,2.1,0.9c0.3,0.2,0.4,0.1,0.4-0.2c0.7-2.6,1.5-5,2.9-7.3
				c0.7-1.2,1.5-2.2,2.6-3.1c0.2-0.2,0.4-0.3,0.7-0.4c0,0.1,0.1,0.2,0.1,0.4c-1.1,0.7-1.8,1.6-2.4,2.7c-1.7,3.1-2.3,6.6-3.1,9.9
				c-0.2,0.9-0.4,1.7-0.6,2.6c-0.3,0-0.6,0.2-0.9,0.3c-0.1,0-0.2,0.1-0.1,0.2C214.9,197.3,215.1,197.7,215.4,198z M213.4,192
				c-0.8,0-1,0.3-1,0.9c0,0.3,0.1,0.6,0.2,0.9c0.4,0.9,0.9,1.7,1.6,2.4c0.1,0.1,0.1,0.3,0.3,0.2c0.2-0.1,0.3-0.2,0.3-0.4
				c0.2-1,0.4-2,0.6-2.9c0-0.1,0.1-0.3-0.1-0.3C214.6,192.3,213.9,192,213.4,192z"/>
			<path id="XMLID_206_" class="st30" d="M231.1,178c0-0.5,0-1,0-1.5c0-0.2,0-0.3-0.2-0.3c-2.3-0.9-3.6-2.6-4.4-4.8
				c-0.2-0.6-0.4-1.2-0.5-1.8c0-0.1,0-0.3-0.2-0.3c-1-0.2-1.3-1-1.6-1.8c-0.2-0.6-0.1-1.1,0.1-1.6c0.1-0.2,0.2-0.3,0.4-0.4
				c0.4,0.8,0.8,1.7,1.5,2.4c-0.1-1.9,0.1-3.7,0.4-5.5c0-0.2,0.1-0.3,0.3-0.5c0.7-0.5,1.3-1,1.9-1.6c0.2-0.2,0.3-0.1,0.4,0.1
				c0.1,0.4,0.4,0.8,0.6,1.1c1.1,1.4,2.6,2.2,4.2,2.6c0.2,0,0.3,0.1,0.5,0c-0.1-0.1-0.1-0.2-0.2-0.3c-0.4-0.7-0.8-1.5-0.9-2.3
				c-0.1-0.4-0.1-0.8,0.3-1.2c0.1,1,0.5,1.8,1.1,2.5c0.3,0.3,0.6,0.6,0.3,1.1c0,0,0,0.1,0,0.1c0,0.5,0.2,0.6,0.6,0.4
				c0.2-0.1,0.4-0.1,0.6,0c0,0,0,0.1,0.1,0c0,0,0,0-0.1,0c0-0.1,0-0.2,0.2-0.3c0.3-0.1,0.6,0,0.9-0.1c0.3,0,0.5,0.1,0.7,0.3
				c0.3,0.5,0.7,0.9,1.2,1.3c-0.2-0.6,0-1.3,0-1.9c0-0.6,0.1-1.2,0.2-1.7c0-0.1,0-0.3,0.1-0.3c0.2,0,0.2,0.2,0.2,0.3
				c0.2,1.7,0.4,3.3,0.4,5c0,0.2,0,0.3,0,0.6c0.8-0.8,1.2-1.7,1.6-2.6c0.8,0.5,0.9,1.2,0.8,2.1c-0.2,0.7-0.4,1.5-1.2,1.8
				c-0.6,0.2-0.6,0.6-0.7,1.1c-0.3,1.6-0.8,3.2-2,4.5c-0.6,0.6-1.2,1.2-2,1.5c-0.3,0.1-0.4,0.2-0.4,0.6c0,0.4,0,0.9,0,1.3
				c0,0.1,0,0.1,0,0.2c0,0.2,0,0.5,0,0.7c-0.8,0.8-1.5,1.5-2.3,2.3c-0.2,0.2-0.3,0.1-0.4,0c-0.7-0.7-1.4-1.5-2.2-2.2
				c-0.2-0.2-0.3-0.4-0.3-0.7C231.1,178.2,231.1,178.1,231.1,178z M237.7,165.8c0.2,0,0.3,0.1,0.5,0.1c-0.9-1.1-2.3-0.7-2.7,0.2
				c0.2,0,0.4-0.3,0.6-0.2c-0.2,0.7-0.2,1,0.1,1.4c0.4,0.6,1,0.6,1.4,0C237.8,166.8,237.8,166.3,237.7,165.8
				C237.6,165.8,237.7,165.8,237.7,165.8z M230.9,166.1c-0.5-0.5-1-0.8-1.7-0.7c-0.5,0.1-0.8,0.3-1.2,0.8c0.4-0.1,0.6-0.3,0.9-0.3
				c-0.2,0.4-0.3,0.8-0.1,1.3c0.1,0.4,0.4,0.7,0.8,0.7c0.4,0,0.6-0.3,0.8-0.7c0.1-0.4,0-0.8-0.1-1.2
				C230.6,165.9,230.7,166.2,230.9,166.1z M227.1,164.8c1.8-0.4,2.1-0.4,4,0.1c0.2,0.1,0.3,0,0.3-0.2c0.3-0.5-0.1-1.1-0.7-1.2
				c-0.2,0-0.5,0-0.7,0c-0.9,0.1-1.8,0.2-2.6,0.7C227.3,164.4,227.1,164.5,227.1,164.8z M235.5,172.1c0-0.2,0-0.3-0.1-0.4
				c-0.2-0.1-0.3,0-0.5,0.1c-1.2,0.9-2.4,0.7-3.4,0c-0.2-0.1-0.4-0.3-0.6,0c-0.2,0.2-0.1,0.4,0.1,0.6c1.3,1,3,1.1,4.3,0.1
				C235.4,172.3,235.5,172.2,235.5,172.1z M232.2,168.1c0,0-0.1,0-0.1,0c-0.4,0.3-0.7,0.6-0.9,1c-0.1,0.2,0,0.3,0.1,0.4
				c0.3,0.3,0.6,0.6,1,0.8c0.1,0.1,0.2,0.1,0.3,0c0.1-0.1,0-0.2-0.1-0.3c-0.2-0.2-0.5-0.3-0.7-0.5c-0.2-0.1-0.3-0.3-0.1-0.5
				c0.2-0.2,0.3-0.4,0.6-0.6c0.1-0.1,0.1-0.1,0.1-0.2C232.3,168.2,232.3,168.1,232.2,168.1z M232.5,166.9c0-0.5-0.2-1-0.4-1.4
				c-0.1-0.1-0.1-0.3-0.3-0.2c-0.1,0.1,0,0.2,0,0.3c0.2,0.5,0.5,1,0.3,1.6c0,0.1,0,0.2,0.1,0.2c0.1,0,0.2-0.1,0.2-0.2
				C232.5,167.1,232.5,167,232.5,166.9z"/>
			<path id="XMLID_203_" class="st31" d="M236.2,164.6c-0.2-0.2-0.4-0.1-0.6,0c-0.5,0.2-0.6,0.1-0.6-0.4c0,0,0-0.1,0-0.1
				c0.3-0.5-0.1-0.8-0.3-1.1c-0.6-0.7-1-1.5-1.1-2.5c-0.3,0.4-0.3,0.8-0.3,1.2c0.1,0.9,0.5,1.6,0.9,2.3c0.1,0.1,0.1,0.2,0.2,0.3
				c-0.2,0.1-0.4,0-0.5,0c-1.7-0.5-3.1-1.2-4.2-2.6c-0.3-0.3-0.5-0.7-0.6-1.1c-0.1-0.2-0.2-0.3-0.4-0.1c-0.6,0.6-1.2,1.1-1.9,1.6
				c-0.2,0.1-0.2,0.3-0.3,0.5c-0.3,1.8-0.4,3.6-0.4,5.5c-0.7-0.7-1.1-1.6-1.5-2.4c-0.3-1-0.5-2-0.6-3c-0.1-2-0.1-4,1.1-5.8
				c0.5-0.7,1-1.4,1.8-1.8c0,0,0.1,0,0.1-0.1c1-1.1,2.4-1.5,3.9-1.8c1.8-0.3,3.6-0.3,5.4,0.3c0.8,0.3,1.5,0.6,2,1.3
				c0.1,0.1,0.1,0.1,0.2,0.1c1,0.1,1.6,0.7,2.1,1.4c1.1,1.5,1.5,3.2,1.5,5c0,1.4-0.2,2.8-0.6,4.1c-0.3,0.9-0.8,1.8-1.6,2.6
				c0-0.3,0-0.4,0-0.6c0-1.7-0.1-3.3-0.4-5c0-0.1-0.1-0.3-0.2-0.3c-0.1,0-0.1,0.2-0.1,0.3c-0.1,0.6-0.2,1.2-0.2,1.7
				c0,0.6-0.2,1.3,0,1.9c-0.5-0.4-0.9-0.8-1.2-1.3c-0.2-0.3-0.4-0.4-0.7-0.3c-0.3,0-0.6,0-0.9,0.1
				C236.3,164.4,236.2,164.5,236.2,164.6L236.2,164.6z M236.8,161.2c-0.5,0.4-1,1.4-0.8,2c0,0.1,0.1,0.2,0.2,0.2
				c0.4,0,0.8,0.1,1.2,0.1C237,162.8,236.8,162,236.8,161.2z"/>
			<path id="XMLID_202_" class="st32" d="M222,181.2c0-0.1-0.1-0.3-0.1-0.4c0.8-0.4,1.6-0.8,2.4-1.3c0.2-0.1,0.3,0,0.4,0.1
				c0.1,0.3,0.3,0.5,0.4,0.7c1.1,2.2,2,4.5,2.6,6.9c0.3,1.2,0.4,2.4,0.5,3.7c0.1,1.4,0.1,2.8,0,4.1c-0.1,1.8-0.4,3.6-0.8,5.4
				c-0.7,2.9-1.8,5.8-3.1,8.5c-0.1,0.2-0.2,0.4-0.3,0.5c-0.5,0.8-0.8,1.7-0.7,2.7c-0.4-0.4-0.6-0.8-0.8-1.3
				c-0.8-1.5-1.4-3.2-2.1-4.8c0,0,0-0.1,0-0.1c-0.6-0.7-0.3-1.5,0-2.2c0.9-2.2,1.7-4.5,2.6-6.7c0-0.1,0.1-0.3,0.2-0.3
				c0.2,0.3,0.4,0.7,0.6,1c0,1.9-0.1,3.9-0.1,5.8c0,0.4,0,0.8,0,1.2c0.3-0.8,0.6-1.7,0.8-2.6c0.3-1.4,0.5-2.8,0.6-4.3
				c0.1-1.6,0.1-3.3-0.1-4.9c-0.3-3.2-1-6.4-2-9.5C222.6,182.8,222.4,182,222,181.2z"/>
			<path id="XMLID_201_" class="st33" d="M241.7,180.3c-0.5,0.9-0.9,1.8-1.4,2.6c-0.9,1.5-2,3-3.4,4.1c-2.1,1.6-4.3,1.5-6.3-0.2
				c-1.6-1.4-2.6-3.1-3.5-4.9c-0.2-0.4-0.4-0.9-0.6-1.3c-0.1-0.2-0.1-0.3-0.1-0.5c0,0,0,0,0,0c0.1,0,0.1,0,0.2-0.1
				c0.2-0.3,0.6-0.3,0.9-0.5c0.2-0.1,0.4-0.2,0.6-0.3c0.1,0,0.1,0.1,0.2,0.2c1,1.5,2,3,3,4.5c0.1,0.2,0.2,0.5,0.5,0.6
				c0.1,0.2,0,0.4,0.2,0.6c0.1,0,0.1-0.1,0.2-0.2c0.5-0.8,1.1-1.6,1.6-2.5c0.2-0.3,0.3-0.2,0.4,0c0.3,0.5,0.6,1,1,1.5
				c0.2,0.4,0.4,0.7,0.7,1.1c0.1-0.2,0.2-0.4,0.2-0.5c0,0,0.1-0.1,0.1-0.1c1.2-1.8,2.4-3.5,3.6-5.3c0.7,0.3,1.4,0.6,2,1
				C241.6,180.2,241.7,180.3,241.7,180.3z"/>
			<path id="XMLID_200_" class="st34" d="M231.7,184.6c-0.2-0.2-0.3-0.4-0.5-0.6c-1-1.5-2-3-3-4.5c-0.1-0.1-0.1-0.2-0.2-0.2
				c-0.1-0.2-0.1-0.4,0.2-0.5c0.5-0.2,1-0.5,1.5-0.8c0.2-0.1,0.4-0.1,0.6,0c0.1,0.3,0.3,0.5,0.7,0.3c0,0.3,0.1,0.5,0.3,0.7
				c0.7,0.7,1.5,1.4,2.2,2.2c0.2,0.2,0.3,0.2,0.4,0c0.8-0.8,1.5-1.5,2.3-2.3c0.2-0.2,0.4-0.3,0.5-0.6c0.2,0,0.3-0.2,0.4-0.3
				c0.2-0.2,0.3-0.2,0.6,0c0.6,0.3,1.1,0.6,1.7,0.8c0.2,0.1,0.3,0.2,0.1,0.4c-1.2,1.8-2.4,3.5-3.6,5.3c0,0-0.1,0.1-0.1,0.1
				c-0.6-0.9-1.3-1.8-1.9-2.8c-0.2-0.2-0.2-0.3-0.4,0C232.9,182.8,232.3,183.7,231.7,184.6z"/>
			<path id="XMLID_197_" class="st30" d="M245.6,217.6c-1-0.7-2-1.3-3-2c-0.1,0-0.1-0.1-0.1-0.2c0.1-0.2,0.3-0.4,0.4-0.7
				c-0.1,0-0.3,0-0.4,0c-0.7,0.1-1.4,0.3-2,0.4c-0.3,0.1-0.5,0-0.7-0.2c-0.2-0.1-0.2-0.2,0-0.3c0.5-0.3,1.1-0.5,1.6-0.8
				c0.8-0.4,1.7-0.7,2.6-1c0.1,0,0.3-0.1,0.4-0.2c0.1,0,0.2,0,0.3,0c0.9,0.3,1.8,0.7,2.7,1.1c-0.4,1-0.9,1.9-1.3,2.9
				C245.9,217,245.8,217.3,245.6,217.6z"/>
			<path id="XMLID_196_" class="st32" d="M219.1,219.7c0-0.6,0.1-1.1,0.1-1.7c0.1-1.3,0.1-2.7,0.1-4.1c0-0.8-0.1-1.6-0.1-2.4
				c0-0.1,0-0.3,0-0.4c0.6,0.7,1.1,1.5,1.6,2.4c-0.3,0.1-0.1,0.2,0,0.3c0.3,0.7,0.6,1.4,1,2.1c0.3,0.6,0.5,1.2,0.9,1.8
				c0,0.2,0.1,0.4,0.1,0.6c-1,0.6-2,1.1-3.2,1.4C219.4,219.7,219.2,219.7,219.1,219.7z"/>
			<path id="XMLID_193_" class="st27" d="M231.1,178.4c-0.4,0.2-0.5,0-0.7-0.3c0.2,0,0.5,0,0.7,0
				C231.1,178.1,231.1,178.2,231.1,178.4z"/>
			<path id="XMLID_192_" class="st27" d="M237.2,178c-0.1,0.2-0.2,0.3-0.4,0.3c-0.2,0-0.4-0.1-0.5-0.1c0-0.1,0-0.1,0-0.2
				C236.6,178,236.9,178,237.2,178z"/>
			<path id="XMLID_191_" class="st27" d="M226.5,180.1c0,0.1-0.1,0.1-0.2,0.1C226.3,180,226.4,180.1,226.5,180.1z"/>
			<path id="XMLID_189_" class="st30" d="M222.6,217.7c-0.4-0.5-0.6-1.2-0.9-1.8c-0.3-0.7-0.7-1.4-1-2.1c0-0.1-0.2-0.3,0-0.3
				c0.2,0.3,0.3,0.3,0.6,0.2c0.6-0.3,1.2-0.5,1.7-0.8c0.2-0.1,0.4-0.1,0.6,0c1.6,0.4,3.1,1.1,4.6,1.9c0.1,0,0.3,0,0.2,0.2
				c-0.3,0.3-0.7,0.3-1.1,0.2c-0.4-0.1-0.8-0.2-1.2-0.3c-0.3-0.1-0.6-0.2-1-0.2c0.2,0.3,0.3,0.5,0.5,0.7c-0.1,0.2-0.3,0.3-0.5,0.4
				c-0.6,0.4-1.2,0.9-1.8,1.3C223.1,217.3,222.8,217.4,222.6,217.7z"/>
			<path id="XMLID_188_" class="st35" d="M225.7,215.4c-0.1-0.2-0.3-0.4-0.5-0.7c0.4,0,0.7,0.1,1,0.2c0.4,0.1,0.8,0.1,1.2,0.3
				c0.4,0.1,0.8,0.1,1.1-0.2c0.3,0.2,0.7,0.2,1.1,0.2c1.4,0.1,2.8,0.3,4.1,0.2c1.2-0.1,2.4-0.2,3.6-0.4c0.8-0.1,1.5-0.2,2.3-0.2
				c-0.2,0.1-0.2,0.2,0,0.3c0.2,0.1,0.4,0.2,0.7,0.2c0.7-0.2,1.4-0.3,2-0.4c0.1,0,0.2-0.1,0.4,0c-0.1,0.3-0.3,0.5-0.4,0.7
				c-0.4-0.2-0.8,0.2-1.2,0.2c-0.9,0.1-1.9,0.2-2.8,0.3c-1.4,0.2-2.7,0.3-4.1,0.3c-0.9,0-1.8,0-2.8-0.1c-0.8-0.1-1.5-0.1-2.3-0.2
				c-0.9-0.1-1.8-0.2-2.8-0.4C226.2,215.5,226,215.2,225.7,215.4z"/>
			<path id="XMLID_186_" class="st32" d="M215.4,198c-0.3-0.3-0.5-0.7-0.7-1c-0.1-0.1,0-0.2,0.1-0.2c0.3-0.1,0.6-0.3,0.9-0.3
				C215.7,197,215.6,197.5,215.4,198z"/>
			<path id="XMLID_184_" class="st36" d="M230.9,166.1c-0.3,0.1-0.4-0.2-0.6-0.1c0.1,0.4,0.2,0.8,0.1,1.2c-0.1,0.4-0.4,0.7-0.8,0.7
				c-0.4,0-0.7-0.2-0.8-0.7c-0.1-0.4-0.1-0.8,0.1-1.3c-0.3,0-0.5,0.2-0.9,0.3c0.3-0.5,0.7-0.7,1.2-0.8
				C229.9,165.3,230.4,165.6,230.9,166.1z"/>
			<path id="XMLID_183_" class="st36" d="M237.6,165.9c0.2,0.5,0.2,0.9,0,1.4c-0.3,0.6-1,0.6-1.4,0c-0.2-0.4-0.3-0.7-0.1-1.4
				c-0.3-0.1-0.4,0.2-0.6,0.2c0.5-0.9,1.9-1.3,2.7-0.2C238,165.9,237.9,165.8,237.6,165.9C237.7,165.8,237.6,165.8,237.6,165.9
				C237.6,165.8,237.6,165.8,237.6,165.9z"/>
			<path id="XMLID_182_" class="st31" d="M227.1,164.8c0-0.3,0.2-0.4,0.4-0.5c0.8-0.4,1.7-0.6,2.6-0.7c0.2,0,0.5,0,0.7,0
				c0.6,0,1,0.6,0.7,1.2c-0.1,0.1-0.2,0.2-0.3,0.2C229.3,164.4,228.9,164.4,227.1,164.8z"/>
			<path id="XMLID_181_" class="st37" d="M235.5,172.1c0,0.1,0,0.3-0.2,0.4c-1.4,1-3,0.9-4.3-0.1c-0.2-0.2-0.3-0.4-0.1-0.6
				c0.2-0.2,0.4-0.1,0.6,0c1,0.8,2.2,0.9,3.4,0c0.1-0.1,0.3-0.2,0.5-0.1C235.5,171.8,235.5,171.9,235.5,172.1z"/>
			<path id="XMLID_180_" class="st37" d="M232.2,168.1c0.1,0,0.1,0,0.2,0.1c0,0.1,0,0.2-0.1,0.2c-0.2,0.1-0.4,0.4-0.6,0.6
				c-0.2,0.2-0.1,0.4,0.1,0.5c0.2,0.2,0.5,0.3,0.7,0.5c0.1,0.1,0.2,0.1,0.1,0.3c-0.1,0.1-0.2,0.1-0.3,0c-0.4-0.2-0.7-0.4-1-0.8
				c-0.1-0.1-0.2-0.3-0.1-0.4c0.2-0.4,0.5-0.7,0.9-1C232.1,168.2,232.2,168.2,232.2,168.1z"/>
			<path id="XMLID_179_" class="st37" d="M232.5,166.9c0,0.1,0,0.2,0,0.4c0,0.1-0.1,0.2-0.2,0.2c-0.1,0-0.1-0.1-0.1-0.2
				c0.2-0.6-0.1-1.1-0.3-1.6c-0.1-0.1-0.2-0.3,0-0.3c0.2-0.1,0.2,0.1,0.3,0.2C232.4,165.9,232.6,166.3,232.5,166.9z"/>
			<path id="XMLID_178_" class="st33" d="M236.3,178.2c0.2,0,0.3,0.1,0.5,0.1c-0.1,0.3-0.3,0.4-0.5,0.6
				C236.2,178.7,236.2,178.5,236.3,178.2z"/>
			<path id="XMLID_177_" class="st31" d="M236.2,164.6C236.3,164.6,236.3,164.7,236.2,164.6C236.2,164.7,236.3,164.7,236.2,164.6
				C236.2,164.6,236.2,164.6,236.2,164.6z"/>
			<path id="XMLID_176_" class="st30" d="M236.8,161.2c0.1,0.8,0.2,1.5,0.6,2.2c-0.4,0-0.8-0.1-1.2-0.1c-0.1,0-0.2-0.1-0.2-0.2
				C235.8,162.7,236.3,161.6,236.8,161.2z"/>
			<path id="XMLID_175_" class="st38" d="M231.7,184.6c0.6-0.9,1.3-1.9,1.9-2.8c0.2-0.3,0.2-0.2,0.4,0c0.6,0.9,1.2,1.9,1.9,2.8
				c0,0.2-0.1,0.3-0.2,0.5c-0.3-0.3-0.5-0.7-0.7-1.1c-0.3-0.5-0.7-1-1-1.5c-0.1-0.2-0.2-0.3-0.4,0c-0.5,0.8-1,1.6-1.6,2.5
				c0,0.1-0.1,0.2-0.2,0.2C231.7,185,231.7,184.8,231.7,184.6z"/>
			<path id="XMLID_174_" class="st30" d="M237.6,165.9C237.6,165.8,237.6,165.8,237.6,165.9C237.6,165.8,237.7,165.8,237.6,165.9
				C237.7,165.8,237.6,165.8,237.6,165.9z"/>
		</g>
	</g>
	<text id="XMLID_72_" transform="matrix(1 0 0 1 313.6208 219.0328)" class="st16 st17">2004</text>
	<text id="XMLID_79_" transform="matrix(1 0 0 1 72.6665 301.3333)" class="st18 st19">Secondary</text>
	<text id="XMLID_81_" transform="matrix(1 0 0 1 9.6807 317.2402)"><tspan x="0" y="0" class="st20 st21">Univeristy of La Sallete High School Dept. </tspan><tspan x="30.7" y="13.2" class="st20 st21">Malvar, Santiago City, Isabela</tspan></text>
	<line id="XMLID_17_" class="st39" x1="169.6" y1="420.2" x2="78.6" y2="420.2"/>
	<line id="XMLID_76_" class="st39" x1="319.6" y1="420.2" x2="228.6" y2="420.2"/>
	<line id="XMLID_16_" class="st39" x1="229.1" y1="479.7" x2="229.1" y2="525.6"/>
	<path id="XMLID_15_" class="st39" d="M166.1,420.2c0,34.8,28.2,63,63,63"/>
	<circle id="XMLID_4_" class="st40" cx="224" cy="423.6" r="45.5"/>
	<g id="XMLID_69_">
		<path id="XMLID_308_" class="st41" d="M220.7,441.9c-0.1,0.2-0.2,0.5-0.3,0.7c-0.5,1.6-0.9,1.8-2.5,1.6c-0.3,0-0.5-0.1-0.8-0.1
			c-1-0.2-1.9-0.6-2.8-0.6c-0.5-0.4-1.3-0.4-1.4-1.3c0.6-3.8,1.1-7.6,1.7-11.4c1.2-8.5,2.4-16.9,3.6-25.4c0.5-3.2,1.3-6.3,1.9-9.5
			c0.1-0.5,0.2-1,0.2-1.6c0.1,0,0.2,0,0.2,0.1c0.2,0.1,0.3,0.1,0.5,0.2l0,0c0.2,0.9,1.1,0.9,1.7,1c1.8,0.1,3.6,0.2,5.3,0
			c2.3-0.3,4.6-1,6.9-1.5c-0.1,1.4-0.2,2.9-0.3,4.3c-0.1,1.1,0.4,1.7,1.6,1.8c0.9,0.1,1.8,0.2,2.7,0.3c-0.3,4.6-0.5,9.1-0.8,13.7
			c-0.2,4.1-0.3,8.1-0.6,12.2c-0.1,2-0.2,3.9-0.3,5.9c-0.2,4-0.5,8-0.7,12c-0.3,0-0.5,0.1-0.8,0.1c-1,0-2-0.2-3,0.1
			c-2-0.3-2.2-0.5-2.3-2.5c0.3-3.6,0.6-7.2,0.8-10.7c0.4-6,0.7-12,1-18c0.2-3.5,0.3-6.9,0-10.4c0-0.5,0-1.2-0.7-1.3
			c-0.6-0.1-0.9,0.5-1.1,1c-0.9,1.6-1.6,3.4-2.1,5.2C225.4,419,223.3,430.5,220.7,441.9z"/>
		<path id="XMLID_307_" class="st42" d="M220.6,394.4c-0.1-0.1-0.1-0.1-0.2-0.1c-0.5-0.6-0.7-1.4-0.6-2.2c0.4-4.6,0.8-9.3,1.1-13.9
			c0-0.6,0-1.2,0-1.8c0-0.4,0.1-0.8,0.1-1.1c0.3-1.2,0.3-2.4,0.3-3.6c0,0,0,0,0,0c0.9-0.9,1.1-2,1.3-3.2c0.7-3,0.6-6.1,0.8-9.2
			c0.5,0,1,0,1.5,0c0.8,3.4,3.8,6.3,5.8,5.4c-2.8-0.8-4.8-2.4-5.2-5.4c0.5,0,0.9,0.1,1.4,0.1c1,3.1,4.2,5.4,7.7,3.2
			c0.8-0.5,1.6-1,2.2-1.8c0.3,0,0.5,0,0.8,0c-0.6,2.5-2.8,3.2-4.7,4.1c2.1-0.2,3.7-1.2,4.8-2.9c0.3-0.4,0.3-0.9,0.9-1
			c0.8,0.3,1.6,0.6,2.4,0.9c0.3,0.6,0,1.1,0,1.7c-0.3,2.5-0.6,4.9-0.4,7.4c-0.1,0.2-0.1,0.5,0.1,0.7c0,0.2,0.1,0.5,0.1,0.7
			c-0.6,0.1-0.5,0.6-0.6,1c-0.5,2.2-0.6,4.4-0.7,6.6c-0.1,2.5-0.1,5,0.2,7.4c-0.5,0-0.9,0-1.4,0c-0.7,0-1.5-0.4-2.2,0.3
			c-0.5,0.3-0.5,0.8-0.6,1.2c-0.1,0.8-0.2,1.6-0.3,2.4c-0.3,0-0.5,0.1-0.8,0.1c-4.5,1-8.9,2-13.4,3c0,0,0,0,0,0
			C221,394.4,220.8,394.3,220.6,394.4z"/>
		<path id="XMLID_306_" class="st43" d="M215.4,376.2c-0.3,0.7-0.9,1.2-1.4,1.7c-3,3-5.4,2.6-7.6-1c-1.3-2.2-2.1-4.7-2.9-7.2
			c-0.8-2.6-2.2-4.7-4.4-6.3c-1.6-1.2-2.2-3.1-3.4-4.9c1.3,0,1.7,1,2.4,1.2c0.3-0.4-0.1-1,0.4-1.5c0.6,0.3,0.9,0.9,1.1,1.5
			c0.7,1.7,2,2.5,3.6,3c0.7,0.2,1.2,0.1,1.4-0.7c0.1-0.4,0.3-0.8,0.5-1.2c0.2-0.4,0.6-0.4,1-0.2c0.4,0.2,0.6,0.5,0.3,1
			c-1.1,1.8-0.5,3.5,0.4,5.2c1.1,2.2,2.1,4.5,3.2,6.8c0.6,1.3,0.6,1.3,1.4,0.1c0.2-0.3,0.5-0.6,0.7-0.9
			C213.5,373.6,214.3,375,215.4,376.2z"/>
		<path id="XMLID_305_" class="st44" d="M226.7,343.1c0-1.9-0.2-3.8-0.8-5.7c-0.2-0.6-0.4-1.3-0.4-1.9c-0.2-1.5,0.5-2.4,2-2.4
			c0.8,0,1-0.3,1.1-1.1c0.2-1.9,0.5-2.1,2.1-1c0.4,0.2,0.7,0.2,1.1,0.3c1.2,0.1,2.3,0.4,3.3,1.2c1.1,0.8,2,1.9,3.3,2.4
			c1,0.4,1.2,1.6,1.2,2.7c0.1,2-0.6,3.8-1.1,5.6c-1-0.3-1.7-1-2.2-2c-0.7-1.6-2-1.9-3.5-1.8c-2.2,0.2-3.7,1.5-5.1,3
			C227.6,342.8,227.4,343.6,226.7,343.1z"/>
		<path id="XMLID_304_" class="st42" d="M243.5,363.3c4.2,3.3,7.1,7.6,9.2,12.4c-3.1,0.9-6.3,1.8-9.4,2.7c-0.4-0.8-0.4-1.8-0.6-2.6
			c-0.2-0.7,0.1-1.6-0.8-2c0.1-0.1,0.1-0.3,0.2-0.4c0.2-0.2,0.2-0.4,0-0.6c-0.1-3.1-0.3-6.3-0.4-9.4c0-0.3-0.1-0.7,0.3-0.9
			c0.3,0.1,0.5,0.3,0.8,0.4C243,362.9,243.2,363.1,243.5,363.3z"/>
		<path id="XMLID_301_" class="st44" d="M242.7,362.8c-0.3-0.1-0.5-0.3-0.8-0.4c-0.2-0.3-0.5-0.4-0.8-0.4c-0.8-0.3-1.6-0.6-2.4-0.9
			c-0.3-0.3-0.7-0.2-1.1-0.2c-0.3,0-0.5,0-0.8,0c-1.5-0.2-2.6-0.8-2.4-2.6c0.1-1.6,0.1-1.6-1.5-1.4c-0.9,0.1-1.7,0-2.5-0.4
			c-0.3-0.1-0.6-0.5-1.1-0.2c-0.3-0.9-1-1.4-1.6-2c-1.1-1.7-1.8-3.6-1.6-5.7c0.3-1.2,0.4-2.5,0.3-3.8c0.5,0.3,0.3,0.8,0.4,1.2
			c0,0.3,0.1,0.6,0.1,0.9c0.2,2.4,1.9,3.6,4.3,2.7c1-0.4,1.8-0.2,2.8,0.2c1.7,0.8,3.6-0.2,3.9-2.1c0.1-0.6,0.2-1.1,0.2-1.7l0.1,0
			l0.1,0c0,0.9,0.1,1.7,0.1,2.6c-0.2,2-0.1,4.1-1.6,5.8c-1.1,0.9-1.1,0.9,0.1,1.6C239.8,357.7,241.9,359.6,242.7,362.8z
			 M230.4,352.2c1.9,1.6,3.3,1.5,4.1-0.3C233.1,352,231.8,351.8,230.4,352.2z"/>
		<path id="XMLID_300_" class="st45" d="M235.3,391.4c0.1-0.8,0.2-1.6,0.3-2.4c0.1-0.5,0.1-0.9,0.6-1.2c1.3,1.3,2.6,2.7,4,3.9
			c1.5,1.3,2.8,2.9,4.8,3.5c0.4,0.6,0.9,1,1.7,1c0.1,0.8,1,0.8,1.4,1.4c-0.5,0.5-1.2,0.9-1.8,1.2c-0.4,0.2-1.3,0.2-1.1,0.8
			c0.1,0.5,0.9,0.3,1.4,0.4c0.1,0,0.3,0,0.4,0c0.4,0,1,0,1,0.5c0,0.5-0.6,0.4-1,0.4c-1,0-2.1-0.4-3.1,0c-0.3,0-0.6,0-0.9,0
			c-1.3-0.4-2.6-0.3-3.9-0.5c-0.9-0.1-1.8-0.2-2.7-0.3c-1.1-0.1-1.6-0.7-1.6-1.8c0.1-1.4,0.2-2.9,0.3-4.3
			C235.3,393.1,235.3,392.3,235.3,391.4z"/>
		<path id="XMLID_299_" class="st46" d="M239,400.4c1.3,0.1,2.6,0,3.9,0.5c-1,7.8-2.1,15.7-3.1,23.5c-0.8,5.8-1.5,11.6-2.3,17.4
			c-0.3,0.8,0.2,1.8-0.8,2.3c0.2-4,0.5-8,0.7-12c0.1-2,0.2-3.9,0.3-5.9c0.2-4.1,0.4-8.1,0.6-12.2C238.5,409.6,238.8,405,239,400.4z"
			/>
		<path id="XMLID_298_" class="st42" d="M220.3,373.6c-0.2,0.3-0.4,0.6-0.7,0.9c-2.4-2.7-4.9-5.5-7.3-8.2c2.6-3.3,5.7-5.9,9.8-6.9
			c0.1,0,0.2,0,0.3-0.1c0.6,0,0.8,0.1,0.7,0.9c-0.6,3.8-1.2,7.6-1.8,11.4c0,0,0,0,0,0C220.9,372.2,220.5,372.9,220.3,373.6z"/>
		<path id="XMLID_297_" class="st47" d="M251.4,388.6c1.8,0.2,3.6,0.3,5.3,0.5c1,0.1,1.8,0.4,1.8,1.5c-0.2,3.5-0.5,7.1-1,10.5
			c-2.7-0.4-5-1.6-7.4-2.6C250.8,395.2,251.1,391.9,251.4,388.6z"/>
		<path id="XMLID_296_" class="st43" d="M251.4,388.6c-0.2,3.3-0.6,6.7-1.3,9.9c-0.4,1-0.7,1.9-1.1,2.9c-1.5,2.1-3.6,1.9-5.2-0.5
			c1-0.5,2.1-0.1,3.1,0c0.4,0,0.9,0.1,1-0.4c0-0.6-0.5-0.5-1-0.5c-0.1,0-0.3,0.1-0.4,0c-0.5-0.1-1.3,0.1-1.4-0.4
			c-0.1-0.6,0.7-0.6,1.1-0.8c0.7-0.3,1.3-0.7,1.8-1.2c0.6-0.2,0.7-0.7,0.6-1.3c-0.3-2.7-0.6-5.3-1-8c-0.3-2.4-0.2-4.8-1.1-7.1
			c1.3-0.2,2.7-0.4,4-0.5C251.4,383.2,251.3,385.9,251.4,388.6z"/>
		<path id="XMLID_295_" class="st48" d="M238.6,348.8c0-0.9-0.1-1.7-0.1-2.6c0.1-0.4,0.1-0.8,0.2-1.2c0.1-0.5,0-0.6-0.5-0.6
			c-3.6,0-7.2,0-10.8,0.1c-0.3,0-0.7-0.2-0.8,0.3c0.1,1.3-0.1,2.5-0.3,3.8c-1.5-1.7-1.2-4.8,0.5-5.6c0.7,0.5,0.9-0.3,1.2-0.6
			c1.4-1.5,2.9-2.9,5.1-3c1.6-0.1,2.8,0.2,3.5,1.8c0.4,0.9,1.2,1.6,2.2,2C240.5,344.7,240.4,347.9,238.6,348.8z"/>
		<path id="XMLID_294_" class="st46" d="M222.5,359.4c-0.1,0-0.2,0-0.3,0.1c0.9-2,2.6-3.4,4.4-4.5c0.4-0.2,0.7-0.4,1.1-0.7
			c0.7,0.6,1.4,1.1,1.6,2c0,0.1,0.1,0.2,0.1,0.3c0,0,0,0,0,0c0,0.1-0.1,0.3-0.1,0.4c-0.4,2.6-0.4,2.6-2.4,2.5
			c-0.5,0-0.9-0.1-1.4-0.1c-0.2,0-0.4,0-0.6,0c-0.5,0-1,0-1.5,0C223.2,359.2,222.8,359.2,222.5,359.4z"/>
		<path id="XMLID_293_" class="st42" d="M218.8,375.7c-0.3,1.1-0.9,1.1-1.7,0.5c-0.3-0.2-0.5-0.5-0.8-0.7c-1.2-1.2-2.4-2.6-3.8-3.6
			c-0.5-0.5-0.9-1-1.4-1.4c-1.2-1.2-1.2-1.5-0.2-2.7c0.2-0.2,0.4-0.4,0.5-0.6C214,370,216.4,372.9,218.8,375.7z"/>
		<path id="XMLID_292_" class="st49" d="M243.3,378.3c3.1-0.9,6.3-1.8,9.4-2.7c0.2,0.5,0.4,1,0.6,1.5c-3.2,1-6.5,2.1-9.7,3.1
			C243.3,379.6,243.2,379,243.3,378.3z"/>
		<path id="XMLID_291_" class="st49" d="M218.8,375.7c-2.4-2.8-4.8-5.7-7.3-8.5c0.3-0.3,0.5-0.6,0.8-0.8c2.4,2.7,4.9,5.5,7.3,8.2
			C219.3,374.9,219.1,375.3,218.8,375.7z"/>
		<path id="XMLID_290_" class="st45" d="M249,401.3c0.4-1,0.7-1.9,1.1-2.9c2.4,1.1,4.7,2.3,7.4,2.6c-1.1,1.5-2.6,0.7-3.8,0.7
			C252,401.8,250.5,401.5,249,401.3z"/>
		<path id="XMLID_289_" class="st42" d="M243.5,380.3c3.2-1,6.5-2.1,9.7-3.1c1,1.7,1,1.8-0.9,2.2c-0.6,0.1-1.3,0.3-1.9,0.4
			c-1.7,0.1-3.4,0.4-5.1,0.7c-0.6,0.1-1.2,0.2-1.8,0.2C243.6,380.6,243.6,380.4,243.5,380.3z"/>
		<path id="XMLID_288_" class="st49" d="M242.7,362.8c-0.8-3.1-3-5.1-5.7-6.6c-1.2-0.7-1.2-0.7-0.1-1.6c2.8,1.7,5,3.9,6.1,7.1
			c0.2,0.5,0.3,1.1,0.4,1.6C243.2,363.1,243,362.9,242.7,362.8z"/>
		<path id="XMLID_287_" class="st50" d="M212.5,371.9c1.4,1,2.6,2.4,3.8,3.6c-0.3,0.2-0.6,0.5-0.9,0.7c-1.1-1.2-2-2.6-3.3-3.6
			C212.3,372.4,212.4,372.1,212.5,371.9z"/>
		<path id="XMLID_286_" class="st50" d="M245.4,380.5c1.7-0.3,3.4-0.7,5.1-0.7c0,0.3,0,0.6,0.1,0.8c-1.3,0.2-2.7,0.4-4,0.5
			C246.2,380.9,245.9,380.6,245.4,380.5z"/>
		<path id="XMLID_285_" class="st51" d="M220.3,373.6c0.2-0.8,0.6-1.4,1.1-2c-0.1,1.2,0,2.5-0.3,3.6
			C220.8,374.7,220.5,374.2,220.3,373.6z"/>
		<path id="XMLID_284_" class="st51" d="M221,376.4c0,0.6,0,1.2,0,1.8C221,377.6,221,377,221,376.4z"/>
		<path id="XMLID_282_" class="st41" d="M216.6,446.9c0.6,0.2,0.6,0.7,0.6,1.1c0.1,1.1,0.1,2.2,0.2,3.4c-1.3-0.1-2.6-0.1-3.9,0
			c-0.8-1-1.6,0-2.4,0c-4-0.1-8.1-0.1-12.1,0c-0.1-0.9,0.5-1.2,1.2-1.3c2.8-0.4,5.7-0.9,8.5-1.3c1.2-0.2,2.2-0.9,3.3-1.4
			c0.5-0.2,0.9-0.4,1.5-0.5C214.6,446.9,215.6,446.9,216.6,446.9z"/>
		<path id="XMLID_279_" class="st49" d="M235.2,447.7c2.5,0.7,4.9,1.4,7.4,2.2c0.6,0.2,1.3,0.4,1.1,1.3c-4.5,0-8.9,0-13.4-0.1
			c0.4-1.2,0.3-2.6,1.9-3.1C233.2,447.9,234.3,448,235.2,447.7z M235.4,448.6c1.6,1,1.6,1,2.3,0.6
			C237,448.6,236.3,448.2,235.4,448.6z"/>
		<path id="XMLID_278_" class="st48" d="M235.2,447.7c-1,0.4-2,0.2-3,0.3c-0.1-1.2,0.5-2.3,0.6-3.5c1-0.3,2-0.1,3-0.1
			C235.9,445.5,235.3,446.5,235.2,447.7z"/>
		<path id="XMLID_277_" class="st48" d="M216.6,446.9c-1,0-2,0-3,0c0.3-1.1,0.5-2.3,0.8-3.4c1,0,1.9,0.4,2.8,0.6
			C217.2,445,216.8,445.9,216.6,446.9z"/>
		<path id="XMLID_276_" class="st11" d="M230.3,451.1c4.5,0,8.9,0,13.4,0.1c-0.2,0.6-0.7,0.6-1.2,0.6c-3.8,0-7.6,0-11.4,0
			C230.8,451.7,230,452,230.3,451.1z"/>
		<path id="XMLID_275_" class="st52" d="M199.1,451.4c4-0.1,8.1-0.1,12.1,0c-0.4,0.5-1,0.5-1.6,0.5c-3.1,0-6.1,0-9.2,0
			C199.9,451.9,199.4,451.9,199.1,451.4z"/>
		<path id="XMLID_274_" class="st52" d="M213.5,451.4c1.3-0.1,2.6-0.1,3.9,0C216.6,452.1,214.3,452.1,213.5,451.4z"/>
		<path id="XMLID_273_" class="st46" d="M235.3,391.4c0,0.9-0.1,1.8-0.3,2.6c-2.3,0.5-4.5,1.2-6.9,1.5c-1.8,0.2-3.6,0.2-5.3,0
			c-0.6,0-1.4-0.1-1.7-1c4.5-1,8.9-2,13.4-3C234.8,391.5,235.1,391.4,235.3,391.4z"/>
		<path id="XMLID_272_" class="st46" d="M220.6,394.4c0.2-0.1,0.4,0,0.5,0.2C221,394.5,220.8,394.4,220.6,394.4z"/>
		<path id="XMLID_271_" class="st53" d="M243.5,380.3c0,0.2,0,0.3,0,0.5c0.2,0.6,0.3,1.3,0.5,1.9c0.4,1.8,1.3,3.4,1.2,5.3
			c-1.9,0-3.7-0.2-5.5-0.5c-0.3-2.5-0.3-5-0.2-7.4c0.1-2.2,0.3-4.4,0.7-6.6c0.1-0.4,0-0.9,0.6-1c0.3,0.4,0.6,0.9,0.9,1.3
			c0.9,0.4,0.6,1.3,0.8,2c0.2,0.9,0.2,1.8,0.6,2.6C243.2,379,243.3,379.6,243.5,380.3z"/>
		<path id="XMLID_270_" class="st47" d="M239.8,387.5c1.8,0.3,3.7,0.5,5.5,0.5c0.8,0.1,1.5,0.2,2.3,0.3c0.3,2.7,0.6,5.3,1,8
			c0.1,0.6,0,1-0.6,1.3c-0.4-0.5-1.2-0.6-1.4-1.4c0.5-0.3,1.1-0.5,1.3-1.2c0.1-0.7,0.1-1.3-0.5-1.8c-0.5-0.4-1-0.5-1.6-0.2
			c-0.8,0.5-1.1,1.2-0.9,2.1c-2-0.6-3.3-2.2-4.8-3.5c-1.4-1.2-2.7-2.6-4-3.9c0.6-0.7,1.4-0.3,2.2-0.3
			C238.9,387.4,239.3,387.4,239.8,387.5z"/>
		<path id="XMLID_269_" class="st43" d="M227,359.4c2,0.2,2,0.2,2.4-2.5c0.4,0,0.7,0.1,1,0.3c1.3,0.8,2.6,1.1,4.1,1
			c-0.2,1.8,0.8,2.4,2.4,2.6c-0.6,0.8-1.4,1.3-2.2,1.8C231.2,364.8,228,362.5,227,359.4z"/>
		<path id="XMLID_268_" class="st51" d="M241.9,373.7c-0.3-0.4-0.6-0.8-0.9-1.3c0-0.2-0.1-0.5-0.1-0.7c0.1-0.2,0.1-0.5-0.1-0.7
			c-0.2-2.5,0-4.9,0.4-7.4c0.1-0.5,0.3-1.1,0-1.7c0.3,0,0.6,0.1,0.8,0.4c-0.4,0.2-0.3,0.6-0.3,0.9c0.1,3.1,0.3,6.3,0.4,9.4
			c0,0.2,0,0.4,0,0.6C242,373.4,241.9,373.5,241.9,373.7z"/>
		<path id="XMLID_267_" class="st51" d="M222.5,359.4c0.3-0.2,0.7-0.2,1.1-0.1c-0.2,3.1-0.2,6.2-0.8,9.2c-0.2,1.1-0.4,2.3-1.3,3.2
			c0.6-3.8,1.1-7.6,1.8-11.4C223.3,359.6,223,359.4,222.5,359.4z"/>
		<path id="XMLID_266_" class="st51" d="M225,359.3c0.2,0,0.4,0,0.6,0c0.4,3.1,2.4,4.6,5.2,5.4C228.8,365.6,225.8,362.7,225,359.3z"
			/>
		<path id="XMLID_265_" class="st51" d="M237.7,360.9c0.4,0,0.7-0.1,1.1,0.2c-0.6,0.1-0.7,0.6-0.9,1c-1.2,1.7-2.7,2.7-4.8,2.9
			C234.9,364,237.1,363.3,237.7,360.9z"/>
		<path id="XMLID_264_" class="st53" d="M240.7,371c0.2,0.2,0.2,0.4,0.1,0.7C240.6,371.5,240.6,371.2,240.7,371z"/>
		<path id="XMLID_263_" class="st53" d="M242,373.3c0-0.2,0-0.4,0-0.6C242.2,372.9,242.2,373.1,242,373.3z"/>
		<path id="XMLID_260_" class="st48" d="M238.3,346.1c-0.1,0.6-0.1,1.1-0.2,1.7c-0.3,1.9-2.1,2.9-3.9,2.1c-0.9-0.4-1.8-0.6-2.8-0.2
			c-2.4,0.9-4.1-0.3-4.3-2.7c0-0.3-0.1-0.6-0.1-0.9c0.2,0.1,0.4,0.2,0.6,0.3c0.1,0.1,0.1,0.2,0.2,0.2c0.2,0.2,0.4,0.3,0.6,0.5
			c1,0.8,2.1-0.5,3.2,0.1c-0.2-0.6,0.6-1,0.2-1.6c-1.5,1.6-2,1.8-3.8,0.9c-0.1-0.1-0.2-0.2-0.3-0.3c-0.5-0.9-0.4-1.4,0.8-1.2
			c1.1,0.1,2.2,0,3.2,0.1c0.6,0.1,1.2-0.1,1.6,0.5c0.8-1.4,2-0.5,3-0.6c1.5-0.2,1.6,0,0.8,1.4c-0.1,0.1-0.2,0.3-0.1,0.3
			c0.2,0.2,0.3,0,0.4-0.1C237.8,346.5,237.8,345.6,238.3,346.1z M236.9,346.7c-1.2,0.5-2.3-0.1-3.3-0.6
			C234.8,347.4,235.6,347.6,236.9,346.7z"/>
		<path id="XMLID_259_" class="st50" d="M234.5,358.2c-1.5,0.1-2.9-0.2-4.1-1c-0.3-0.2-0.6-0.3-1-0.3c0-0.1,0.1-0.3,0.1-0.4
			c0,0,0,0,0,0c0-0.1-0.1-0.2-0.1-0.3c0.4-0.3,0.7,0.1,1.1,0.2c0.8,0.3,1.7,0.5,2.5,0.4C234.6,356.6,234.6,356.6,234.5,358.2z"/>
		<path id="XMLID_258_" class="st51" d="M238.3,346.1c-0.5-0.5-0.5,0.4-0.8,0.3c-0.1-0.1-0.2-0.1-0.2-0.2c0.8-1.4,0.7-1.5-0.8-1.4
			c-1,0.1-2.3-0.8-3,0.6c-0.4-0.6-1-0.4-1.6-0.5c-1.1-0.1-2.2,0-3.2-0.1c-1.2-0.1-1.3,0.3-0.8,1.2c-0.1,0.1-0.1,0.2-0.2,0.2
			c-0.2-0.1-0.4-0.2-0.6-0.3c-0.2-0.4,0.1-1-0.4-1.2c0.1-0.6,0.5-0.3,0.8-0.3c3.6,0,7.2,0,10.8-0.1c0.5,0,0.6,0.1,0.5,0.6
			c-0.1,0.4-0.1,0.8-0.2,1.2C238.5,346.1,238.4,346.2,238.3,346.1L238.3,346.1z"/>
		<path id="XMLID_257_" class="st52" d="M230.4,352.2c1.4-0.4,2.7-0.2,4.1-0.3C233.7,353.7,232.3,353.8,230.4,352.2z"/>
		<path id="XMLID_256_" class="st11" d="M245,395.1c-0.2-0.9,0-1.6,0.9-2.1c0.6-0.3,1.1-0.2,1.6,0.2c0.6,0.5,0.7,1.1,0.5,1.8
			c-0.1,0.7-0.8,0.9-1.3,1.2C245.9,396.1,245.4,395.7,245,395.1z"/>
		<path id="XMLID_255_" class="st54" d="M247.6,388.2c-0.8-0.1-1.5-0.2-2.3-0.3c0-1.9-0.8-3.5-1.2-5.3c-0.1-0.6-0.3-1.3-0.5-1.9
			c0.6-0.1,1.2-0.2,1.8-0.2c0.5,0,0.8,0.4,1.2,0.6C247.4,383.4,247.3,385.9,247.6,388.2z"/>
		<path id="XMLID_254_" class="st43" d="M229.5,356.6C229.5,356.6,229.5,356.5,229.5,356.6C229.5,356.5,229.5,356.6,229.5,356.6z"/>
		<path id="XMLID_253_" class="st47" d="M235.4,448.6c0.9-0.4,1.6,0,2.3,0.6C237,449.6,237,449.6,235.4,448.6z"/>
		<path id="XMLID_252_" class="st51" d="M228,346.4c1.7,0.9,2.3,0.8,3.8-0.9c0.4,0.6-0.4,1.1-0.2,1.6c-1-0.6-2.1,0.8-3.2-0.1
			c-0.2-0.2-0.4-0.3-0.6-0.5C227.9,346.5,227.9,346.4,228,346.4z"/>
		<path id="XMLID_251_" class="st51" d="M236.9,346.7c-1.3,0.9-2.2,0.7-3.3-0.6C234.7,346.6,235.7,347.2,236.9,346.7z"/>
		<path id="XMLID_250_" class="st51" d="M237.5,346.5c-0.1,0.1-0.2,0.3-0.4,0.1c0,0,0.1-0.2,0.1-0.3
			C237.3,346.3,237.4,346.4,237.5,346.5z"/>
		<path id="XMLID_249_" class="st51" d="M227.8,346.1c0.1,0.1,0.2,0.2,0.3,0.3c-0.1,0.1-0.2,0.1-0.2,0.2c-0.1-0.1-0.1-0.2-0.2-0.2
			C227.6,346.2,227.7,346.2,227.8,346.1z"/>
	</g>
	<circle id="XMLID_74_" class="st55" cx="230" cy="532.7" r="15.3"/>
	<text id="XMLID_14_" transform="matrix(1 0 0 1 112.9572 413.3961)" class="st16 st17">2009</text>
	<text id="XMLID_77_" transform="matrix(1 0 0 1 210.6239 573.3961)" class="st16 st17">2013</text>
	<text id="XMLID_80_" transform="matrix(1 0 0 1 322.0031 486.03)" class="st18 st19">Tertiary</text>
	<text id="XMLID_82_" transform="matrix(1 0 0 1 241.8562 502.6035)"><tspan x="0" y="0" class="st20 st21">Bachelor of Science in Information Technology </tspan><tspan x="64.2" y="13.2" class="st20 st21">Northeastern College </tspan><tspan x="44.8" y="26.4" class="st20 st21">Villasis, Santiago City, Isabela</tspan></text>
</g>
</svg>
