<?xml version="1.0" encoding="utf-8"?>
<!-- Generator: Adobe Illustrator 19.0.0, SVG Export Plug-In . SVG Version: 6.00 Build 0)  -->
<svg version="1.1" id="Layer_1" xmlns="http://www.w3.org/2000/svg" xmlns:xlink="http://www.w3.org/1999/xlink" x="0px" y="0px"
	 viewBox="0 0 478 231" style="enable-background:new 0 0 478 231;" xml:space="preserve">
<style type="text/css">
	.st0{fill:#0F6DB2;}
	.st1{fill:#377FC2;}
	.st2{fill:none;stroke:#377FC2;stroke-width:7;stroke-miterlimit:10;}
	.st3{font-family: 'Montserrat', sans-serif;}
	.st4{font-size:18px;}
	.st5{fill:none;}
	.st6{fill:#FFFFFF;}
	.st7{font-size:16px;}
	.st8{font-size:12px;}
</style>
<path id="XMLID_29_" class="st0" d="M384,49.2v24.6c-6.6-0.2-12-5.6-12-12.3S377.4,49.4,384,49.2z"/>
<path id="XMLID_30_" class="st0" d="M384,11v33.2c-0.1,0-0.1,0-0.2,0c-9.4,0.3-16.8,7.9-16.8,17.3c0,8.7,6.3,15.9,14.7,17.1l0.2,0.2
	h2.1v26.7H99V46.7c6.7,0.2,12,5.6,12,12.3c0,6.7-5.4,12.1-12,12.3v5c9.4-0.2,17-7.9,17-17.3c0-9.4-7.6-17.2-17-17.3V11H384z"/>
<path id="XMLID_34_" class="st0" d="M364.5,177.8c0,8.7,6.3,15.9,14.8,17.1l0.2,0.2h2c0,0,0,0,0,0v-5c-6.6-0.2-12-5.6-12-12.3
	c0-6.7,5.4-12.2,12-12.3c0.1,0,0.2,0,0.3,0c0.8,0,1.5,0.1,2.2,0.2V190c-0.7,0.1-1.4,0.2-2.2,0.2c-0.1,0-0.2,0-0.3,0v5
	c0.1,0,0.2,0,0.3,0c0.2,0,0.3,0,0.5,0h1.3l0.1-0.1c0.1,0,0.2,0,0.4,0v27.5H99v-58.8c0,0,0,0,0,0c2.9,0.1,5.6,1.2,7.6,2.9
	c0.1,0.1,0.3,0.2,0.4,0.4c0.2,0.1,0.3,0.3,0.5,0.4c0.1,0.2,0.3,0.3,0.4,0.5c0,0,0,0,0,0c0.3,0.4,0.7,0.8,0.9,1.2
	c0.1,0.2,0.3,0.4,0.4,0.7c0.2,0.3,0.4,0.6,0.5,0.9c0,0,0,0.1,0,0.1c0.1,0.2,0.2,0.4,0.2,0.5c0.1,0.2,0.1,0.4,0.2,0.5
	c0.1,0.4,0.3,0.7,0.4,1.1c0,0.2,0.1,0.4,0.1,0.6c0,0,0,0,0,0.1c0.1,0.4,0.1,0.8,0.2,1.2c0,0.4,0.1,0.8,0.1,1.3c0,0.7-0.1,1.3-0.2,2
	c0,0.2-0.1,0.3-0.1,0.5c-0.2,0.8-0.4,1.6-0.7,2.3c-0.1,0.2-0.2,0.4-0.3,0.5c-0.1,0.2-0.2,0.4-0.3,0.5c-0.2,0.4-0.4,0.7-0.6,1
	c-0.2,0.3-0.4,0.7-0.7,1c-0.1,0.2-0.3,0.3-0.4,0.5c-0.1,0.1-0.3,0.3-0.4,0.4c-0.1,0.1-0.3,0.3-0.4,0.4c-0.1,0.1-0.3,0.3-0.4,0.4
	c-0.3,0.3-0.6,0.5-1,0.7c-0.4,0.3-0.9,0.6-1.4,0.8c-0.1,0.1-0.2,0.1-0.4,0.2c-0.3,0.1-0.6,0.3-0.9,0.4c-0.2,0.1-0.4,0.1-0.6,0.2
	c-1,0.3-2.2,0.5-3.3,0.6v5c0.2,0,0.4,0,0.5,0c2.4-0.1,4.6-0.7,6.6-1.7c0.5-0.2,1-0.5,1.5-0.8c0.5-0.3,0.9-0.6,1.4-0.9
	c1.6-1.2,2.9-2.6,4-4.2c0.2-0.2,0.3-0.5,0.4-0.7c0.7-1.2,1.3-2.5,1.7-3.8c0.2-0.5,0.3-1.1,0.4-1.7c0-0.2,0.1-0.4,0.1-0.6
	c0.2-1,0.3-1.9,0.3-2.9c0-0.6,0-1.2-0.1-1.8c-0.1-0.6-0.1-1.1-0.3-1.7c-0.1-0.6-0.3-1.1-0.4-1.6c-0.1-0.4-0.3-0.9-0.5-1.3
	c-0.2-0.4-0.3-0.8-0.5-1.2c-0.1-0.2-0.2-0.4-0.3-0.6c-0.2-0.3-0.4-0.7-0.6-1c-3-4.8-8.3-8-14.4-8.1c0,0,0,0,0,0V128h285v32.6
	c-0.7-0.1-1.5-0.1-2.2-0.1c-0.2,0-0.4,0-0.6,0C371.8,160.8,364.5,168.4,364.5,177.8z"/>
<path id="XMLID_19_" class="st1" d="M99,158.7C99,158.7,99,158.7,99,158.7L99,158.7C99,158.7,99,158.7,99,158.7
	c6,0.1,11.4,3.3,14.4,8.1C110.3,162,105.1,158.8,99,158.7z"/>
<polyline id="XMLID_5_" class="st2" points="12,176 12,169.5 12,169.5 12,166.8 12,166.8 12,150.5 12,138.5 12,123 12,120.4 
	12,113.8 "/>
<path id="XMLID_12_" class="st1" d="M111,176c0,0.7-0.1,1.3-0.2,2c0,0.2-0.1,0.3-0.1,0.5c-0.2,0.8-0.4,1.6-0.7,2.3
	c-0.1,0.2-0.2,0.4-0.3,0.5c-0.1,0.2-0.2,0.4-0.3,0.5c-0.2,0.4-0.4,0.7-0.6,1c-0.2,0.3-0.4,0.7-0.7,1c-0.1,0.2-0.3,0.3-0.4,0.5
	c-0.1,0.1-0.3,0.3-0.4,0.4c-0.1,0.1-0.3,0.3-0.4,0.4c-0.1,0.1-0.3,0.3-0.4,0.4c-0.3,0.3-0.6,0.5-1,0.7c-0.4,0.3-0.9,0.6-1.4,0.8
	c-0.1,0.1-0.2,0.1-0.4,0.2c-0.3,0.1-0.6,0.3-0.9,0.4c-0.2,0.1-0.4,0.1-0.6,0.2c-1.1,0.3-2.2,0.5-3.3,0.5c-0.1,0-0.2,0-0.3,0
	c-6.8,0-12.3-5.5-12.3-12.3c0-6.8,5.5-12.3,12.3-12.3c0.1,0,0.2,0,0.3,0c2.9,0.1,5.6,1.2,7.6,2.9c0.1,0.1,0.3,0.2,0.4,0.4
	c0.2,0.1,0.3,0.3,0.5,0.4c0.1,0.2,0.3,0.3,0.4,0.5c0,0,0,0,0,0c0.3,0.4,0.7,0.8,0.9,1.2c0.1,0.2,0.3,0.4,0.4,0.7
	c0.2,0.3,0.4,0.6,0.5,0.9c0,0,0,0.1,0,0.1c0.1,0.2,0.2,0.4,0.2,0.5c0.1,0.2,0.1,0.4,0.2,0.5c0.1,0.4,0.3,0.7,0.4,1.1
	c0,0.2,0.1,0.4,0.1,0.6c0,0,0,0,0,0.1c0.1,0.4,0.1,0.8,0.2,1.2C111,175.2,111,175.6,111,176z"/>
<path id="XMLID_14_" class="st1" d="M111,59c0,6.7-5.4,12.1-12,12.3v5c0,0,0,0,0,0v-5c-0.1,0-0.2,0-0.3,0c-6.8,0-12.3-5.5-12.3-12.3
	c0-6.8,5.5-12.3,12.3-12.3c0.1,0,0.2,0,0.3,0C105.7,46.9,111,52.3,111,59z"/>
<path id="XMLID_11_" class="st1" d="M111,59c0,6.7-5.4,12.1-12,12.3c0,0,0,0,0,0c-0.1,0-0.2,0-0.3,0c-6.8,0-12.3-5.5-12.3-12.3
	c0-6.8,5.5-12.3,12.3-12.3c0.1,0,0.2,0,0.3,0C105.7,46.9,111,52.3,111,59z"/>
<path id="XMLID_21_" class="st1" d="M111,174.8c0,0.4,0.1,0.8,0.1,1.3c0,0.7-0.1,1.3-0.2,2c0,0.2-0.1,0.3-0.1,0.5
	c-0.2,0.8-0.4,1.6-0.7,2.3c-0.1,0.2-0.2,0.4-0.3,0.5c-0.1,0.2-0.2,0.4-0.3,0.5c-0.2,0.4-0.4,0.7-0.6,1c-0.2,0.3-0.4,0.7-0.7,1
	c-0.1,0.2-0.3,0.3-0.4,0.5c-0.1,0.1-0.3,0.3-0.4,0.4c-0.1,0.1-0.3,0.3-0.4,0.4c-0.1,0.1-0.3,0.3-0.4,0.4c-0.3,0.3-0.6,0.5-1,0.7
	c-0.4,0.3-0.9,0.6-1.4,0.8c-0.1,0.1-0.2,0.1-0.4,0.2c-0.3,0.1-0.6,0.3-0.9,0.4c-0.2,0.1-0.4,0.1-0.6,0.2c-1,0.3-2.2,0.5-3.3,0.6v5
	c0,0,0,0,0,0v-5c-0.1,0-0.2,0-0.3,0c-6.8,0-12.3-5.5-12.3-12.3c0-6.8,5.5-12.3,12.3-12.3c0.1,0,0.2,0,0.3,0c2.9,0.1,5.6,1.2,7.6,2.9
	c0.1,0.1,0.3,0.2,0.4,0.4c0.2,0.1,0.3,0.3,0.5,0.4c0.1,0.2,0.3,0.3,0.4,0.5c0,0,0,0,0,0c0.3,0.4,0.7,0.8,0.9,1.2
	c0.1,0.2,0.3,0.4,0.4,0.7c0.2,0.3,0.4,0.6,0.5,0.9c0,0,0,0.1,0,0.1c0.1,0.2,0.2,0.4,0.2,0.5c0.1,0.2,0.1,0.4,0.2,0.5
	c0.1,0.4,0.3,0.7,0.4,1.1c0,0.2,0.1,0.4,0.1,0.6c0,0,0,0,0,0.1C110.8,174,110.9,174.4,111,174.8z"/>
<line id="XMLID_1_" class="st2" x1="11" y1="59" x2="95" y2="59"/>
<path id="XMLID_28_" class="st1" d="M394.1,177.8L394.1,177.8c0,6.1-4.4,11.1-10.1,12.1c-0.7,0.1-1.4,0.2-2.2,0.2
	c-0.1,0-0.2,0-0.3,0v5c0,0,0,0,0,0v-5c-6.6-0.2-12-5.6-12-12.3c0-6.7,5.4-12.2,12-12.3c0.1,0,0.2,0,0.3,0c0.8,0,1.5,0.1,2.2,0.2
	C389.8,166.7,394.1,171.8,394.1,177.8z"/>
<path id="XMLID_25_" class="st1" d="M394.1,177.8L394.1,177.8c0,6.1-4.4,11.1-10.1,12.1c-0.7,0.1-1.4,0.2-2.2,0.2
	c-0.1,0-0.2,0-0.3,0v5c0,0,0,0,0,0v-5c-6.6-0.2-12-5.6-12-12.3c0-6.7,5.4-12.2,12-12.3c0.1,0,0.2,0,0.3,0c0.8,0,1.5,0.1,2.2,0.2
	C389.8,166.7,394.1,171.8,394.1,177.8z"/>
<path id="XMLID_18_" class="st1" d="M394.1,177.8L394.1,177.8c0,6.1-4.4,11.1-10.1,12.1c-0.7,0.1-1.4,0.2-2.2,0.2
	c-0.1,0-0.2,0-0.3,0c0,0,0,0,0,0c-6.6-0.2-12-5.6-12-12.3c0-6.7,5.4-12.2,12-12.3c0.1,0,0.2,0,0.3,0c0.8,0,1.5,0.1,2.2,0.2
	C389.8,166.7,394.1,171.8,394.1,177.8z"/>
<polyline id="XMLID_13_" class="st2" points="469.5,177.8 399.1,177.8 394.1,177.8 385.5,177.8 "/>
<line id="XMLID_3_" class="st2" x1="8.3" y1="175.8" x2="95" y2="175.8"/>
<polyline id="XMLID_20_" class="st2" points="454,61.6 454,67.4 454,69.8 454,83.7 454,94.5 454,109.1 454,109.1 454,111.5 
	454,111.5 454,117.4 "/>
<path id="XMLID_33_" class="st1" d="M396.7,61.5c0,6.8-5.5,12.3-12.3,12.3c-0.1,0-0.2,0-0.3,0v5c0,0,0,0,0,0v-5h0
	c-6.6-0.2-12-5.6-12-12.3s5.3-12.1,12-12.3h0c0.1,0,0.2,0,0.3,0C391.2,49.2,396.7,54.7,396.7,61.5z"/>
<path id="XMLID_27_" class="st1" d="M396.7,61.5c0,6.8-5.5,12.3-12.3,12.3c-0.1,0-0.2,0-0.3,0v5c0,0,0,0,0,0c0,0,0,0,0,0h0v-5
	c-6.6-0.2-12-5.6-12-12.3s5.3-12.1,12-12.3h0c0.1,0,0.2,0,0.3,0C391.2,49.2,396.7,54.7,396.7,61.5z"/>
<path id="XMLID_24_" class="st1" d="M396.7,61.5c0,6.8-5.5,12.3-12.3,12.3c-0.1,0-0.2,0-0.3,0c0,0,0,0,0,0h0
	c-6.6-0.2-12-5.6-12-12.3s5.3-12.1,12-12.3h0c0.1,0,0.2,0,0.3,0C391.2,49.2,396.7,54.7,396.7,61.5z"/>
<line id="XMLID_9_" class="st2" x1="457.5" y1="61.5" x2="388" y2="61.5"/>
<line id="XMLID_8_" class="st2" x1="457.4" y1="117.3" x2="9" y2="117.3"/>
<text id="XMLID_4_" transform="matrix(1 0 0 1 32.499 28.2483)"><tspan x="0" y="0" class="st3 st4">Sep </tspan><tspan x="0" y="21.6" class="st3 st4">2013</tspan></text>
<text id="XMLID_7_" transform="matrix(1 0 0 1 403.499 32.2483)"><tspan x="0" y="0" class="st3 st4">Jul  </tspan><tspan x="0" y="21.6" class="st3 st4">2015</tspan></text>
<text id="XMLID_6_" transform="matrix(1 0 0 1 34 145.5)"><tspan x="0" y="0" class="st3 st4">Jul </tspan><tspan x="0" y="21.6" class="st3 st4">2015</tspan></text>
<text id="XMLID_10_" transform="matrix(1 0 0 1 397 169)" class="st3 st4">Present</text>
<rect id="XMLID_2_" x="125.5" y="29.5" class="st5" width="233.5" height="66"/>
<text id="XMLID_15_" transform="matrix(1 0 0 1 125.5 42.856)"><tspan x="0" y="0" class="st6 st3 st4">IT Administrator</tspan><tspan x="147.4" y="0" class="st6 st3 st7"> </tspan><tspan x="0" y="14.4" class="st6 st3 st8">Universal Professional &amp; Consultancy </tspan><tspan x="0" y="28.8" class="st6 st3 st8">Services </tspan><tspan x="0" y="43.2" class="st6 st3 st8">Villasis, Santiago City, Isabela </tspan></text>
<rect id="XMLID_22_" x="125.5" y="162" class="st5" width="233.5" height="66"/>
<text id="XMLID_17_" transform="matrix(1 0 0 1 125.5 175.356)"><tspan x="0" y="0" class="st6 st3 st4">Freelance Developer</tspan><tspan x="187.5" y="0" class="st6 st3 st8"> </tspan><tspan x="0" y="14.4" class="st6 st3 st8">Santiago City, Isabela </tspan></text>
</svg>
